<svg width="67" height="71" viewBox="0 0 67 71" fill="none" xmlns="http://www.w3.org/2000/svg">
<path fill-rule="evenodd" clip-rule="evenodd" d="M16 34C13.7908 34 12 35.6416 12 37.6667V41.3333C12 43.3584 13.7908 45 16 45H20C22.2092 45 24 43.3584 24 41.3333V37.6667C24 35.6416 22.2092 34 20 34H16ZM16 37.6667V41.3333H20V37.6667H16Z" fill="white"/>
<path fill-rule="evenodd" clip-rule="evenodd" d="M28 37.6667C28 35.6416 29.6416 34 31.6667 34H35.3333C37.3584 34 39 35.6416 39 37.6667V41.3333C39 43.3584 37.3584 45 35.3333 45H31.6667C29.6416 45 28 43.3584 28 41.3333V37.6667ZM31.6667 37.6667H35.3333V41.3333H31.6667V37.6667Z" fill="white"/>
<path fill-rule="evenodd" clip-rule="evenodd" d="M47 34C44.7908 34 43 35.6416 43 37.6667V41.3333C43 43.3584 44.7908 45 47 45H51C53.2092 45 55 43.3584 55 41.3333V37.6667C55 35.6416 53.2092 34 51 34H47ZM47 37.6667V41.3333H51V37.6667H47Z" fill="white"/>
<path fill-rule="evenodd" clip-rule="evenodd" d="M12 53C12 50.7908 13.7908 49 16 49H20C22.2092 49 24 50.7908 24 53V57C24 59.2092 22.2092 61 20 61H16C13.7908 61 12 59.2092 12 57V53ZM16 57V53H20V57H16Z" fill="white"/>
<path fill-rule="evenodd" clip-rule="evenodd" d="M31.6667 49C29.6416 49 28 50.7908 28 53V57C28 59.2092 29.6416 61 31.6667 61H35.3333C37.3584 61 39 59.2092 39 57V53C39 50.7908 37.3584 49 35.3333 49H31.6667ZM35.3333 53H31.6667V57H35.3333V53Z" fill="white"/>
<path fill-rule="evenodd" clip-rule="evenodd" d="M43 53C43 50.7908 44.7908 49 47 49H51C53.2092 49 55 50.7908 55 53V57C55 59.2092 53.2092 61 51 61H47C44.7908 61 43 59.2092 43 57V53ZM47 57V53H51V57H47Z" fill="white"/>
<path fill-rule="evenodd" clip-rule="evenodd" d="M17.7353 0C16.6469 0 15.7647 0.883003 15.7647 1.97222V7.88889H7.88235C3.52905 7.88889 0 11.4209 0 15.7778V63.1111C0 67.4681 3.52905 71 7.88235 71H59.1176C63.4709 71 67 67.4681 67 63.1111V15.7778C67 11.4209 63.4709 7.88889 59.1176 7.88889H55.1765V13.8056C55.1765 14.8948 54.2942 15.7778 53.2059 15.7778C52.1175 15.7778 51.2353 14.8948 51.2353 13.8056V1.97222C51.2353 0.883003 50.3531 0 49.2647 0C48.1763 0 47.2941 0.883003 47.2941 1.97222V7.88889H23.6471V13.8056C23.6471 14.8948 22.7648 15.7778 21.6765 15.7778C20.5881 15.7778 19.7059 14.8948 19.7059 13.8056V1.97222C19.7059 0.883003 18.8236 0 17.7353 0ZM3.94118 63.1111V29.5833H63.0588V63.1111C63.0588 65.2896 61.2944 67.0556 59.1176 67.0556H7.88235C5.7057 67.0556 3.94118 65.2896 3.94118 63.1111Z" fill="white"/>
</svg>
