<svg width="84" height="84" viewBox="0 0 84 84" fill="none" xmlns="http://www.w3.org/2000/svg">
<path fill-rule="evenodd" clip-rule="evenodd" d="M15.8747 43.6256C9.04048 50.4597 9.04048 61.5402 15.8747 68.3743C22.7089 75.2086 33.7892 75.2086 40.6235 68.3743L53.2616 55.7362L28.5129 30.9873L15.8747 43.6256ZM30.9878 28.5125L55.7365 53.2613L67.847 41.1508C74.6811 34.3165 74.6811 23.2362 67.847 16.402C61.0129 9.56782 49.9324 9.56782 43.0983 16.402L30.9878 28.5125ZM52.6195 25.4059C53.1199 27.2729 55.0389 28.381 56.9062 27.8807C58.7732 27.3804 59.8813 25.4612 59.381 23.5941L62.7617 22.6883C63.7623 26.4224 61.5463 30.2609 57.812 31.2615C54.0776 32.262 50.2394 30.046 49.2387 26.3117C48.2382 22.5775 50.4543 18.7391 54.1886 17.7386L55.0944 21.1192C53.2273 21.6196 52.1192 23.5388 52.6195 25.4059ZM62.7835 32.7545C61.3407 34.89 58.2335 36.0679 54.8156 35.9123C51.391 35.7564 48.4248 34.2983 47.219 32.1196C46.7511 31.2738 45.6862 30.9677 44.8406 31.4357C43.995 31.9036 43.6888 32.9685 44.1567 33.8141C46.1776 37.466 50.5712 39.2228 54.6564 39.4087C58.748 39.5949 63.3005 38.2411 65.6836 34.7139C66.2247 33.9131 66.0142 32.8253 65.2134 32.2842C64.4124 31.7431 63.3246 31.9537 62.7835 32.7545ZM27.6215 63.9923C28.3787 63.9923 28.9926 63.3784 28.9926 62.6212C28.9926 61.864 28.3787 61.2501 27.6215 61.2501V57.7501C30.3118 57.7501 32.4926 59.9309 32.4926 62.6212C32.4926 65.3115 30.3118 67.4923 27.6215 67.4923C24.9312 67.4923 22.7504 65.3115 22.7504 62.6212H26.2504C26.2504 63.3784 26.8643 63.9923 27.6215 63.9923ZM24.5754 48.1184C26.6817 46.633 30.0045 46.633 33.1455 47.9901C36.2924 49.3497 38.5492 51.7647 38.9043 54.2292C39.0422 55.186 39.9294 55.8497 40.886 55.7118C41.8425 55.5739 42.5063 54.6869 42.3686 53.7301C41.7734 49.5991 38.2877 46.399 34.5336 44.7771C30.7736 43.1528 26.0369 42.8049 22.5582 45.2582C21.7684 45.8152 21.5798 46.9072 22.1368 47.697C22.6938 48.4868 23.7857 48.6754 24.5754 48.1184ZM29.9912 53.927C27.947 53.0732 25.9445 53.0966 24.8056 53.8278C23.9922 54.3498 22.9096 54.1136 22.3876 53.3003C21.8654 52.4869 22.1016 51.4044 22.915 50.8822C25.4228 49.2725 28.7679 49.6231 31.3402 50.6974C33.8952 51.7645 36.4889 53.8861 37.0011 56.7669C37.1704 57.7186 36.536 58.6272 35.5845 58.7962C34.6329 58.9654 33.7243 58.3312 33.5552 57.3796C33.3447 56.1962 32.0528 54.788 29.9912 53.927ZM18.3754 61.2501C19.8251 61.2501 21.0004 60.0748 21.0004 58.6251C21.0004 57.1752 19.8251 56.0001 18.3754 56.0001C16.9255 56.0001 15.7503 57.1752 15.7503 58.6251C15.7503 60.0748 16.9255 61.2501 18.3754 61.2501Z" fill="white"/>
</svg>
