<svg width="95" height="95" viewBox="0 0 95 95" fill="none" xmlns="http://www.w3.org/2000/svg">
<path d="M57.8584 12.8224C59.1983 12.9524 60.401 11.9825 60.5353 10.654C60.5996 10.0169 60.411 9.39272 60.0039 8.89563C59.5911 8.38996 59.0026 8.07714 58.3484 8.01286C58.267 8.00429 58.1855 8 58.1055 8C56.8657 8 55.7986 8.93276 55.6715 10.1798C55.6072 10.8169 55.7958 11.4425 56.2029 11.9396C56.6157 12.4453 57.2028 12.7581 57.857 12.8224H57.8584Z" fill="white"/>
<path d="M79.4444 14.9437C80.7871 15.0737 81.987 14.1024 82.1213 12.7754C82.1855 12.1383 81.997 11.5126 81.5899 11.0155C81.1771 10.5099 80.5885 10.197 79.9343 10.1328C78.5916 10.0028 77.3917 10.9741 77.2574 12.3011C77.1932 12.9382 77.3817 13.5624 77.7888 14.0595C78.2016 14.5652 78.7902 14.878 79.4444 14.9423V14.9437Z" fill="white"/>
<path d="M53.7301 43.9695C53.8472 44.658 54.5086 45.1222 55.2056 45.0051C55.5456 44.948 55.8427 44.7623 56.0427 44.4837C56.2369 44.2095 56.3141 43.8781 56.2584 43.5481L51.5331 15.6295C51.3774 14.7067 51.6103 13.7896 52.1888 13.0497C52.7302 12.3569 53.5744 11.897 54.5028 11.7856L54.6057 11.7727C54.3928 11.2313 54.3071 10.6428 54.3686 10.0486C54.3971 9.76575 54.4586 9.49292 54.5457 9.23438L54.12 9.2858C52.503 9.47864 51.0746 10.2957 50.099 11.5884C49.1248 12.8797 48.7363 14.4639 49.0048 16.0523L53.7301 43.9709V43.9695Z" fill="white"/>
<path d="M62.912 57.8654L61.7193 69.6443C60.8037 78.6891 53.0787 85.4641 44.0982 85.4656C43.5168 85.4656 42.9297 85.437 42.3398 85.3784C37.6145 84.9142 33.3621 82.6401 30.3624 78.9776C27.3984 75.3566 26.0243 70.8099 26.4928 66.1775L27.8498 52.7788L25.2215 53.2959L23.9416 65.9318C23.4059 71.2284 24.9772 76.4265 28.3669 80.5675C31.7994 84.7614 36.6689 87.3625 42.0784 87.8953C53.1973 88.9881 63.152 80.9117 64.2676 69.8914L65.4604 58.1169L62.9706 57.8726L62.9106 57.8669L62.912 57.8654Z" fill="white"/>
<path d="M28.6794 41.3809C28.6451 41.2095 28.6808 41.0324 28.7779 40.8881C28.8751 40.7438 29.0251 40.6439 29.1965 40.6096L38.8141 38.7183L37.1214 30.2106L27.5009 32.1018C27.1452 32.1704 26.8024 31.9419 26.731 31.5862L24.8355 22.0571L16.2392 23.747L18.1347 33.2732C18.169 33.4446 18.1333 33.6217 18.0362 33.766C17.939 33.9102 17.789 34.0102 17.6176 34.0445L8 35.9372L9.69269 44.4449L19.3132 42.5537C19.356 42.5451 19.3989 42.5408 19.4403 42.5408C19.746 42.5408 20.0202 42.7565 20.0831 43.0693L21.9786 52.5984L30.5749 50.9086L28.6808 41.3824L28.6794 41.3809Z" fill="white"/>
<path d="M87.304 15.2424C86.607 13.7868 85.3728 12.7083 83.8272 12.2041L83.4144 12.0698C83.4487 12.3455 83.4558 12.6255 83.4273 12.9083C83.3658 13.514 83.1602 14.0711 82.8502 14.5496L82.9445 14.5796C83.8344 14.8695 84.5686 15.4866 84.9614 16.2723C85.3814 17.1122 85.4256 18.0549 85.0871 18.9306L74.8567 45.3794C74.7353 45.6922 74.7438 46.0336 74.881 46.3393C75.0195 46.6493 75.2724 46.8864 75.5923 47.0078C76.2537 47.2578 76.9979 46.9307 77.2507 46.2764L87.4812 19.8276C88.0625 18.3235 87.9997 16.6951 87.304 15.2409V15.2424Z" fill="white"/>
<path d="M75.1261 48.236C74.4762 47.9904 73.9634 47.5061 73.682 46.8747C73.6049 46.7033 73.5506 46.5262 73.5134 46.3462C72.0222 47.1504 69.5953 48.1218 66.5756 48.1218C66.1285 48.1218 65.6671 48.1003 65.1957 48.0532C61.5332 47.6932 58.8749 45.9963 57.3822 44.7578C57.3093 44.9264 57.2208 45.0906 57.1122 45.2435C56.7094 45.8077 56.1109 46.182 55.4238 46.2977C55.2781 46.3219 55.1338 46.3334 54.991 46.3334C54.7639 46.3334 54.5425 46.3034 54.3311 46.2462C54.6982 47.1519 55.2738 48.156 56.1723 49.0931C57.4836 50.4601 58.972 51.1386 59.9876 51.4657C60.9004 51.7585 61.4918 52.667 61.3946 53.6241L61.1918 55.6253C61.1718 55.821 61.2304 56.0138 61.3561 56.1681C61.4846 56.3252 61.6675 56.4224 61.8717 56.4424L62.3888 56.4938L66.2427 56.8723L66.7613 56.9237C67.1798 56.9652 67.5526 56.6638 67.5955 56.2524L67.7983 54.2512C67.8954 53.2955 68.6554 52.5228 69.6067 52.4113C70.6694 52.2885 72.2636 51.9128 73.8248 50.8272C74.8947 50.083 75.6589 49.2131 76.2017 48.396C76.1503 48.3989 76.0975 48.4017 76.046 48.4017C75.7404 48.4017 75.429 48.3475 75.1261 48.2332V48.236Z" fill="white"/>
</svg>
