<svg width="64" height="84" viewBox="0 0 64 84" fill="none" xmlns="http://www.w3.org/2000/svg">
<path d="M63.4793 3.05058C64.1736 2.35627 64.1736 1.21868 63.4793 0.520733C62.7825 -0.173577 61.6437 -0.173577 60.9494 0.520733L54.8527 6.6222C54.7586 6.7079 54.7125 6.8331 54.6418 6.9295L51.2846 3.57291C50.5867 2.875 49.449 2.875 48.7554 3.57291L18.2579 34.0642C17.56 34.7585 17.56 35.8961 18.2579 36.594L27.4046 45.7448C27.7406 46.0803 28.1953 46.263 28.6716 46.263C29.1436 46.263 29.6019 46.0731 29.9386 45.7448L51.5948 24.0841C51.6624 24.1877 51.7086 24.3093 51.8014 24.3992C56.0811 28.6753 58.4397 34.3652 58.4397 40.4239C58.4397 46.4751 56.0817 52.1655 51.805 56.4486C47.5253 60.7176 41.8353 63.0833 35.7818 63.0833C30.8497 63.0833 26.1728 61.4916 22.2901 58.5957H33.9953C34.9831 58.5957 35.7847 57.7965 35.7847 56.8062C35.7847 55.822 34.9831 55.0168 33.9953 55.0168H1.7894C0.8016 55.0168 0 55.822 0 56.8062C0 57.7965 0.8016 58.5957 1.7894 58.5957H16.9835C17.0584 58.7281 17.1231 58.8604 17.2339 58.9713C20.4222 62.1595 24.2904 64.4138 28.5095 65.6233L21.4854 81.1097C21.235 81.6609 21.2817 82.3049 21.6106 82.8237C21.9401 83.3353 22.505 83.6432 23.1137 83.6432H55.4698C56.1318 83.6432 56.7369 83.2784 57.0442 82.6979C57.3594 82.112 57.324 81.4069 56.9586 80.8594L46.2233 64.7565C46.1724 64.6816 46.0969 64.6373 46.0364 64.566C49.0923 63.275 51.9156 61.3849 54.3383 58.9695C59.2943 54.0135 62.0177 47.4147 62.0177 40.4159C62.0177 33.4056 59.2871 26.8176 54.3311 21.8622C54.2442 21.773 54.1244 21.7226 54.0232 21.6514L60.4314 15.239C60.7722 14.9029 60.9537 14.4482 60.9537 13.972C60.9537 13.4927 60.765 13.038 60.4314 12.705L57.0747 9.3483C57.1832 9.2735 57.2964 9.2303 57.3869 9.1339L63.4793 3.05058Z" fill="white"/>
</svg>
