<svg width="213" height="219" viewBox="0 0 213 219" fill="none" xmlns="http://www.w3.org/2000/svg">
<path d="M149 40C149 62.0914 130.196 80 107 80C83.804 80 65 62.0914 65 40C65 17.9086 83.804 0 107 0C130.196 0 149 17.9086 149 40Z" fill="#F9FA61"/>
<ellipse cx="107" cy="40.5" rx="24" ry="23.5" fill="#F1A12E"/>
<path d="M106.5 40L181.411 151H31.5888L106.5 40Z" fill="#AFAAB1"/>
<path d="M212.5 156L183.5 155L176 153.5L168.5 152L153 148L145 144.5L137.5 140.5L130.5 137L124 132.5L117.5 127L112 121.5L106.5 116L101.5 110.5L81.5 83.5L75.5 74L68.5 66L59.5 59L50 54L40 50.5L34 49.5L28 49H21H14L24 55L33 61.5L41.5 68L50 75L58 86.5L64 100L71 115L74.5 122L79.5 129.5L94.5 143L103 148L112.5 153L120 156.5L128.5 159L137 161L146 162.5H182L198 161L212.5 156Z" fill="#6B68C2" stroke="#716EC7"/>
<path d="M37.4667 121.867C31.5757 121.867 26.8 117.091 26.8 111.2V102.667C26.8 101.489 27.7553 100.533 28.9333 100.533H31.0667C32.2447 100.533 33.2 99.578 33.2 98.4C33.2 97.222 32.2447 96.2667 31.0667 96.2667H28.9333C25.3988 96.2667 22.5333 99.1322 22.5333 102.667V111.2C22.5389 116.092 24.9474 120.67 28.976 123.445C32.8292 126.842 35.126 131.667 35.3333 136.8C35.3333 145.047 42.0192 151.733 50.2667 151.733C58.5141 151.733 65.2 145.047 65.2 136.8V134.368C69.7632 133.19 72.5071 128.535 71.3291 123.972C70.1506 119.409 65.4965 116.665 60.9333 117.843C56.3701 119.022 53.6262 123.676 54.8043 128.239C55.5804 131.245 57.9275 133.592 60.9333 134.368V136.8C60.9333 142.691 56.1577 147.467 50.2667 147.467C44.3757 147.467 39.6 142.691 39.6 136.8C39.818 131.661 42.131 126.835 46 123.445C50.0124 120.66 52.4043 116.084 52.4 111.2V102.667C52.4 99.1322 49.5345 96.2667 46 96.2667H43.8667C42.6886 96.2667 41.7333 97.222 41.7333 98.4C41.7333 99.578 42.6886 100.533 43.8667 100.533H46C47.178 100.533 48.1333 101.489 48.1333 102.667V111.2C48.1333 117.091 43.3577 121.867 37.4667 121.867ZM63.0667 130.4C60.7102 130.4 58.8 128.49 58.8 126.133C58.8 123.777 60.7102 121.867 63.0667 121.867C65.4231 121.867 67.3333 123.777 67.3333 126.133C67.3333 128.49 65.4231 130.4 63.0667 130.4Z" fill="#1DA51C" stroke="#1DA51C" stroke-width="4.26667"/>
<path d="M56.2784 183.727H61.892V198.739C61.892 200.473 61.4792 201.985 60.6534 203.273C59.8277 204.553 58.6761 205.545 57.1989 206.25C55.7216 206.947 54.0057 207.295 52.0511 207.295C50.0739 207.295 48.3466 206.947 46.8693 206.25C45.392 205.545 44.2443 204.553 43.4261 203.273C42.608 201.985 42.1989 200.473 42.1989 198.739V183.727H47.8239V198.25C47.8239 199.053 47.9981 199.769 48.3466 200.398C48.7027 201.027 49.1989 201.519 49.8352 201.875C50.4716 202.231 51.2102 202.409 52.0511 202.409C52.892 202.409 53.6269 202.231 54.2557 201.875C54.892 201.519 55.3883 201.027 55.7443 200.398C56.1004 199.769 56.2784 199.053 56.2784 198.25V183.727ZM70.9744 197.045V207H65.4176V189.545H70.7017V192.75H70.8949C71.2813 191.682 71.9403 190.845 72.8722 190.239C73.804 189.625 74.9138 189.318 76.2017 189.318C77.429 189.318 78.4934 189.595 79.3949 190.148C80.304 190.693 81.0085 191.458 81.5085 192.443C82.0161 193.42 82.2661 194.564 82.2585 195.875V207H76.7017V196.966C76.7093 195.996 76.4631 195.239 75.9631 194.693C75.4706 194.148 74.785 193.875 73.9062 193.875C73.3229 193.875 72.8078 194.004 72.3608 194.261C71.9214 194.511 71.5805 194.871 71.3381 195.341C71.1032 195.811 70.982 196.379 70.9744 197.045ZM85.6989 207V189.545H91.2557V207H85.6989ZM88.483 187.511C87.7027 187.511 87.0322 187.254 86.4716 186.739C85.911 186.216 85.6307 185.587 85.6307 184.852C85.6307 184.125 85.911 183.504 86.4716 182.989C87.0322 182.466 87.7027 182.205 88.483 182.205C89.2708 182.205 89.9413 182.466 90.4943 182.989C91.0549 183.504 91.3352 184.125 91.3352 184.852C91.3352 185.587 91.0549 186.216 90.4943 186.739C89.9413 187.254 89.2708 187.511 88.483 187.511ZM101.668 183.727H108.634L114.543 198.136H114.815L120.724 183.727H127.69V207H122.213V192.705H122.02L116.429 206.852H112.929L107.338 192.625H107.145V207H101.668V183.727ZM131.199 207V183.727H147.426V188.295H136.824V193.068H146.597V197.648H136.824V202.432H147.426V207H131.199ZM159.551 207H150.949V183.727H159.54C161.911 183.727 163.953 184.193 165.665 185.125C167.384 186.049 168.71 187.383 169.642 189.125C170.574 190.86 171.04 192.936 171.04 195.352C171.04 197.777 170.574 199.86 169.642 201.602C168.718 203.345 167.396 204.682 165.676 205.614C163.956 206.538 161.915 207 159.551 207ZM156.574 202.205H159.335C160.638 202.205 161.741 201.985 162.642 201.545C163.551 201.098 164.237 200.375 164.699 199.375C165.169 198.367 165.403 197.027 165.403 195.352C165.403 193.678 165.169 192.345 164.699 191.352C164.229 190.352 163.536 189.633 162.619 189.193C161.71 188.746 160.589 188.523 159.256 188.523H156.574V202.205Z" fill="black"/>
<line x1="32.0067" y1="175" x2="182.007" y2="176" stroke="black" stroke-width="2"/>
<line x1="32.0067" y1="217" x2="182.007" y2="218" stroke="black" stroke-width="2"/>
</svg>
