<svg width="1240" height="1061" viewBox="0 0 1240 1061" fill="none" xmlns="http://www.w3.org/2000/svg">
<path d="M874.064 714.805L617.135 970.715L671.292 1032.36L994.973 714.805H874.064Z" fill="black"/>
<path d="M714.743 234.117L656.178 293.269L714.743 351.176H836.91L714.743 234.117Z" fill="black"/>
<path d="M86.2725 579.067L30.2266 638.842L472.927 1061L837.54 719.786H721.04L472.927 954.526L86.2725 579.067Z" fill="black"/>
<path d="M444.589 0L0 444.574L444.589 873.582L507.562 816.298L124.686 444.574L507.562 61.6426L444.589 0Z" fill="black"/>
<path d="M276.452 502.481L219.146 440.215L658.068 0L1014.5 353.667H899.255L658.068 120.795L276.452 502.481Z" fill="black"/>
<path d="M397.107 656V401.455H492.561C512.116 401.455 528.522 405.1 541.78 412.392C555.12 419.684 565.188 429.71 571.982 442.47C578.86 455.148 582.298 469.565 582.298 485.723C582.298 502.046 578.86 516.547 571.982 529.224C565.105 541.902 554.955 551.887 541.531 559.178C528.108 566.387 511.577 569.991 491.94 569.991H428.676V532.083H485.725C497.16 532.083 506.523 530.094 513.815 526.117C521.106 522.14 526.492 516.671 529.972 509.711C533.535 502.751 535.317 494.755 535.317 485.723C535.317 476.691 533.535 468.737 529.972 461.859C526.492 454.982 521.065 449.638 513.69 445.826C506.399 441.932 496.994 439.984 485.477 439.984H443.218V656H397.107ZM622.351 401.455H678.778L754.346 585.901H757.329L832.898 401.455H889.325V656H845.078V481.124H842.716L772.368 655.254H739.307L668.959 480.751H666.598V656H622.351V401.455ZM928.352 440.109V401.455H1131.44V440.109H1052.77V656H1007.03V440.109H928.352Z" fill="black"/>
</svg>
