<svg width="160" height="156" viewBox="0 0 160 156" fill="none" xmlns="http://www.w3.org/2000/svg">
<path d="M5.51724 0H0V5.37931H5.51724V0Z" fill="black"/>
<path d="M11.0345 0H5.51724V5.37931H11.0345V0Z" fill="black"/>
<path d="M16.5517 0H11.0345V5.37931H16.5517V0Z" fill="black"/>
<path d="M22.069 0H16.5517V5.37931H22.069V0Z" fill="black"/>
<path d="M27.5862 0H22.069V5.37931H27.5862V0Z" fill="black"/>
<path d="M33.1035 0H27.5862V5.37931H33.1035V0Z" fill="black"/>
<path d="M38.6207 0H33.1035V5.37931H38.6207V0Z" fill="black"/>
<path d="M49.6552 0H44.1379V5.37931H49.6552V0Z" fill="black"/>
<path d="M60.6897 0H55.1724V5.37931H60.6897V0Z" fill="black"/>
<path d="M88.2759 0H82.7586V5.37931H88.2759V0Z" fill="black"/>
<path d="M93.7931 0H88.2759V5.37931H93.7931V0Z" fill="black"/>
<path d="M104.828 0H99.3103V5.37931H104.828V0Z" fill="black"/>
<path d="M115.862 0H110.345V5.37931H115.862V0Z" fill="black"/>
<path d="M126.897 0H121.379V5.37931H126.897V0Z" fill="black"/>
<path d="M132.414 0H126.897V5.37931H132.414V0Z" fill="black"/>
<path d="M137.931 0H132.414V5.37931H137.931V0Z" fill="black"/>
<path d="M143.448 0H137.931V5.37931H143.448V0Z" fill="black"/>
<path d="M148.966 0H143.448V5.37931H148.966V0Z" fill="black"/>
<path d="M154.483 0H148.966V5.37931H154.483V0Z" fill="black"/>
<path d="M160 0H154.483V5.37931H160V0Z" fill="black"/>
<path d="M5.51724 5.37931H0V10.7586H5.51724V5.37931Z" fill="black"/>
<path d="M38.6207 5.37931H33.1035V10.7586H38.6207V5.37931Z" fill="black"/>
<path d="M55.1724 5.37931H49.6552V10.7586H55.1724V5.37931Z" fill="black"/>
<path d="M60.6897 5.37931H55.1724V10.7586H60.6897V5.37931Z" fill="black"/>
<path d="M66.2069 5.37931H60.6897V10.7586H66.2069V5.37931Z" fill="black"/>
<path d="M71.7241 5.37931H66.2069V10.7586H71.7241V5.37931Z" fill="black"/>
<path d="M82.7586 5.37931H77.2414V10.7586H82.7586V5.37931Z" fill="black"/>
<path d="M88.2759 5.37931H82.7586V10.7586H88.2759V5.37931Z" fill="black"/>
<path d="M126.897 5.37931H121.379V10.7586H126.897V5.37931Z" fill="black"/>
<path d="M160 5.37931H154.483V10.7586H160V5.37931Z" fill="black"/>
<path d="M5.51724 10.7586H0V16.1379H5.51724V10.7586Z" fill="black"/>
<path d="M16.5517 10.7586H11.0345V16.1379H16.5517V10.7586Z" fill="black"/>
<path d="M22.069 10.7586H16.5517V16.1379H22.069V10.7586Z" fill="black"/>
<path d="M27.5862 10.7586H22.069V16.1379H27.5862V10.7586Z" fill="black"/>
<path d="M38.6207 10.7586H33.1035V16.1379H38.6207V10.7586Z" fill="black"/>
<path d="M60.6897 10.7586H55.1724V16.1379H60.6897V10.7586Z" fill="black"/>
<path d="M66.2069 10.7586H60.6897V16.1379H66.2069V10.7586Z" fill="black"/>
<path d="M71.7241 10.7586H66.2069V16.1379H71.7241V10.7586Z" fill="black"/>
<path d="M77.2414 10.7586H71.7241V16.1379H77.2414V10.7586Z" fill="black"/>
<path d="M88.2759 10.7586H82.7586V16.1379H88.2759V10.7586Z" fill="black"/>
<path d="M93.7931 10.7586H88.2759V16.1379H93.7931V10.7586Z" fill="black"/>
<path d="M110.345 10.7586H104.828V16.1379H110.345V10.7586Z" fill="black"/>
<path d="M115.862 10.7586H110.345V16.1379H115.862V10.7586Z" fill="black"/>
<path d="M126.897 10.7586H121.379V16.1379H126.897V10.7586Z" fill="black"/>
<path d="M137.931 10.7586H132.414V16.1379H137.931V10.7586Z" fill="black"/>
<path d="M143.448 10.7586H137.931V16.1379H143.448V10.7586Z" fill="black"/>
<path d="M148.966 10.7586H143.448V16.1379H148.966V10.7586Z" fill="black"/>
<path d="M160 10.7586H154.483V16.1379H160V10.7586Z" fill="black"/>
<path d="M5.51724 16.1379H0V21.5172H5.51724V16.1379Z" fill="black"/>
<path d="M16.5517 16.1379H11.0345V21.5172H16.5517V16.1379Z" fill="black"/>
<path d="M22.069 16.1379H16.5517V21.5172H22.069V16.1379Z" fill="black"/>
<path d="M27.5862 16.1379H22.069V21.5172H27.5862V16.1379Z" fill="black"/>
<path d="M38.6207 16.1379H33.1035V21.5172H38.6207V16.1379Z" fill="black"/>
<path d="M49.6552 16.1379H44.1379V21.5172H49.6552V16.1379Z" fill="black"/>
<path d="M55.1724 16.1379H49.6552V21.5172H55.1724V16.1379Z" fill="black"/>
<path d="M60.6897 16.1379H55.1724V21.5172H60.6897V16.1379Z" fill="black"/>
<path d="M66.2069 16.1379H60.6897V21.5172H66.2069V16.1379Z" fill="black"/>
<path d="M77.2414 16.1379H71.7241V21.5172H77.2414V16.1379Z" fill="black"/>
<path d="M93.7931 16.1379H88.2759V21.5172H93.7931V16.1379Z" fill="black"/>
<path d="M110.345 16.1379H104.828V21.5172H110.345V16.1379Z" fill="black"/>
<path d="M126.897 16.1379H121.379V21.5172H126.897V16.1379Z" fill="black"/>
<path d="M137.931 16.1379H132.414V21.5172H137.931V16.1379Z" fill="black"/>
<path d="M143.448 16.1379H137.931V21.5172H143.448V16.1379Z" fill="black"/>
<path d="M148.966 16.1379H143.448V21.5172H148.966V16.1379Z" fill="black"/>
<path d="M160 16.1379H154.483V21.5172H160V16.1379Z" fill="black"/>
<path d="M5.51724 21.5172H0V26.8966H5.51724V21.5172Z" fill="black"/>
<path d="M16.5517 21.5172H11.0345V26.8966H16.5517V21.5172Z" fill="black"/>
<path d="M22.069 21.5172H16.5517V26.8966H22.069V21.5172Z" fill="black"/>
<path d="M27.5862 21.5172H22.069V26.8966H27.5862V21.5172Z" fill="black"/>
<path d="M38.6207 21.5172H33.1035V26.8966H38.6207V21.5172Z" fill="black"/>
<path d="M77.2414 21.5172H71.7241V26.8966H77.2414V21.5172Z" fill="black"/>
<path d="M82.7586 21.5172H77.2414V26.8966H82.7586V21.5172Z" fill="black"/>
<path d="M88.2759 21.5172H82.7586V26.8966H88.2759V21.5172Z" fill="black"/>
<path d="M99.3103 21.5172H93.7931V26.8966H99.3103V21.5172Z" fill="black"/>
<path d="M126.897 21.5172H121.379V26.8966H126.897V21.5172Z" fill="black"/>
<path d="M137.931 21.5172H132.414V26.8966H137.931V21.5172Z" fill="black"/>
<path d="M143.448 21.5172H137.931V26.8966H143.448V21.5172Z" fill="black"/>
<path d="M148.966 21.5172H143.448V26.8966H148.966V21.5172Z" fill="black"/>
<path d="M160 21.5172H154.483V26.8966H160V21.5172Z" fill="black"/>
<path d="M5.51724 26.8966H0V32.2759H5.51724V26.8966Z" fill="black"/>
<path d="M38.6207 26.8966H33.1035V32.2759H38.6207V26.8966Z" fill="black"/>
<path d="M49.6552 26.8966H44.1379V32.2759H49.6552V26.8966Z" fill="black"/>
<path d="M55.1724 26.8966H49.6552V32.2759H55.1724V26.8966Z" fill="black"/>
<path d="M60.6897 26.8966H55.1724V32.2759H60.6897V26.8966Z" fill="black"/>
<path d="M66.2069 26.8966H60.6897V32.2759H66.2069V26.8966Z" fill="black"/>
<path d="M71.7241 26.8966H66.2069V32.2759H71.7241V26.8966Z" fill="black"/>
<path d="M77.2414 26.8966H71.7241V32.2759H77.2414V26.8966Z" fill="black"/>
<path d="M88.2759 26.8966H82.7586V32.2759H88.2759V26.8966Z" fill="black"/>
<path d="M93.7931 26.8966H88.2759V32.2759H93.7931V26.8966Z" fill="black"/>
<path d="M126.897 26.8966H121.379V32.2759H126.897V26.8966Z" fill="black"/>
<path d="M160 26.8966H154.483V32.2759H160V26.8966Z" fill="black"/>
<path d="M5.51724 32.2759H0V37.6552H5.51724V32.2759Z" fill="black"/>
<path d="M11.0345 32.2759H5.51724V37.6552H11.0345V32.2759Z" fill="black"/>
<path d="M16.5517 32.2759H11.0345V37.6552H16.5517V32.2759Z" fill="black"/>
<path d="M22.069 32.2759H16.5517V37.6552H22.069V32.2759Z" fill="black"/>
<path d="M27.5862 32.2759H22.069V37.6552H27.5862V32.2759Z" fill="black"/>
<path d="M33.1035 32.2759H27.5862V37.6552H33.1035V32.2759Z" fill="black"/>
<path d="M38.6207 32.2759H33.1035V37.6552H38.6207V32.2759Z" fill="black"/>
<path d="M49.6552 32.2759H44.1379V37.6552H49.6552V32.2759Z" fill="black"/>
<path d="M60.6897 32.2759H55.1724V37.6552H60.6897V32.2759Z" fill="black"/>
<path d="M71.7241 32.2759H66.2069V37.6552H71.7241V32.2759Z" fill="black"/>
<path d="M82.7586 32.2759H77.2414V37.6552H82.7586V32.2759Z" fill="black"/>
<path d="M93.7931 32.2759H88.2759V37.6552H93.7931V32.2759Z" fill="black"/>
<path d="M104.828 32.2759H99.3103V37.6552H104.828V32.2759Z" fill="black"/>
<path d="M115.862 32.2759H110.345V37.6552H115.862V32.2759Z" fill="black"/>
<path d="M126.897 32.2759H121.379V37.6552H126.897V32.2759Z" fill="black"/>
<path d="M132.414 32.2759H126.897V37.6552H132.414V32.2759Z" fill="black"/>
<path d="M137.931 32.2759H132.414V37.6552H137.931V32.2759Z" fill="black"/>
<path d="M143.448 32.2759H137.931V37.6552H143.448V32.2759Z" fill="black"/>
<path d="M148.966 32.2759H143.448V37.6552H148.966V32.2759Z" fill="black"/>
<path d="M154.483 32.2759H148.966V37.6552H154.483V32.2759Z" fill="black"/>
<path d="M160 32.2759H154.483V37.6552H160V32.2759Z" fill="black"/>
<path d="M55.1724 37.6552H49.6552V43.0345H55.1724V37.6552Z" fill="black"/>
<path d="M82.7586 37.6552H77.2414V43.0345H82.7586V37.6552Z" fill="black"/>
<path d="M99.3103 37.6552H93.7931V43.0345H99.3103V37.6552Z" fill="black"/>
<path d="M104.828 37.6552H99.3103V43.0345H104.828V37.6552Z" fill="black"/>
<path d="M110.345 37.6552H104.828V43.0345H110.345V37.6552Z" fill="black"/>
<path d="M115.862 37.6552H110.345V43.0345H115.862V37.6552Z" fill="black"/>
<path d="M33.1035 43.0345H27.5862V48.4138H33.1035V43.0345Z" fill="black"/>
<path d="M38.6207 43.0345H33.1035V48.4138H38.6207V43.0345Z" fill="black"/>
<path d="M49.6552 43.0345H44.1379V48.4138H49.6552V43.0345Z" fill="black"/>
<path d="M55.1724 43.0345H49.6552V48.4138H55.1724V43.0345Z" fill="black"/>
<path d="M66.2069 43.0345H60.6897V48.4138H66.2069V43.0345Z" fill="black"/>
<path d="M71.7241 43.0345H66.2069V48.4138H71.7241V43.0345Z" fill="black"/>
<path d="M82.7586 43.0345H77.2414V48.4138H82.7586V43.0345Z" fill="black"/>
<path d="M88.2759 43.0345H82.7586V48.4138H88.2759V43.0345Z" fill="black"/>
<path d="M93.7931 43.0345H88.2759V48.4138H93.7931V43.0345Z" fill="black"/>
<path d="M99.3103 43.0345H93.7931V48.4138H99.3103V43.0345Z" fill="black"/>
<path d="M121.379 43.0345H115.862V48.4138H121.379V43.0345Z" fill="black"/>
<path d="M132.414 43.0345H126.897V48.4138H132.414V43.0345Z" fill="black"/>
<path d="M143.448 43.0345H137.931V48.4138H143.448V43.0345Z" fill="black"/>
<path d="M160 43.0345H154.483V48.4138H160V43.0345Z" fill="black"/>
<path d="M5.51724 48.4138H0V53.7931H5.51724V48.4138Z" fill="black"/>
<path d="M22.069 48.4138H16.5517V53.7931H22.069V48.4138Z" fill="black"/>
<path d="M44.1379 48.4138H38.6207V53.7931H44.1379V48.4138Z" fill="black"/>
<path d="M49.6552 48.4138H44.1379V53.7931H49.6552V48.4138Z" fill="black"/>
<path d="M55.1724 48.4138H49.6552V53.7931H55.1724V48.4138Z" fill="black"/>
<path d="M88.2759 48.4138H82.7586V53.7931H88.2759V48.4138Z" fill="black"/>
<path d="M99.3103 48.4138H93.7931V53.7931H99.3103V48.4138Z" fill="black"/>
<path d="M110.345 48.4138H104.828V53.7931H110.345V48.4138Z" fill="black"/>
<path d="M121.379 48.4138H115.862V53.7931H121.379V48.4138Z" fill="black"/>
<path d="M5.51724 53.7931H0V59.1724H5.51724V53.7931Z" fill="black"/>
<path d="M22.069 53.7931H16.5517V59.1724H22.069V53.7931Z" fill="black"/>
<path d="M27.5862 53.7931H22.069V59.1724H27.5862V53.7931Z" fill="black"/>
<path d="M38.6207 53.7931H33.1035V59.1724H38.6207V53.7931Z" fill="black"/>
<path d="M44.1379 53.7931H38.6207V59.1724H44.1379V53.7931Z" fill="black"/>
<path d="M49.6552 53.7931H44.1379V59.1724H49.6552V53.7931Z" fill="black"/>
<path d="M60.6897 53.7931H55.1724V59.1724H60.6897V53.7931Z" fill="black"/>
<path d="M71.7241 53.7931H66.2069V59.1724H71.7241V53.7931Z" fill="black"/>
<path d="M88.2759 53.7931H82.7586V59.1724H88.2759V53.7931Z" fill="black"/>
<path d="M104.828 53.7931H99.3103V59.1724H104.828V53.7931Z" fill="black"/>
<path d="M115.862 53.7931H110.345V59.1724H115.862V53.7931Z" fill="black"/>
<path d="M126.897 53.7931H121.379V59.1724H126.897V53.7931Z" fill="black"/>
<path d="M137.931 53.7931H132.414V59.1724H137.931V53.7931Z" fill="black"/>
<path d="M148.966 53.7931H143.448V59.1724H148.966V53.7931Z" fill="black"/>
<path d="M160 53.7931H154.483V59.1724H160V53.7931Z" fill="black"/>
<path d="M33.1035 59.1724H27.5862V64.5517H33.1035V59.1724Z" fill="black"/>
<path d="M60.6897 59.1724H55.1724V64.5517H60.6897V59.1724Z" fill="black"/>
<path d="M77.2414 59.1724H71.7241V64.5517H77.2414V59.1724Z" fill="black"/>
<path d="M82.7586 59.1724H77.2414V64.5517H82.7586V59.1724Z" fill="black"/>
<path d="M93.7931 59.1724H88.2759V64.5517H93.7931V59.1724Z" fill="black"/>
<path d="M104.828 59.1724H99.3103V64.5517H104.828V59.1724Z" fill="black"/>
<path d="M110.345 59.1724H104.828V64.5517H110.345V59.1724Z" fill="black"/>
<path d="M115.862 59.1724H110.345V64.5517H115.862V59.1724Z" fill="black"/>
<path d="M121.379 59.1724H115.862V64.5517H121.379V59.1724Z" fill="black"/>
<path d="M132.414 59.1724H126.897V64.5517H132.414V59.1724Z" fill="black"/>
<path d="M137.931 59.1724H132.414V64.5517H137.931V59.1724Z" fill="black"/>
<path d="M16.5517 64.5517H11.0345V69.931H16.5517V64.5517Z" fill="black"/>
<path d="M38.6207 64.5517H33.1035V69.931H38.6207V64.5517Z" fill="black"/>
<path d="M49.6552 64.5517H44.1379V69.931H49.6552V64.5517Z" fill="black"/>
<path d="M55.1724 64.5517H49.6552V69.931H55.1724V64.5517Z" fill="black"/>
<path d="M60.6897 64.5517H55.1724V69.931H60.6897V64.5517Z" fill="black"/>
<path d="M66.2069 64.5517H60.6897V69.931H66.2069V64.5517Z" fill="black"/>
<path d="M71.7241 64.5517H66.2069V69.931H71.7241V64.5517Z" fill="black"/>
<path d="M82.7586 64.5517H77.2414V69.931H82.7586V64.5517Z" fill="black"/>
<path d="M88.2759 64.5517H82.7586V69.931H88.2759V64.5517Z" fill="black"/>
<path d="M104.828 64.5517H99.3103V69.931H104.828V64.5517Z" fill="black"/>
<path d="M110.345 64.5517H104.828V69.931H110.345V64.5517Z" fill="black"/>
<path d="M126.897 64.5517H121.379V69.931H126.897V64.5517Z" fill="black"/>
<path d="M137.931 64.5517H132.414V69.931H137.931V64.5517Z" fill="black"/>
<path d="M148.966 64.5517H143.448V69.931H148.966V64.5517Z" fill="black"/>
<path d="M160 64.5517H154.483V69.931H160V64.5517Z" fill="black"/>
<path d="M5.51724 69.931H0V75.3103H5.51724V69.931Z" fill="black"/>
<path d="M11.0345 69.931H5.51724V75.3103H11.0345V69.931Z" fill="black"/>
<path d="M16.5517 69.931H11.0345V75.3103H16.5517V69.931Z" fill="black"/>
<path d="M22.069 69.931H16.5517V75.3103H22.069V69.931Z" fill="black"/>
<path d="M27.5862 69.931H22.069V75.3103H27.5862V69.931Z" fill="black"/>
<path d="M33.1035 69.931H27.5862V75.3103H33.1035V69.931Z" fill="black"/>
<path d="M88.2759 69.931H82.7586V75.3103H88.2759V69.931Z" fill="black"/>
<path d="M93.7931 69.931H88.2759V75.3103H93.7931V69.931Z" fill="black"/>
<path d="M104.828 69.931H99.3103V75.3103H104.828V69.931Z" fill="black"/>
<path d="M110.345 69.931H104.828V75.3103H110.345V69.931Z" fill="black"/>
<path d="M121.379 69.931H115.862V75.3103H121.379V69.931Z" fill="black"/>
<path d="M126.897 69.931H121.379V75.3103H126.897V69.931Z" fill="black"/>
<path d="M132.414 69.931H126.897V75.3103H132.414V69.931Z" fill="black"/>
<path d="M154.483 69.931H148.966V75.3103H154.483V69.931Z" fill="black"/>
<path d="M160 69.931H154.483V75.3103H160V69.931Z" fill="black"/>
<path d="M11.0345 75.3103H5.51724V80.6897H11.0345V75.3103Z" fill="black"/>
<path d="M22.069 75.3103H16.5517V80.6897H22.069V75.3103Z" fill="black"/>
<path d="M27.5862 75.3103H22.069V80.6897H27.5862V75.3103Z" fill="black"/>
<path d="M33.1035 75.3103H27.5862V80.6897H33.1035V75.3103Z" fill="black"/>
<path d="M38.6207 75.3103H33.1035V80.6897H38.6207V75.3103Z" fill="black"/>
<path d="M44.1379 75.3103H38.6207V80.6897H44.1379V75.3103Z" fill="black"/>
<path d="M55.1724 75.3103H49.6552V80.6897H55.1724V75.3103Z" fill="black"/>
<path d="M66.2069 75.3103H60.6897V80.6897H66.2069V75.3103Z" fill="black"/>
<path d="M88.2759 75.3103H82.7586V80.6897H88.2759V75.3103Z" fill="black"/>
<path d="M93.7931 75.3103H88.2759V80.6897H93.7931V75.3103Z" fill="black"/>
<path d="M115.862 75.3103H110.345V80.6897H115.862V75.3103Z" fill="black"/>
<path d="M126.897 75.3103H121.379V80.6897H126.897V75.3103Z" fill="black"/>
<path d="M137.931 75.3103H132.414V80.6897H137.931V75.3103Z" fill="black"/>
<path d="M143.448 75.3103H137.931V80.6897H143.448V75.3103Z" fill="black"/>
<path d="M160 75.3103H154.483V80.6897H160V75.3103Z" fill="black"/>
<path d="M11.0345 80.6897H5.51724V86.069H11.0345V80.6897Z" fill="black"/>
<path d="M22.069 80.6897H16.5517V86.069H22.069V80.6897Z" fill="black"/>
<path d="M49.6552 80.6897H44.1379V86.069H49.6552V80.6897Z" fill="black"/>
<path d="M55.1724 80.6897H49.6552V86.069H55.1724V80.6897Z" fill="black"/>
<path d="M66.2069 80.6897H60.6897V86.069H66.2069V80.6897Z" fill="black"/>
<path d="M77.2414 80.6897H71.7241V86.069H77.2414V80.6897Z" fill="black"/>
<path d="M82.7586 80.6897H77.2414V86.069H82.7586V80.6897Z" fill="black"/>
<path d="M93.7931 80.6897H88.2759V86.069H93.7931V80.6897Z" fill="black"/>
<path d="M99.3103 80.6897H93.7931V86.069H99.3103V80.6897Z" fill="black"/>
<path d="M110.345 80.6897H104.828V86.069H110.345V80.6897Z" fill="black"/>
<path d="M121.379 80.6897H115.862V86.069H121.379V80.6897Z" fill="black"/>
<path d="M126.897 80.6897H121.379V86.069H126.897V80.6897Z" fill="black"/>
<path d="M137.931 80.6897H132.414V86.069H137.931V80.6897Z" fill="black"/>
<path d="M143.448 80.6897H137.931V86.069H143.448V80.6897Z" fill="black"/>
<path d="M154.483 80.6897H148.966V86.069H154.483V80.6897Z" fill="black"/>
<path d="M5.51724 86.069H0V91.4483H5.51724V86.069Z" fill="black"/>
<path d="M16.5517 86.069H11.0345V91.4483H16.5517V86.069Z" fill="black"/>
<path d="M27.5862 86.069H22.069V91.4483H27.5862V86.069Z" fill="black"/>
<path d="M38.6207 86.069H33.1035V91.4483H38.6207V86.069Z" fill="black"/>
<path d="M60.6897 86.069H55.1724V91.4483H60.6897V86.069Z" fill="black"/>
<path d="M71.7241 86.069H66.2069V91.4483H71.7241V86.069Z" fill="black"/>
<path d="M82.7586 86.069H77.2414V91.4483H82.7586V86.069Z" fill="black"/>
<path d="M88.2759 86.069H82.7586V91.4483H88.2759V86.069Z" fill="black"/>
<path d="M93.7931 86.069H88.2759V91.4483H93.7931V86.069Z" fill="black"/>
<path d="M110.345 86.069H104.828V91.4483H110.345V86.069Z" fill="black"/>
<path d="M115.862 86.069H110.345V91.4483H115.862V86.069Z" fill="black"/>
<path d="M121.379 86.069H115.862V91.4483H121.379V86.069Z" fill="black"/>
<path d="M132.414 86.069H126.897V91.4483H132.414V86.069Z" fill="black"/>
<path d="M143.448 86.069H137.931V91.4483H143.448V86.069Z" fill="black"/>
<path d="M11.0345 91.4483H5.51724V96.8276H11.0345V91.4483Z" fill="black"/>
<path d="M16.5517 91.4483H11.0345V96.8276H16.5517V91.4483Z" fill="black"/>
<path d="M44.1379 91.4483H38.6207V96.8276H44.1379V91.4483Z" fill="black"/>
<path d="M60.6897 91.4483H55.1724V96.8276H60.6897V91.4483Z" fill="black"/>
<path d="M71.7241 91.4483H66.2069V96.8276H71.7241V91.4483Z" fill="black"/>
<path d="M77.2414 91.4483H71.7241V96.8276H77.2414V91.4483Z" fill="black"/>
<path d="M88.2759 91.4483H82.7586V96.8276H88.2759V91.4483Z" fill="black"/>
<path d="M93.7931 91.4483H88.2759V96.8276H93.7931V91.4483Z" fill="black"/>
<path d="M104.828 91.4483H99.3103V96.8276H104.828V91.4483Z" fill="black"/>
<path d="M110.345 91.4483H104.828V96.8276H110.345V91.4483Z" fill="black"/>
<path d="M126.897 91.4483H121.379V96.8276H126.897V91.4483Z" fill="black"/>
<path d="M5.51724 96.8276H0V102.207H5.51724V96.8276Z" fill="black"/>
<path d="M11.0345 96.8276H5.51724V102.207H11.0345V96.8276Z" fill="black"/>
<path d="M16.5517 96.8276H11.0345V102.207H16.5517V96.8276Z" fill="black"/>
<path d="M22.069 96.8276H16.5517V102.207H22.069V96.8276Z" fill="black"/>
<path d="M27.5862 96.8276H22.069V102.207H27.5862V96.8276Z" fill="black"/>
<path d="M38.6207 96.8276H33.1035V102.207H38.6207V96.8276Z" fill="black"/>
<path d="M44.1379 96.8276H38.6207V102.207H44.1379V96.8276Z" fill="black"/>
<path d="M49.6552 96.8276H44.1379V102.207H49.6552V96.8276Z" fill="black"/>
<path d="M77.2414 96.8276H71.7241V102.207H77.2414V96.8276Z" fill="black"/>
<path d="M88.2759 96.8276H82.7586V102.207H88.2759V96.8276Z" fill="black"/>
<path d="M99.3103 96.8276H93.7931V102.207H99.3103V96.8276Z" fill="black"/>
<path d="M104.828 96.8276H99.3103V102.207H104.828V96.8276Z" fill="black"/>
<path d="M110.345 96.8276H104.828V102.207H110.345V96.8276Z" fill="black"/>
<path d="M115.862 96.8276H110.345V102.207H115.862V96.8276Z" fill="black"/>
<path d="M132.414 96.8276H126.897V102.207H132.414V96.8276Z" fill="black"/>
<path d="M137.931 96.8276H132.414V102.207H137.931V96.8276Z" fill="black"/>
<path d="M5.51724 102.207H0V107.586H5.51724V102.207Z" fill="black"/>
<path d="M33.1035 102.207H27.5862V107.586H33.1035V102.207Z" fill="black"/>
<path d="M49.6552 102.207H44.1379V107.586H49.6552V102.207Z" fill="black"/>
<path d="M60.6897 102.207H55.1724V107.586H60.6897V102.207Z" fill="black"/>
<path d="M66.2069 102.207H60.6897V107.586H66.2069V102.207Z" fill="black"/>
<path d="M77.2414 102.207H71.7241V107.586H77.2414V102.207Z" fill="black"/>
<path d="M110.345 102.207H104.828V107.586H110.345V102.207Z" fill="black"/>
<path d="M143.448 102.207H137.931V107.586H143.448V102.207Z" fill="black"/>
<path d="M148.966 102.207H143.448V107.586H148.966V102.207Z" fill="black"/>
<path d="M154.483 102.207H148.966V107.586H154.483V102.207Z" fill="black"/>
<path d="M16.5517 107.586H11.0345V112.966H16.5517V107.586Z" fill="black"/>
<path d="M38.6207 107.586H33.1035V112.966H38.6207V107.586Z" fill="black"/>
<path d="M55.1724 107.586H49.6552V112.966H55.1724V107.586Z" fill="black"/>
<path d="M60.6897 107.586H55.1724V112.966H60.6897V107.586Z" fill="black"/>
<path d="M77.2414 107.586H71.7241V112.966H77.2414V107.586Z" fill="black"/>
<path d="M88.2759 107.586H82.7586V112.966H88.2759V107.586Z" fill="black"/>
<path d="M93.7931 107.586H88.2759V112.966H93.7931V107.586Z" fill="black"/>
<path d="M99.3103 107.586H93.7931V112.966H99.3103V107.586Z" fill="black"/>
<path d="M115.862 107.586H110.345V112.966H115.862V107.586Z" fill="black"/>
<path d="M121.379 107.586H115.862V112.966H121.379V107.586Z" fill="black"/>
<path d="M126.897 107.586H121.379V112.966H126.897V107.586Z" fill="black"/>
<path d="M132.414 107.586H126.897V112.966H132.414V107.586Z" fill="black"/>
<path d="M137.931 107.586H132.414V112.966H137.931V107.586Z" fill="black"/>
<path d="M154.483 107.586H148.966V112.966H154.483V107.586Z" fill="black"/>
<path d="M160 107.586H154.483V112.966H160V107.586Z" fill="black"/>
<path d="M49.6552 112.966H44.1379V118.345H49.6552V112.966Z" fill="black"/>
<path d="M71.7241 112.966H66.2069V118.345H71.7241V112.966Z" fill="black"/>
<path d="M82.7586 112.966H77.2414V118.345H82.7586V112.966Z" fill="black"/>
<path d="M88.2759 112.966H82.7586V118.345H88.2759V112.966Z" fill="black"/>
<path d="M93.7931 112.966H88.2759V118.345H93.7931V112.966Z" fill="black"/>
<path d="M99.3103 112.966H93.7931V118.345H99.3103V112.966Z" fill="black"/>
<path d="M104.828 112.966H99.3103V118.345H104.828V112.966Z" fill="black"/>
<path d="M115.862 112.966H110.345V118.345H115.862V112.966Z" fill="black"/>
<path d="M137.931 112.966H132.414V118.345H137.931V112.966Z" fill="black"/>
<path d="M148.966 112.966H143.448V118.345H148.966V112.966Z" fill="black"/>
<path d="M154.483 112.966H148.966V118.345H154.483V112.966Z" fill="black"/>
<path d="M5.51724 118.345H0V123.724H5.51724V118.345Z" fill="black"/>
<path d="M11.0345 118.345H5.51724V123.724H11.0345V118.345Z" fill="black"/>
<path d="M16.5517 118.345H11.0345V123.724H16.5517V118.345Z" fill="black"/>
<path d="M22.069 118.345H16.5517V123.724H22.069V118.345Z" fill="black"/>
<path d="M27.5862 118.345H22.069V123.724H27.5862V118.345Z" fill="black"/>
<path d="M33.1035 118.345H27.5862V123.724H33.1035V118.345Z" fill="black"/>
<path d="M38.6207 118.345H33.1035V123.724H38.6207V118.345Z" fill="black"/>
<path d="M55.1724 118.345H49.6552V123.724H55.1724V118.345Z" fill="black"/>
<path d="M66.2069 118.345H60.6897V123.724H66.2069V118.345Z" fill="black"/>
<path d="M71.7241 118.345H66.2069V123.724H71.7241V118.345Z" fill="black"/>
<path d="M82.7586 118.345H77.2414V123.724H82.7586V118.345Z" fill="black"/>
<path d="M99.3103 118.345H93.7931V123.724H99.3103V118.345Z" fill="black"/>
<path d="M115.862 118.345H110.345V123.724H115.862V118.345Z" fill="black"/>
<path d="M126.897 118.345H121.379V123.724H126.897V118.345Z" fill="black"/>
<path d="M137.931 118.345H132.414V123.724H137.931V118.345Z" fill="black"/>
<path d="M143.448 118.345H137.931V123.724H143.448V118.345Z" fill="black"/>
<path d="M160 118.345H154.483V123.724H160V118.345Z" fill="black"/>
<path d="M5.51724 123.724H0V129.103H5.51724V123.724Z" fill="black"/>
<path d="M38.6207 123.724H33.1035V129.103H38.6207V123.724Z" fill="black"/>
<path d="M49.6552 123.724H44.1379V129.103H49.6552V123.724Z" fill="black"/>
<path d="M60.6897 123.724H55.1724V129.103H60.6897V123.724Z" fill="black"/>
<path d="M66.2069 123.724H60.6897V129.103H66.2069V123.724Z" fill="black"/>
<path d="M77.2414 123.724H71.7241V129.103H77.2414V123.724Z" fill="black"/>
<path d="M99.3103 123.724H93.7931V129.103H99.3103V123.724Z" fill="black"/>
<path d="M104.828 123.724H99.3103V129.103H104.828V123.724Z" fill="black"/>
<path d="M110.345 123.724H104.828V129.103H110.345V123.724Z" fill="black"/>
<path d="M115.862 123.724H110.345V129.103H115.862V123.724Z" fill="black"/>
<path d="M137.931 123.724H132.414V129.103H137.931V123.724Z" fill="black"/>
<path d="M143.448 123.724H137.931V129.103H143.448V123.724Z" fill="black"/>
<path d="M154.483 123.724H148.966V129.103H154.483V123.724Z" fill="black"/>
<path d="M5.51724 129.103H0V134.483H5.51724V129.103Z" fill="black"/>
<path d="M16.5517 129.103H11.0345V134.483H16.5517V129.103Z" fill="black"/>
<path d="M22.069 129.103H16.5517V134.483H22.069V129.103Z" fill="black"/>
<path d="M27.5862 129.103H22.069V134.483H27.5862V129.103Z" fill="black"/>
<path d="M38.6207 129.103H33.1035V134.483H38.6207V129.103Z" fill="black"/>
<path d="M60.6897 129.103H55.1724V134.483H60.6897V129.103Z" fill="black"/>
<path d="M66.2069 129.103H60.6897V134.483H66.2069V129.103Z" fill="black"/>
<path d="M82.7586 129.103H77.2414V134.483H82.7586V129.103Z" fill="black"/>
<path d="M88.2759 129.103H82.7586V134.483H88.2759V129.103Z" fill="black"/>
<path d="M104.828 129.103H99.3103V134.483H104.828V129.103Z" fill="black"/>
<path d="M110.345 129.103H104.828V134.483H110.345V129.103Z" fill="black"/>
<path d="M115.862 129.103H110.345V134.483H115.862V129.103Z" fill="black"/>
<path d="M121.379 129.103H115.862V134.483H121.379V129.103Z" fill="black"/>
<path d="M126.897 129.103H121.379V134.483H126.897V129.103Z" fill="black"/>
<path d="M132.414 129.103H126.897V134.483H132.414V129.103Z" fill="black"/>
<path d="M137.931 129.103H132.414V134.483H137.931V129.103Z" fill="black"/>
<path d="M143.448 129.103H137.931V134.483H143.448V129.103Z" fill="black"/>
<path d="M148.966 129.103H143.448V134.483H148.966V129.103Z" fill="black"/>
<path d="M154.483 129.103H148.966V134.483H154.483V129.103Z" fill="black"/>
<path d="M160 129.103H154.483V134.483H160V129.103Z" fill="black"/>
<path d="M5.51724 134.483H0V139.862H5.51724V134.483Z" fill="black"/>
<path d="M16.5517 134.483H11.0345V139.862H16.5517V134.483Z" fill="black"/>
<path d="M22.069 134.483H16.5517V139.862H22.069V134.483Z" fill="black"/>
<path d="M27.5862 134.483H22.069V139.862H27.5862V134.483Z" fill="black"/>
<path d="M38.6207 134.483H33.1035V139.862H38.6207V134.483Z" fill="black"/>
<path d="M55.1724 134.483H49.6552V139.862H55.1724V134.483Z" fill="black"/>
<path d="M60.6897 134.483H55.1724V139.862H60.6897V134.483Z" fill="black"/>
<path d="M66.2069 134.483H60.6897V139.862H66.2069V134.483Z" fill="black"/>
<path d="M71.7241 134.483H66.2069V139.862H71.7241V134.483Z" fill="black"/>
<path d="M88.2759 134.483H82.7586V139.862H88.2759V134.483Z" fill="black"/>
<path d="M93.7931 134.483H88.2759V139.862H93.7931V134.483Z" fill="black"/>
<path d="M104.828 134.483H99.3103V139.862H104.828V134.483Z" fill="black"/>
<path d="M137.931 134.483H132.414V139.862H137.931V134.483Z" fill="black"/>
<path d="M143.448 134.483H137.931V139.862H143.448V134.483Z" fill="black"/>
<path d="M5.51724 139.862H0V145.241H5.51724V139.862Z" fill="black"/>
<path d="M16.5517 139.862H11.0345V145.241H16.5517V139.862Z" fill="black"/>
<path d="M22.069 139.862H16.5517V145.241H22.069V139.862Z" fill="black"/>
<path d="M27.5862 139.862H22.069V145.241H27.5862V139.862Z" fill="black"/>
<path d="M38.6207 139.862H33.1035V145.241H38.6207V139.862Z" fill="black"/>
<path d="M60.6897 139.862H55.1724V145.241H60.6897V139.862Z" fill="black"/>
<path d="M66.2069 139.862H60.6897V145.241H66.2069V139.862Z" fill="black"/>
<path d="M77.2414 139.862H71.7241V145.241H77.2414V139.862Z" fill="black"/>
<path d="M82.7586 139.862H77.2414V145.241H82.7586V139.862Z" fill="black"/>
<path d="M115.862 139.862H110.345V145.241H115.862V139.862Z" fill="black"/>
<path d="M121.379 139.862H115.862V145.241H121.379V139.862Z" fill="black"/>
<path d="M132.414 139.862H126.897V145.241H132.414V139.862Z" fill="black"/>
<path d="M5.51724 145.241H0V150.621H5.51724V145.241Z" fill="black"/>
<path d="M38.6207 145.241H33.1035V150.621H38.6207V145.241Z" fill="black"/>
<path d="M60.6897 145.241H55.1724V150.621H60.6897V145.241Z" fill="black"/>
<path d="M66.2069 145.241H60.6897V150.621H66.2069V145.241Z" fill="black"/>
<path d="M71.7241 145.241H66.2069V150.621H71.7241V145.241Z" fill="black"/>
<path d="M82.7586 145.241H77.2414V150.621H82.7586V145.241Z" fill="black"/>
<path d="M88.2759 145.241H82.7586V150.621H88.2759V145.241Z" fill="black"/>
<path d="M93.7931 145.241H88.2759V150.621H93.7931V145.241Z" fill="black"/>
<path d="M104.828 145.241H99.3103V150.621H104.828V145.241Z" fill="black"/>
<path d="M110.345 145.241H104.828V150.621H110.345V145.241Z" fill="black"/>
<path d="M121.379 145.241H115.862V150.621H121.379V145.241Z" fill="black"/>
<path d="M126.897 145.241H121.379V150.621H126.897V145.241Z" fill="black"/>
<path d="M132.414 145.241H126.897V150.621H132.414V145.241Z" fill="black"/>
<path d="M137.931 145.241H132.414V150.621H137.931V145.241Z" fill="black"/>
<path d="M154.483 145.241H148.966V150.621H154.483V145.241Z" fill="black"/>
<path d="M160 145.241H154.483V150.621H160V145.241Z" fill="black"/>
<path d="M5.51724 150.621H0V156H5.51724V150.621Z" fill="black"/>
<path d="M11.0345 150.621H5.51724V156H11.0345V150.621Z" fill="black"/>
<path d="M16.5517 150.621H11.0345V156H16.5517V150.621Z" fill="black"/>
<path d="M22.069 150.621H16.5517V156H22.069V150.621Z" fill="black"/>
<path d="M27.5862 150.621H22.069V156H27.5862V150.621Z" fill="black"/>
<path d="M33.1035 150.621H27.5862V156H33.1035V150.621Z" fill="black"/>
<path d="M38.6207 150.621H33.1035V156H38.6207V150.621Z" fill="black"/>
<path d="M55.1724 150.621H49.6552V156H55.1724V150.621Z" fill="black"/>
<path d="M71.7241 150.621H66.2069V156H71.7241V150.621Z" fill="black"/>
<path d="M82.7586 150.621H77.2414V156H82.7586V150.621Z" fill="black"/>
<path d="M99.3103 150.621H93.7931V156H99.3103V150.621Z" fill="black"/>
<path d="M104.828 150.621H99.3103V156H104.828V150.621Z" fill="black"/>
<path d="M110.345 150.621H104.828V156H110.345V150.621Z" fill="black"/>
<path d="M121.379 150.621H115.862V156H121.379V150.621Z" fill="black"/>
<path d="M143.448 150.621H137.931V156H143.448V150.621Z" fill="black"/>
<path d="M148.966 150.621H143.448V156H148.966V150.621Z" fill="black"/>
</svg>
