<svg width="48" height="48" viewBox="0 0 48 48" fill="none" xmlns="http://www.w3.org/2000/svg">
<path d="M24.0003 44.8337C35.5063 44.8337 44.8337 35.5063 44.8337 24.0003C44.8337 12.4944 35.5063 3.16699 24.0003 3.16699C12.4944 3.16699 3.16699 12.4944 3.16699 24.0003C3.16699 35.5063 12.4944 44.8337 24.0003 44.8337Z" stroke="#0D062D" stroke-width="5"/>
<path d="M27.9328 19.6978C30.1722 21.5247 31.292 22.438 31.292 24.0003C31.292 25.5626 30.1722 26.4759 27.9328 28.3028C27.3147 28.8072 26.7016 29.282 26.138 29.6776C25.6437 30.0247 25.0839 30.3837 24.5043 30.7362C22.2701 32.0947 21.153 32.7741 20.1512 32.022C19.1493 31.2699 19.0582 29.6953 18.8761 26.5466C18.8246 25.6559 18.792 24.783 18.792 24.0003C18.792 23.2176 18.8246 22.3447 18.8761 21.4541C19.0582 18.3052 19.1493 16.7308 20.1512 15.9787C21.153 15.2266 22.2701 15.9059 24.5043 17.2645C25.0839 17.6169 25.6437 17.976 26.138 18.3231C26.7016 18.7187 27.3147 19.1935 27.9328 19.6978Z" stroke="#0D062D" stroke-width="2"/>
</svg>
