<svg width="26" height="23" viewBox="0 0 26 23" fill="none" xmlns="http://www.w3.org/2000/svg">
<path d="M18.4999 19.342C18.3416 19.342 18.1832 19.2779 18.0582 19.1404L12.6249 13.1643C11.7416 12.1927 11.7416 10.5979 12.6249 9.62631L18.0582 3.65022C18.2999 3.38441 18.6999 3.38441 18.9416 3.65022C19.1832 3.91603 19.1832 4.35599 18.9416 4.62179L13.5082 10.5979C13.1082 11.0378 13.1082 11.7528 13.5082 12.1927L18.9416 18.1688C19.1832 18.4346 19.1832 18.8746 18.9416 19.1404C18.8166 19.2687 18.6582 19.342 18.4999 19.342Z" fill="#787486"/>
<path d="M12.4999 19.342C12.3416 19.342 12.1832 19.2779 12.0582 19.1404L6.6249 13.1643C5.74157 12.1927 5.74157 10.5979 6.6249 9.62631L12.0582 3.65022C12.2999 3.38441 12.6999 3.38441 12.9416 3.65022C13.1832 3.91603 13.1832 4.35599 12.9416 4.62179L7.50824 10.5979C7.10824 11.0378 7.10824 11.7528 7.50824 12.1927L12.9416 18.1688C13.1832 18.4346 13.1832 18.8746 12.9416 19.1404C12.8166 19.2687 12.6582 19.342 12.4999 19.342Z" fill="#787486"/>
</svg>
