<svg width="32" height="32" viewBox="0 0 32 32" fill="none" xmlns="http://www.w3.org/2000/svg">
<path fill-rule="evenodd" clip-rule="evenodd" d="M7.64133 13.4764C5.792 13.8121 4.07333 14.7032 2.72533 16.05C0.98 17.7936 0 20.158 0 22.6237V28.0038C0 30.211 1.79067 32 4 32C9.57867 32 22.4213 32 28 32C30.2093 32 32 30.211 32 28.0038V22.6237C32 20.158 31.02 17.7936 29.2747 16.05C27.9267 14.7032 26.208 13.8121 24.3587 13.4764C24.9827 12.2256 25.3333 10.8163 25.3333 9.3244C25.3333 4.17866 21.1507 0 16 0C10.8493 0 6.66667 4.17866 6.66667 9.3244C6.66667 10.8163 7.01733 12.2256 7.64133 13.4764ZM22.5333 15.9807C20.8507 17.6311 18.5427 18.6488 16 18.6488C13.4573 18.6488 11.1493 17.6311 9.46667 15.9807C9.41333 15.9873 9.36 15.99 9.30667 15.99C7.54533 15.99 5.856 16.6893 4.612 17.9335C3.36667 19.1776 2.66667 20.8653 2.66667 22.6237V28.0038C2.66667 28.7391 3.264 29.3359 4 29.3359H28C28.736 29.3359 29.3333 28.7391 29.3333 28.0038V22.6237C29.3333 20.8653 28.6333 19.1776 27.388 17.9335C26.144 16.6893 24.4547 15.99 22.6933 15.99C22.64 15.99 22.5867 15.9873 22.5333 15.9807ZM16 2.66411C19.68 2.66411 22.6667 5.64925 22.6667 9.3244C22.6667 13.0009 19.68 15.9847 16 15.9847C12.32 15.9847 9.33333 13.0009 9.33333 9.3244C9.33333 5.64925 12.32 2.66411 16 2.66411Z" fill="#0D062D"/>
<path fill-rule="evenodd" clip-rule="evenodd" d="M21.3337 21.3799H20.0003C19.2643 21.3799 18.667 21.9767 18.667 22.712C18.667 23.4473 19.2643 24.044 20.0003 24.044H21.3337V25.3761C21.3337 26.1114 21.931 26.7082 22.667 26.7082C23.403 26.7082 24.0003 26.1114 24.0003 25.3761V24.044H25.3337C26.0697 24.044 26.667 23.4473 26.667 22.712C26.667 21.9767 26.0697 21.3799 25.3337 21.3799H24.0003V20.0479C24.0003 19.3126 23.403 18.7158 22.667 18.7158C21.931 18.7158 21.3337 19.3126 21.3337 20.0479V21.3799Z" fill="#0D062D"/>
</svg>
