<svg width="50" height="50" viewBox="0 0 50 50" fill="none" xmlns="http://www.w3.org/2000/svg">
<path d="M16.667 19.792C16.667 18.8213 16.667 18.3359 16.8256 17.9531C17.037 17.4426 17.4426 17.037 17.9531 16.8256C18.3359 16.667 18.8213 16.667 19.792 16.667C20.7627 16.667 21.248 16.667 21.631 16.8256C22.1414 17.037 22.547 17.4426 22.7584 17.9531C22.917 18.3359 22.917 18.8213 22.917 19.792V30.2087C22.917 31.1793 22.917 31.6647 22.7584 32.0476C22.547 32.558 22.1414 32.9637 21.631 33.1751C21.248 33.3337 20.7627 33.3337 19.792 33.3337C18.8213 33.3337 18.3359 33.3337 17.9531 33.1751C17.4426 32.9637 17.037 32.558 16.8256 32.0476C16.667 31.6647 16.667 31.1793 16.667 30.2087V19.792Z" stroke="#0D062D" stroke-width="2"/>
<path d="M27.084 19.792C27.084 18.8213 27.084 18.3359 27.2425 17.9531C27.454 17.4426 27.8596 17.037 28.37 16.8256C28.7529 16.667 29.2384 16.667 30.209 16.667C31.1796 16.667 31.665 16.667 32.0479 16.8256C32.5584 17.037 32.964 17.4426 33.1754 17.9531C33.334 18.3359 33.334 18.8213 33.334 19.792V30.2087C33.334 31.1793 33.334 31.6647 33.1754 32.0476C32.964 32.558 32.5584 32.9637 32.0479 33.1751C31.665 33.3337 31.1796 33.3337 30.209 33.3337C29.2384 33.3337 28.7529 33.3337 28.37 33.1751C27.8596 32.9637 27.454 32.558 27.2425 32.0476C27.084 31.6647 27.084 31.1793 27.084 30.2087V19.792Z" stroke="#0D062D" stroke-width="2"/>
<path d="M14.5837 6.95412C17.648 5.18151 21.2057 4.16699 25.0003 4.16699C36.5062 4.16699 45.8337 13.4944 45.8337 25.0003C45.8337 36.5062 36.5062 45.8337 25.0003 45.8337C13.4944 45.8337 4.16699 36.5062 4.16699 25.0003C4.16699 21.2057 5.18151 17.648 6.95412 14.5837" stroke="#0D062D" stroke-width="5" stroke-linecap="round"/>
</svg>
