<svg width="32" height="32" viewBox="0 0 32 32" fill="none" xmlns="http://www.w3.org/2000/svg">
<mask id="path-1-inside-1_35_3196" fill="white">
<path d="M31.3596 29.9996H30.6396V20.9996C30.6396 17.6416 28.4886 14.7106 25.2856 13.7076C25.1476 13.6646 25.0496 13.5426 25.0346 13.3996C25.0206 13.2556 25.0936 13.1176 25.2196 13.0486C26.7116 12.2286 27.6396 10.6766 27.6396 8.99965C27.6396 6.44065 25.5586 4.35965 22.9996 4.35965C20.4406 4.35965 18.3596 6.44065 18.3596 8.99965C18.3596 10.6766 19.2876 12.2286 20.7806 13.0486C20.9066 13.1176 20.9786 13.2566 20.9656 13.3996C20.9506 13.5436 20.8526 13.6646 20.7146 13.7076C17.5116 14.7106 15.3596 17.6416 15.3596 20.9996V29.9996H14.6396V20.9996C14.6396 19.6106 14.9756 18.2886 15.5836 17.1226C15.0166 16.1596 14.2576 15.3446 13.3596 14.7216V16.9996C13.3596 19.2826 11.5956 21.1616 9.35965 21.3456V23.6746C10.2136 23.8426 10.8596 24.5976 10.8596 25.4996C10.8596 26.5246 10.0256 27.3596 8.99965 27.3596C7.97365 27.3596 7.13965 26.5246 7.13965 25.4996C7.13965 24.5976 7.78565 23.8426 8.63965 23.6746V21.3456C6.40365 21.1616 4.63965 19.2836 4.63965 16.9996V14.7186C2.61665 16.1156 1.35965 18.4326 1.35965 20.9996V29.9996H0.639648V20.9996C0.639648 17.5736 2.68465 14.5556 5.80065 13.2726C4.45265 12.2686 3.63965 10.6896 3.63965 8.99965C3.63965 6.94465 4.81265 5.07865 6.64665 4.18265C6.64265 4.12265 6.63965 4.06165 6.63965 3.99965C6.63965 2.69865 7.69865 1.63965 8.99965 1.63965C10.3006 1.63965 11.3596 2.69865 11.3596 3.99965C11.3596 4.06165 11.3576 4.12265 11.3526 4.18265C13.1866 5.07865 14.3596 6.94465 14.3596 8.99965C14.3596 10.6896 13.5476 12.2686 12.1976 13.2736C13.7526 13.9156 15.0696 15.0056 15.9946 16.4196C16.8976 15.0366 18.2096 13.9286 19.8016 13.2736C18.4516 12.2686 17.6396 10.6896 17.6396 8.99965C17.6396 6.04365 20.0446 3.63965 22.9996 3.63965C25.9546 3.63965 28.3596 6.04365 28.3596 8.99965C28.3596 10.6896 27.5476 12.2686 26.1976 13.2726C29.3136 14.5556 31.3596 17.5746 31.3596 20.9996V29.9996ZM8.99965 24.3596C8.37165 24.3596 7.85965 24.8706 7.85965 25.4996C7.85965 26.1286 8.37165 26.6396 8.99965 26.6396C9.62765 26.6396 10.1396 26.1286 10.1396 25.4996C10.1396 24.8706 9.62765 24.3596 8.99965 24.3596ZM5.35965 14.2776V16.9996C5.35965 19.0066 6.99265 20.6396 8.99965 20.6396C11.0066 20.6396 12.6396 19.0066 12.6396 16.9996V14.2796C12.2106 14.0486 11.7576 13.8566 11.2846 13.7086C11.1466 13.6656 11.0486 13.5436 11.0336 13.4006C11.0196 13.2566 11.0926 13.1186 11.2186 13.0496C12.7116 12.2286 13.6396 10.6766 13.6396 8.99965C13.6396 7.27465 12.6846 5.70365 11.1806 4.90265C10.8246 5.75665 9.98165 6.35965 8.99965 6.35965C8.01765 6.35965 7.17465 5.75665 6.81865 4.90265C5.31365 5.70365 4.35965 7.27465 4.35965 8.99965C4.35965 10.6766 5.28765 12.2286 6.78065 13.0486C6.90665 13.1176 6.97965 13.2566 6.96565 13.3996C6.95065 13.5436 6.85265 13.6646 6.71465 13.7076C6.23865 13.8566 5.78565 14.0486 5.35965 14.2776ZM8.99965 2.35965C8.09565 2.35965 7.35965 3.09565 7.35965 3.99965C7.35965 4.90365 8.09565 5.63965 8.99965 5.63965C9.90365 5.63965 10.6396 4.90365 10.6396 3.99965C10.6396 3.09565 9.90365 2.35965 8.99965 2.35965ZM22.9996 25.3596C22.9076 25.3596 22.8146 25.3246 22.7446 25.2546L19.7716 22.2816C19.3716 21.8806 19.1496 21.3477 19.1466 20.7826C19.1446 20.2106 19.3666 19.6716 19.7716 19.2646C20.1736 18.8626 20.7086 18.6406 21.2766 18.6386C21.2786 18.6386 21.2796 18.6386 21.2816 18.6386C21.8506 18.6386 22.3866 18.8616 22.7906 19.2636L22.9996 19.4746L23.2086 19.2646C24.0156 18.4616 25.4206 18.4596 26.2276 19.2646C26.6406 19.6786 26.8626 20.2276 26.8516 20.8126C26.8416 21.3676 26.6206 21.8897 26.2276 22.2826L23.2546 25.2556C23.1846 25.3246 23.0916 25.3596 22.9996 25.3596ZM21.2816 19.3596H21.2786C20.9016 19.3596 20.5476 19.5066 20.2816 19.7736C20.0126 20.0426 19.8656 20.3996 19.8676 20.7786C19.8686 21.1536 20.0156 21.5076 20.2816 21.7716L22.9996 24.4906L25.7176 21.7716C25.9786 21.5116 26.1246 21.1666 26.1306 20.7986C26.1386 20.4106 25.9916 20.0466 25.7176 19.7736C25.1836 19.2376 24.2506 19.2386 23.7186 19.7736L23.2546 20.2376C23.1136 20.3787 22.8856 20.3787 22.7446 20.2376L22.2806 19.7736C22.0146 19.5066 21.6586 19.3596 21.2816 19.3596Z"/>
</mask>
<path d="M31.3596 29.9996H30.6396V20.9996C30.6396 17.6416 28.4886 14.7106 25.2856 13.7076C25.1476 13.6646 25.0496 13.5426 25.0346 13.3996C25.0206 13.2556 25.0936 13.1176 25.2196 13.0486C26.7116 12.2286 27.6396 10.6766 27.6396 8.99965C27.6396 6.44065 25.5586 4.35965 22.9996 4.35965C20.4406 4.35965 18.3596 6.44065 18.3596 8.99965C18.3596 10.6766 19.2876 12.2286 20.7806 13.0486C20.9066 13.1176 20.9786 13.2566 20.9656 13.3996C20.9506 13.5436 20.8526 13.6646 20.7146 13.7076C17.5116 14.7106 15.3596 17.6416 15.3596 20.9996V29.9996H14.6396V20.9996C14.6396 19.6106 14.9756 18.2886 15.5836 17.1226C15.0166 16.1596 14.2576 15.3446 13.3596 14.7216V16.9996C13.3596 19.2826 11.5956 21.1616 9.35965 21.3456V23.6746C10.2136 23.8426 10.8596 24.5976 10.8596 25.4996C10.8596 26.5246 10.0256 27.3596 8.99965 27.3596C7.97365 27.3596 7.13965 26.5246 7.13965 25.4996C7.13965 24.5976 7.78565 23.8426 8.63965 23.6746V21.3456C6.40365 21.1616 4.63965 19.2836 4.63965 16.9996V14.7186C2.61665 16.1156 1.35965 18.4326 1.35965 20.9996V29.9996H0.639648V20.9996C0.639648 17.5736 2.68465 14.5556 5.80065 13.2726C4.45265 12.2686 3.63965 10.6896 3.63965 8.99965C3.63965 6.94465 4.81265 5.07865 6.64665 4.18265C6.64265 4.12265 6.63965 4.06165 6.63965 3.99965C6.63965 2.69865 7.69865 1.63965 8.99965 1.63965C10.3006 1.63965 11.3596 2.69865 11.3596 3.99965C11.3596 4.06165 11.3576 4.12265 11.3526 4.18265C13.1866 5.07865 14.3596 6.94465 14.3596 8.99965C14.3596 10.6896 13.5476 12.2686 12.1976 13.2736C13.7526 13.9156 15.0696 15.0056 15.9946 16.4196C16.8976 15.0366 18.2096 13.9286 19.8016 13.2736C18.4516 12.2686 17.6396 10.6896 17.6396 8.99965C17.6396 6.04365 20.0446 3.63965 22.9996 3.63965C25.9546 3.63965 28.3596 6.04365 28.3596 8.99965C28.3596 10.6896 27.5476 12.2686 26.1976 13.2726C29.3136 14.5556 31.3596 17.5746 31.3596 20.9996V29.9996ZM8.99965 24.3596C8.37165 24.3596 7.85965 24.8706 7.85965 25.4996C7.85965 26.1286 8.37165 26.6396 8.99965 26.6396C9.62765 26.6396 10.1396 26.1286 10.1396 25.4996C10.1396 24.8706 9.62765 24.3596 8.99965 24.3596ZM5.35965 14.2776V16.9996C5.35965 19.0066 6.99265 20.6396 8.99965 20.6396C11.0066 20.6396 12.6396 19.0066 12.6396 16.9996V14.2796C12.2106 14.0486 11.7576 13.8566 11.2846 13.7086C11.1466 13.6656 11.0486 13.5436 11.0336 13.4006C11.0196 13.2566 11.0926 13.1186 11.2186 13.0496C12.7116 12.2286 13.6396 10.6766 13.6396 8.99965C13.6396 7.27465 12.6846 5.70365 11.1806 4.90265C10.8246 5.75665 9.98165 6.35965 8.99965 6.35965C8.01765 6.35965 7.17465 5.75665 6.81865 4.90265C5.31365 5.70365 4.35965 7.27465 4.35965 8.99965C4.35965 10.6766 5.28765 12.2286 6.78065 13.0486C6.90665 13.1176 6.97965 13.2566 6.96565 13.3996C6.95065 13.5436 6.85265 13.6646 6.71465 13.7076C6.23865 13.8566 5.78565 14.0486 5.35965 14.2776ZM8.99965 2.35965C8.09565 2.35965 7.35965 3.09565 7.35965 3.99965C7.35965 4.90365 8.09565 5.63965 8.99965 5.63965C9.90365 5.63965 10.6396 4.90365 10.6396 3.99965C10.6396 3.09565 9.90365 2.35965 8.99965 2.35965ZM22.9996 25.3596C22.9076 25.3596 22.8146 25.3246 22.7446 25.2546L19.7716 22.2816C19.3716 21.8806 19.1496 21.3477 19.1466 20.7826C19.1446 20.2106 19.3666 19.6716 19.7716 19.2646C20.1736 18.8626 20.7086 18.6406 21.2766 18.6386C21.2786 18.6386 21.2796 18.6386 21.2816 18.6386C21.8506 18.6386 22.3866 18.8616 22.7906 19.2636L22.9996 19.4746L23.2086 19.2646C24.0156 18.4616 25.4206 18.4596 26.2276 19.2646C26.6406 19.6786 26.8626 20.2276 26.8516 20.8126C26.8416 21.3676 26.6206 21.8897 26.2276 22.2826L23.2546 25.2556C23.1846 25.3246 23.0916 25.3596 22.9996 25.3596ZM21.2816 19.3596H21.2786C20.9016 19.3596 20.5476 19.5066 20.2816 19.7736C20.0126 20.0426 19.8656 20.3996 19.8676 20.7786C19.8686 21.1536 20.0156 21.5076 20.2816 21.7716L22.9996 24.4906L25.7176 21.7716C25.9786 21.5116 26.1246 21.1666 26.1306 20.7986C26.1386 20.4106 25.9916 20.0466 25.7176 19.7736C25.1836 19.2376 24.2506 19.2386 23.7186 19.7736L23.2546 20.2376C23.1136 20.3787 22.8856 20.3787 22.7446 20.2376L22.2806 19.7736C22.0146 19.5066 21.6586 19.3596 21.2816 19.3596Z" fill="#0D062D"/>
<path d="M31.3596 29.9996V34.9996H36.3596V29.9996H31.3596ZM30.6396 29.9996H25.6396V34.9996H30.6396V29.9996ZM25.2856 13.7076L26.7798 8.93612L26.7731 8.93402L25.2856 13.7076ZM25.0346 13.3996L20.0581 13.8835L20.0599 13.9024L20.0619 13.9213L25.0346 13.3996ZM25.2196 13.0486L27.6212 17.4341L27.6279 17.4305L25.2196 13.0486ZM20.7806 13.0486L18.3736 17.4312L18.3791 17.4341L20.7806 13.0486ZM20.9656 13.3996L25.9387 13.9177L25.9421 13.885L25.9451 13.8523L20.9656 13.3996ZM20.7146 13.7076L19.2272 8.93401L19.2205 8.93612L20.7146 13.7076ZM15.3596 29.9996V34.9996H20.3596V29.9996H15.3596ZM14.6396 29.9996H9.63965V34.9996H14.6396V29.9996ZM15.5836 17.1226L20.0171 19.4344L21.2993 16.9755L19.8923 14.5858L15.5836 17.1226ZM13.3596 14.7216L16.2097 10.6135L8.35965 5.16738V14.7216H13.3596ZM9.35965 21.3456L8.94958 16.3625L4.35965 16.7402V21.3456H9.35965ZM9.35965 23.6746H4.35965V27.7869L8.39454 28.5806L9.35965 23.6746ZM8.63965 23.6746L9.60476 28.5806L13.6396 27.7869V23.6746H8.63965ZM8.63965 21.3456H13.6396V16.7402L9.04971 16.3625L8.63965 21.3456ZM4.63965 14.7186H9.63965V5.18953L1.79847 10.6043L4.63965 14.7186ZM1.35965 29.9996V34.9996H6.35965V29.9996H1.35965ZM0.639648 29.9996H-4.36035V34.9996H0.639648V29.9996ZM5.80065 13.2726L7.70432 17.8961L15.8665 14.5353L8.7873 9.26267L5.80065 13.2726ZM6.64665 4.18265L8.84147 8.67517L11.859 7.20097L11.6356 3.85005L6.64665 4.18265ZM11.3526 4.18265L6.36992 3.76742L6.086 7.17443L9.15783 8.67517L11.3526 4.18265ZM12.1976 13.2736L9.21193 9.26298L2.13743 14.5295L10.2896 17.8953L12.1976 13.2736ZM15.9946 16.4196L11.8104 19.1569L15.9986 25.5591L20.1813 19.1532L15.9946 16.4196ZM19.8016 13.2736L21.7041 17.8976L29.872 14.5371L22.7874 9.26298L19.8016 13.2736ZM26.1976 13.2726L23.2138 9.26056L16.125 14.5325L24.294 17.8961L26.1976 13.2726ZM5.35965 14.2776L2.99223 9.87363L0.359648 11.2888V14.2776H5.35965ZM12.6396 14.2796H17.6396V11.2932L15.0101 9.87729L12.6396 14.2796ZM11.2846 13.7086L12.7777 8.93678L12.7721 8.93502L11.2846 13.7086ZM11.0336 13.4006L6.05711 13.8845L6.05895 13.9034L6.06093 13.9223L11.0336 13.4006ZM11.2186 13.0496L13.6202 17.4351L13.6279 17.4309L11.2186 13.0496ZM11.1806 4.90265L13.531 0.489504L8.68021 -2.09393L6.56558 2.9788L11.1806 4.90265ZM6.81865 4.90265L11.4337 2.9788L9.31967 -2.09252L4.46951 0.488856L6.81865 4.90265ZM6.78065 13.0486L4.37364 17.4312L4.37908 17.4341L6.78065 13.0486ZM6.96565 13.3996L11.9387 13.9177L11.9403 13.9023L11.9419 13.8868L6.96565 13.3996ZM6.71465 13.7076L5.22721 8.93401L5.22099 8.93596L6.71465 13.7076ZM22.7446 25.2546L26.2802 21.7191V21.7191L22.7446 25.2546ZM19.7716 22.2816L16.2317 25.8128L16.2361 25.8172L19.7716 22.2816ZM19.1466 20.7826L14.1467 20.8001L14.1467 20.8092L19.1466 20.7826ZM19.7716 19.2646L16.2361 15.7291L16.2274 15.7378L19.7716 19.2646ZM21.2766 18.6386V13.6386H21.2678L21.259 13.6387L21.2766 18.6386ZM22.7906 19.2636L26.343 15.745L26.3302 15.7321L26.3174 15.7194L22.7906 19.2636ZM22.9996 19.4746L19.4473 22.9933L22.9912 26.5711L26.5436 23.0017L22.9996 19.4746ZM23.2086 19.2646L19.6819 15.7203L19.6733 15.7289L19.6647 15.7376L23.2086 19.2646ZM26.2276 19.2646L29.7675 15.7334L29.7588 15.7247L26.2276 19.2646ZM26.8516 20.8126L21.8525 20.7186L21.8525 20.7226L26.8516 20.8126ZM26.2276 22.2826L29.7632 25.8182V25.8182L26.2276 22.2826ZM23.2546 25.2556L26.7647 28.8165L26.7775 28.8039L26.7902 28.7912L23.2546 25.2556ZM20.2816 19.7736L23.8172 23.3092L23.8238 23.3025L20.2816 19.7736ZM19.8676 20.7786L24.8676 20.7653L24.8676 20.7523L19.8676 20.7786ZM20.2816 21.7716L23.8178 18.2368L23.8108 18.2298L23.8038 18.2228L20.2816 21.7716ZM22.9996 24.4906L19.4635 28.0255L22.9996 31.563L26.5358 28.0255L22.9996 24.4906ZM25.7176 21.7716L22.1889 18.2293L22.1815 18.2368L25.7176 21.7716ZM26.1306 20.7986L21.1317 20.6956L21.1315 20.7064L21.1313 20.7171L26.1306 20.7986ZM25.7176 19.7736L22.1755 23.3026L22.182 23.3091L22.1886 23.3156L25.7176 19.7736ZM23.7186 19.7736L27.2542 23.3092L27.2641 23.2992L23.7186 19.7736ZM23.2546 20.2376L19.7191 16.7021L23.2546 20.2376ZM22.7446 20.2376L26.2802 16.7021L22.7446 20.2376ZM22.2806 19.7736L18.7385 23.3025L18.7451 23.3092L22.2806 19.7736ZM31.3596 24.9996H30.6396V34.9996H31.3596V24.9996ZM35.6396 29.9996V20.9996H25.6396V29.9996H35.6396ZM35.6396 20.9996C35.6396 15.4591 32.0719 10.5933 26.7798 8.93612L23.7915 18.4792C24.9054 18.828 25.6396 19.8242 25.6396 20.9996H35.6396ZM26.7731 8.93402C28.5785 9.49657 29.8181 11.0734 30.0074 12.878L20.0619 13.9213C20.2812 16.0119 21.7168 17.8327 23.7982 18.4813L26.7731 8.93402ZM30.0112 12.9158C30.1901 14.7565 29.2574 16.5381 27.6212 17.4341L22.8181 8.66317C20.9299 9.69718 19.8512 11.7548 20.0581 13.8835L30.0112 12.9158ZM27.6279 17.4305C30.6868 15.7493 32.6396 12.5364 32.6396 8.99965H22.6396C22.6396 8.8169 22.7365 8.708 22.8114 8.66682L27.6279 17.4305ZM32.6396 8.99965C32.6396 3.67923 28.3201 -0.640351 22.9996 -0.640351V9.35965C22.7972 9.35965 22.6396 9.20207 22.6396 8.99965H32.6396ZM22.9996 -0.640351C17.6792 -0.640351 13.3596 3.67923 13.3596 8.99965H23.3596C23.3596 9.20207 23.2021 9.35965 22.9996 9.35965V-0.640351ZM13.3596 8.99965C13.3596 12.5368 15.313 15.7501 18.3736 17.4312L23.1876 8.66614C23.2623 8.70716 23.3596 8.81646 23.3596 8.99965H13.3596ZM18.3791 17.4341C16.7141 16.5224 15.8237 14.734 15.9862 12.947L25.9451 13.8523C26.1336 11.7793 25.0992 9.71292 23.1822 8.66317L18.3791 17.4341ZM15.9926 12.8816C16.1818 11.0645 17.4319 9.49342 19.2272 8.93402L22.2021 18.4813C24.2734 17.8359 25.7195 16.0228 25.9387 13.9177L15.9926 12.8816ZM19.2205 8.93612C13.9294 10.593 10.3596 15.458 10.3596 20.9996H20.3596C20.3596 19.8253 21.0939 18.8283 22.2088 18.4792L19.2205 8.93612ZM10.3596 20.9996V29.9996H20.3596V20.9996H10.3596ZM15.3596 24.9996H14.6396V34.9996H15.3596V24.9996ZM19.6396 29.9996V20.9996H9.63965V29.9996H19.6396ZM19.6396 20.9996C19.6396 20.423 19.7779 19.8932 20.0171 19.4344L11.1502 14.8109C10.1734 16.6841 9.63965 18.7983 9.63965 20.9996H19.6396ZM19.8923 14.5858C18.9597 13.0019 17.7039 11.6501 16.2097 10.6135L10.5096 18.8298C10.8114 19.0392 11.0736 19.3174 11.275 19.6595L19.8923 14.5858ZM8.35965 14.7216V16.9996H18.3596V14.7216H8.35965ZM8.35965 16.9996C8.35965 16.6565 8.61561 16.39 8.94958 16.3625L9.76971 26.3288C14.5757 25.9333 18.3596 21.9088 18.3596 16.9996H8.35965ZM4.35965 21.3456V23.6746H14.3596V21.3456H4.35965ZM8.39454 28.5806C6.95125 28.2967 5.85965 27.0347 5.85965 25.4996H15.8596C15.8596 22.1606 13.476 19.3886 10.3248 18.7687L8.39454 28.5806ZM5.85965 25.4996C5.85965 23.765 7.26247 22.3596 8.99965 22.3596V32.3596C12.7888 32.3596 15.8596 29.2843 15.8596 25.4996H5.85965ZM8.99965 22.3596C10.7368 22.3596 12.1396 23.765 12.1396 25.4996H2.13965C2.13965 29.2843 5.21047 32.3596 8.99965 32.3596V22.3596ZM12.1396 25.4996C12.1396 27.0347 11.048 28.2967 9.60476 28.5806L7.67454 18.7687C4.52325 19.3886 2.13965 22.1606 2.13965 25.4996H12.1396ZM13.6396 23.6746V21.3456H3.63965V23.6746H13.6396ZM9.04971 16.3625C9.38296 16.3899 9.63965 16.6568 9.63965 16.9996H-0.360352C-0.360352 21.9105 3.42434 25.9334 8.22959 26.3288L9.04971 16.3625ZM9.63965 16.9996V14.7186H-0.360352V16.9996H9.63965ZM1.79847 10.6043C-1.56189 12.9248 -3.64035 16.7723 -3.64035 20.9996H6.35965C6.35965 20.093 6.79519 19.3064 7.48083 18.833L1.79847 10.6043ZM-3.64035 20.9996V29.9996H6.35965V20.9996H-3.64035ZM1.35965 24.9996H0.639648V34.9996H1.35965V24.9996ZM5.63965 29.9996V20.9996H-4.36035V29.9996H5.63965ZM5.63965 20.9996C5.63965 19.605 6.45709 18.4096 7.70432 17.8961L3.89697 8.64923C-1.08779 10.7017 -4.36035 15.5423 -4.36035 20.9996H5.63965ZM8.7873 9.26267C8.67687 9.18042 8.63965 9.07381 8.63965 8.99965H-1.36035C-1.36035 12.3055 0.228426 15.3569 2.81399 17.2826L8.7873 9.26267ZM8.63965 8.99965C8.63965 8.86106 8.71864 8.73518 8.84147 8.67517L4.45183 -0.309874C0.906654 1.42212 -1.36035 5.02823 -1.36035 8.99965H8.63965ZM11.6356 3.85005C11.6352 3.84379 11.6396 3.90539 11.6396 3.99965H1.63965C1.63965 4.21791 1.65014 4.40151 1.65772 4.51524L11.6356 3.85005ZM11.6396 3.99965C11.6396 5.46007 10.4601 6.63965 8.99965 6.63965V-3.36035C4.93722 -3.36035 1.63965 -0.0627736 1.63965 3.99965H11.6396ZM8.99965 6.63965C7.53922 6.63965 6.35965 5.46007 6.35965 3.99965H16.3596C16.3596 -0.0627736 13.0621 -3.36035 8.99965 -3.36035V6.63965ZM6.35965 3.99965C6.35965 3.95621 6.36095 3.87503 6.36992 3.76742L16.3354 4.59788C16.3543 4.37027 16.3596 4.16709 16.3596 3.99965H6.35965ZM9.15783 8.67517C9.28065 8.73518 9.35965 8.86106 9.35965 8.99965H19.3596C19.3596 5.02823 17.0926 1.42212 13.5475 -0.309874L9.15783 8.67517ZM9.35965 8.99965C9.35965 9.07477 9.32269 9.18052 9.21193 9.26298L15.1834 17.2843C17.7726 15.3568 19.3596 12.3045 19.3596 8.99965H9.35965ZM10.2896 17.8953C10.9117 18.1521 11.436 18.5845 11.8104 19.1569L20.1789 13.6824C18.7033 11.4268 16.5936 9.67918 14.1057 8.65204L10.2896 17.8953ZM20.1813 19.1532C20.5393 18.6049 21.0601 18.1625 21.7041 17.8976L17.8992 8.64972C15.3592 9.69478 13.256 11.4684 11.808 13.6861L20.1813 19.1532ZM22.7874 9.26298C22.6766 9.18052 22.6396 9.07477 22.6396 8.99965H12.6396C12.6396 12.3045 14.2267 15.3568 16.8159 17.2843L22.7874 9.26298ZM22.6396 8.99965C22.6396 8.80568 22.8055 8.63965 22.9996 8.63965V-1.36035C17.2838 -1.36035 12.6396 3.28162 12.6396 8.99965H22.6396ZM22.9996 8.63965C23.1938 8.63965 23.3596 8.80568 23.3596 8.99965H33.3596C33.3596 3.28162 28.7155 -1.36035 22.9996 -1.36035V8.63965ZM23.3596 8.99965C23.3596 9.07518 23.3225 9.17976 23.2138 9.26056L29.1815 17.2847C31.7728 15.3575 33.3596 12.3041 33.3596 8.99965H23.3596ZM24.294 17.8961C25.5418 18.4099 26.3596 19.6066 26.3596 20.9996H36.3596C36.3596 15.5427 33.0855 10.7014 28.1013 8.64923L24.294 17.8961ZM26.3596 20.9996V29.9996H36.3596V20.9996H26.3596ZM8.99965 19.3596C5.61308 19.3596 2.85965 22.1064 2.85965 25.4996H12.8596C12.8596 27.6349 11.1302 29.3596 8.99965 29.3596V19.3596ZM2.85965 25.4996C2.85965 28.8929 5.61308 31.6396 8.99965 31.6396V21.6396C11.1302 21.6396 12.8596 23.3644 12.8596 25.4996H2.85965ZM8.99965 31.6396C12.3862 31.6396 15.1396 28.8929 15.1396 25.4996H5.13965C5.13965 23.3644 6.86908 21.6396 8.99965 21.6396V31.6396ZM15.1396 25.4996C15.1396 22.1064 12.3862 19.3596 8.99965 19.3596V29.3596C6.86908 29.3596 5.13965 27.6349 5.13965 25.4996H15.1396ZM0.359648 14.2776V16.9996H10.3596V14.2776H0.359648ZM0.359648 16.9996C0.359648 21.7681 4.23122 25.6396 8.99965 25.6396V15.6396C9.75407 15.6396 10.3596 16.2452 10.3596 16.9996H0.359648ZM8.99965 25.6396C13.7681 25.6396 17.6396 21.7681 17.6396 16.9996H7.63965C7.63965 16.2452 8.24522 15.6396 8.99965 15.6396V25.6396ZM17.6396 16.9996V14.2796H7.63965V16.9996H17.6396ZM15.0101 9.87729C14.3055 9.49787 13.559 9.18125 12.7777 8.93679L9.79155 18.4805C9.95626 18.532 10.1158 18.5994 10.2691 18.682L15.0101 9.87729ZM12.7721 8.93502C14.5775 9.49756 15.8171 11.0744 16.0064 12.879L6.06093 13.9223C6.28023 16.0129 7.71584 17.8337 9.79721 18.4823L12.7721 8.93502ZM16.0102 12.9168C16.1891 14.7575 15.2564 16.5391 13.6202 17.4351L8.81707 8.66417C6.92887 9.69818 5.85016 11.7558 6.05711 13.8845L16.0102 12.9168ZM13.6279 17.4309C16.6861 15.7492 18.6396 12.5373 18.6396 8.99965H8.63965C8.63965 8.81602 8.73718 8.70809 8.80939 8.66838L13.6279 17.4309ZM18.6396 8.99965C18.6396 5.41603 16.656 2.15382 13.531 0.489504L8.8303 9.31579C8.71328 9.25347 8.63965 9.13327 8.63965 8.99965H18.6396ZM6.56558 2.9788C6.95479 2.04515 7.88323 1.35965 8.99965 1.35965V11.3596C12.0801 11.3596 14.6945 9.46815 15.7957 6.82649L6.56558 2.9788ZM8.99965 1.35965C10.1161 1.35965 11.0445 2.04515 11.4337 2.9788L2.20358 6.82649C3.30479 9.46815 5.91923 11.3596 8.99965 11.3596V1.35965ZM4.46951 0.488856C1.34098 2.15394 -0.640352 5.41761 -0.640352 8.99965H9.35965C9.35965 9.13169 9.28631 9.25336 9.16778 9.31644L4.46951 0.488856ZM-0.640352 8.99965C-0.640352 12.5368 1.31297 15.7501 4.37365 17.4312L9.18765 8.66614C9.26233 8.70716 9.35965 8.81646 9.35965 8.99965H-0.640352ZM4.37908 17.4341C2.73827 16.5356 1.80942 14.7512 1.98944 12.9125L11.9419 13.8868C12.1499 11.7621 11.075 9.6997 9.18222 8.66317L4.37908 17.4341ZM1.99256 12.8816C2.18184 11.0645 3.43193 9.49342 5.22721 8.93402L8.20208 18.4813C10.2734 17.8359 11.7195 16.0228 11.9387 13.9177L1.99256 12.8816ZM5.22099 8.93596C4.43914 9.1807 3.69383 9.49648 2.99223 9.87363L7.72706 18.6817C7.87746 18.6008 8.03815 18.5326 8.20831 18.4793L5.22099 8.93596ZM8.99965 -2.64035C5.33422 -2.64035 2.35965 0.334228 2.35965 3.99965H12.3596C12.3596 5.85707 10.8571 7.35965 8.99965 7.35965V-2.64035ZM2.35965 3.99965C2.35965 7.66507 5.33422 10.6396 8.99965 10.6396V0.639648C10.8571 0.639648 12.3596 2.14223 12.3596 3.99965H2.35965ZM8.99965 10.6396C12.6651 10.6396 15.6396 7.66507 15.6396 3.99965H5.63965C5.63965 2.14222 7.14223 0.639648 8.99965 0.639648V10.6396ZM15.6396 3.99965C15.6396 0.334225 12.6651 -2.64035 8.99965 -2.64035V7.35965C7.14222 7.35965 5.63965 5.85707 5.63965 3.99965H15.6396ZM22.9996 20.3596C24.1592 20.3596 25.3611 20.8 26.2802 21.7191L19.2091 28.7902C20.2682 29.8493 21.6561 30.3596 22.9996 30.3596V20.3596ZM26.2802 21.7191L23.3072 18.7461L16.2361 25.8172L19.2091 28.7902L26.2802 21.7191ZM23.3116 18.7505C23.8391 19.2793 24.1426 20.0049 24.1466 20.7561L14.1467 20.8092C14.1567 22.6904 14.9042 24.482 16.2317 25.8128L23.3116 18.7505ZM24.1466 20.7652C24.1493 21.5274 23.843 22.2617 23.3159 22.7915L16.2274 15.7378C14.8903 17.0815 14.14 18.8939 14.1467 20.8001L24.1466 20.7652ZM23.3072 22.8002C22.7732 23.3341 22.0426 23.636 21.2943 23.6386L21.259 13.6387C19.3747 13.6453 17.5741 14.3912 16.2361 15.7291L23.3072 22.8002ZM21.2766 23.6386C21.2767 23.6386 21.2767 23.6386 21.2767 23.6386C21.2767 23.6386 21.2767 23.6386 21.2767 23.6386C21.2767 23.6386 21.2767 23.6386 21.2767 23.6386C21.2767 23.6386 21.2767 23.6386 21.2767 23.6386C21.2767 23.6386 21.2767 23.6386 21.2767 23.6386C21.2767 23.6386 21.2767 23.6386 21.2767 23.6386C21.2767 23.6386 21.2767 23.6386 21.2767 23.6386C21.2767 23.6386 21.2767 23.6386 21.2767 23.6386C21.2767 23.6386 21.2767 23.6386 21.2768 23.6386C21.2768 23.6386 21.2768 23.6386 21.2768 23.6386C21.2768 23.6386 21.2768 23.6386 21.2768 23.6386C21.2768 23.6386 21.2768 23.6386 21.2768 23.6386C21.2768 23.6386 21.2768 23.6386 21.2768 23.6386C21.2768 23.6386 21.2768 23.6386 21.2768 23.6386C21.2768 23.6386 21.2768 23.6386 21.2768 23.6386C21.2768 23.6386 21.2768 23.6386 21.2768 23.6386C21.2768 23.6386 21.2768 23.6386 21.2768 23.6386C21.2768 23.6386 21.2769 23.6386 21.2769 23.6386C21.2769 23.6386 21.2769 23.6386 21.2769 23.6386C21.2769 23.6386 21.2769 23.6386 21.2769 23.6386C21.2769 23.6386 21.2769 23.6386 21.2769 23.6386C21.2769 23.6386 21.2769 23.6386 21.2769 23.6386C21.2769 23.6386 21.2769 23.6386 21.2769 23.6386C21.2769 23.6386 21.2769 23.6386 21.2769 23.6386C21.2769 23.6386 21.2769 23.6386 21.2769 23.6386C21.2769 23.6386 21.2769 23.6386 21.2769 23.6386C21.2769 23.6386 21.277 23.6386 21.277 23.6386C21.277 23.6386 21.277 23.6386 21.277 23.6386C21.277 23.6386 21.277 23.6386 21.277 23.6386C21.277 23.6386 21.277 23.6386 21.277 23.6386C21.277 23.6386 21.277 23.6386 21.277 23.6386C21.277 23.6386 21.277 23.6386 21.277 23.6386C21.277 23.6386 21.277 23.6386 21.277 23.6386C21.277 23.6386 21.277 23.6386 21.277 23.6386C21.277 23.6386 21.277 23.6386 21.277 23.6386C21.277 23.6386 21.2771 23.6386 21.2771 23.6386C21.2771 23.6386 21.2771 23.6386 21.2771 23.6386C21.2771 23.6386 21.2771 23.6386 21.2771 23.6386C21.2771 23.6386 21.2771 23.6386 21.2771 23.6386C21.2771 23.6386 21.2771 23.6386 21.2771 23.6386C21.2771 23.6386 21.2771 23.6386 21.2771 23.6386C21.2771 23.6386 21.2771 23.6386 21.2771 23.6386C21.2771 23.6386 21.2771 23.6386 21.2771 23.6386C21.2771 23.6386 21.2771 23.6386 21.2771 23.6386C21.2771 23.6386 21.2772 23.6386 21.2772 23.6386C21.2772 23.6386 21.2772 23.6386 21.2772 23.6386C21.2772 23.6386 21.2772 23.6386 21.2772 23.6386C21.2772 23.6386 21.2772 23.6386 21.2772 23.6386C21.2772 23.6386 21.2772 23.6386 21.2772 23.6386C21.2772 23.6386 21.2772 23.6386 21.2772 23.6386C21.2772 23.6386 21.2772 23.6386 21.2772 23.6386C21.2772 23.6386 21.2772 23.6386 21.2772 23.6386C21.2772 23.6386 21.2772 23.6386 21.2772 23.6386C21.2772 23.6386 21.2772 23.6386 21.2773 23.6386C21.2773 23.6386 21.2773 23.6386 21.2773 23.6386C21.2773 23.6386 21.2773 23.6386 21.2773 23.6386C21.2773 23.6386 21.2773 23.6386 21.2773 23.6386C21.2773 23.6386 21.2773 23.6386 21.2773 23.6386C21.2773 23.6386 21.2773 23.6386 21.2773 23.6386C21.2773 23.6386 21.2773 23.6386 21.2773 23.6386C21.2773 23.6386 21.2773 23.6386 21.2773 23.6386C21.2773 23.6386 21.2773 23.6386 21.2773 23.6386C21.2773 23.6386 21.2773 23.6386 21.2773 23.6386C21.2773 23.6386 21.2774 23.6386 21.2774 23.6386C21.2774 23.6386 21.2774 23.6386 21.2774 23.6386C21.2774 23.6386 21.2774 23.6386 21.2774 23.6386C21.2774 23.6386 21.2774 23.6386 21.2774 23.6386C21.2774 23.6386 21.2774 23.6386 21.2774 23.6386C21.2774 23.6386 21.2774 23.6386 21.2774 23.6386C21.2774 23.6386 21.2774 23.6386 21.2774 23.6386C21.2774 23.6386 21.2774 23.6386 21.2774 23.6386C21.2774 23.6386 21.2774 23.6386 21.2774 23.6386C21.2774 23.6386 21.2774 23.6386 21.2774 23.6386C21.2775 23.6386 21.2775 23.6386 21.2775 23.6386C21.2775 23.6386 21.2775 23.6386 21.2775 23.6386C21.2775 23.6386 21.2775 23.6386 21.2775 23.6386C21.2775 23.6386 21.2775 23.6386 21.2775 23.6386C21.2775 23.6386 21.2775 23.6386 21.2775 23.6386C21.2775 23.6386 21.2775 23.6386 21.2775 23.6386C21.2775 23.6386 21.2775 23.6386 21.2775 23.6386C21.2775 23.6386 21.2775 23.6386 21.2775 23.6386C21.2775 23.6386 21.2775 23.6386 21.2775 23.6386C21.2775 23.6386 21.2775 23.6386 21.2775 23.6386C21.2776 23.6386 21.2776 23.6386 21.2776 23.6386C21.2776 23.6386 21.2776 23.6386 21.2776 23.6386C21.2776 23.6386 21.2776 23.6386 21.2776 23.6386C21.2776 23.6386 21.2776 23.6386 21.2776 23.6386C21.2776 23.6386 21.2776 23.6386 21.2776 23.6386C21.2776 23.6386 21.2776 23.6386 21.2776 23.6386C21.2776 23.6386 21.2776 23.6386 21.2776 23.6386C21.2776 23.6386 21.2776 23.6386 21.2776 23.6386C21.2776 23.6386 21.2776 23.6386 21.2776 23.6386C21.2776 23.6386 21.2776 23.6386 21.2777 23.6386C21.2777 23.6386 21.2777 23.6386 21.2777 23.6386C21.2777 23.6386 21.2777 23.6386 21.2777 23.6386C21.2777 23.6386 21.2777 23.6386 21.2777 23.6386C21.2777 23.6386 21.2777 23.6386 21.2777 23.6386C21.2777 23.6386 21.2777 23.6386 21.2777 23.6386C21.2777 23.6386 21.2777 23.6386 21.2777 23.6386C21.2777 23.6386 21.2777 23.6386 21.2777 23.6386C21.2777 23.6386 21.2777 23.6386 21.2777 23.6386C21.2777 23.6386 21.2777 23.6386 21.2777 23.6386C21.2777 23.6386 21.2777 23.6386 21.2778 23.6386C21.2778 23.6386 21.2778 23.6386 21.2778 23.6386C21.2778 23.6386 21.2778 23.6386 21.2778 23.6386C21.2778 23.6386 21.2778 23.6386 21.2778 23.6386C21.2778 23.6386 21.2778 23.6386 21.2778 23.6386C21.2778 23.6386 21.2778 23.6386 21.2778 23.6386C21.2778 23.6386 21.2778 23.6386 21.2778 23.6386C21.2778 23.6386 21.2778 23.6386 21.2778 23.6386C21.2778 23.6386 21.2778 23.6386 21.2778 23.6386C21.2778 23.6386 21.2778 23.6386 21.2778 23.6386C21.2778 23.6386 21.2778 23.6386 21.2778 23.6386C21.2779 23.6386 21.2779 23.6386 21.2779 23.6386C21.2779 23.6386 21.2779 23.6386 21.2779 23.6386C21.2779 23.6386 21.2779 23.6386 21.2779 23.6386C21.2779 23.6386 21.2779 23.6386 21.2779 23.6386C21.2779 23.6386 21.2779 23.6386 21.2779 23.6386C21.2779 23.6386 21.2779 23.6386 21.2779 23.6386C21.2779 23.6386 21.2779 23.6386 21.2779 23.6386C21.2779 23.6386 21.2779 23.6386 21.2779 23.6386C21.2779 23.6386 21.2779 23.6386 21.2779 23.6386C21.2779 23.6386 21.2779 23.6386 21.2779 23.6386C21.2779 23.6386 21.278 23.6386 21.278 23.6386C21.278 23.6386 21.278 23.6386 21.278 23.6386C21.278 23.6386 21.278 23.6386 21.278 23.6386C21.278 23.6386 21.278 23.6386 21.278 23.6386C21.278 23.6386 21.278 23.6386 21.278 23.6386C21.278 23.6386 21.278 23.6386 21.278 23.6386C21.278 23.6386 21.278 23.6386 21.278 23.6386C21.278 23.6386 21.278 23.6386 21.278 23.6386C21.278 23.6386 21.278 23.6386 21.278 23.6386C21.278 23.6386 21.278 23.6386 21.278 23.6386C21.278 23.6386 21.278 23.6386 21.278 23.6386C21.2781 23.6386 21.2781 23.6386 21.2781 23.6386C21.2781 23.6386 21.2781 23.6386 21.2781 23.6386C21.2781 23.6386 21.2781 23.6386 21.2781 23.6386C21.2781 23.6386 21.2781 23.6386 21.2781 23.6386C21.2781 23.6386 21.2781 23.6386 21.2781 23.6386C21.2781 23.6386 21.2781 23.6386 21.2781 23.6386C21.2781 23.6386 21.2781 23.6386 21.2781 23.6386C21.2781 23.6386 21.2781 23.6386 21.2781 23.6386C21.2781 23.6386 21.2781 23.6386 21.2781 23.6386C21.2781 23.6386 21.2781 23.6386 21.2781 23.6386C21.2781 23.6386 21.2781 23.6386 21.2782 23.6386C21.2782 23.6386 21.2782 23.6386 21.2782 23.6386C21.2782 23.6386 21.2782 23.6386 21.2782 23.6386C21.2782 23.6386 21.2782 23.6386 21.2782 23.6386C21.2782 23.6386 21.2782 23.6386 21.2782 23.6386C21.2782 23.6386 21.2782 23.6386 21.2782 23.6386C21.2782 23.6386 21.2782 23.6386 21.2782 23.6386C21.2782 23.6386 21.2782 23.6386 21.2782 23.6386C21.2782 23.6386 21.2782 23.6386 21.2782 23.6386C21.2782 23.6386 21.2782 23.6386 21.2782 23.6386C21.2782 23.6386 21.2782 23.6386 21.2782 23.6386C21.2782 23.6386 21.2783 23.6386 21.2783 23.6386C21.2783 23.6386 21.2783 23.6386 21.2783 23.6386C21.2783 23.6386 21.2783 23.6386 21.2783 23.6386C21.2783 23.6386 21.2783 23.6386 21.2783 23.6386C21.2783 23.6386 21.2783 23.6386 21.2783 23.6386C21.2783 23.6386 21.2783 23.6386 21.2783 23.6386C21.2783 23.6386 21.2783 23.6386 21.2783 23.6386C21.2783 23.6386 21.2783 23.6386 21.2783 23.6386C21.2783 23.6386 21.2783 23.6386 21.2783 23.6386C21.2783 23.6386 21.2783 23.6386 21.2783 23.6386C21.2783 23.6386 21.2783 23.6386 21.2783 23.6386C21.2783 23.6386 21.2784 23.6386 21.2784 23.6386C21.2784 23.6386 21.2784 23.6386 21.2784 23.6386C21.2784 23.6386 21.2784 23.6386 21.2784 23.6386C21.2784 23.6386 21.2784 23.6386 21.2784 23.6386C21.2784 23.6386 21.2784 23.6386 21.2784 23.6386C21.2784 23.6386 21.2784 23.6386 21.2784 23.6386C21.2784 23.6386 21.2784 23.6386 21.2784 23.6386C21.2784 23.6386 21.2784 23.6386 21.2784 23.6386C21.2784 23.6386 21.2784 23.6386 21.2784 23.6386C21.2784 23.6386 21.2784 23.6386 21.2784 23.6386C21.2784 23.6386 21.2784 23.6386 21.2784 23.6386C21.2785 23.6386 21.2785 23.6386 21.2785 23.6386C21.2785 23.6386 21.2785 23.6386 21.2785 23.6386C21.2785 23.6386 21.2785 23.6386 21.2785 23.6386C21.2785 23.6386 21.2785 23.6386 21.2785 23.6386C21.2785 23.6386 21.2785 23.6386 21.2785 23.6386C21.2785 23.6386 21.2785 23.6386 21.2785 23.6386C21.2785 23.6386 21.2785 23.6386 21.2785 23.6386C21.2785 23.6386 21.2785 23.6386 21.2785 23.6386C21.2785 23.6386 21.2785 23.6386 21.2785 23.6386C21.2785 23.6386 21.2785 23.6386 21.2785 23.6386C21.2785 23.6386 21.2785 23.6386 21.2785 23.6386C21.2785 23.6386 21.2786 23.6386 21.2786 23.6386C21.2786 23.6386 21.2786 23.6386 21.2786 23.6386C21.2786 23.6386 21.2786 23.6386 21.2786 23.6386C21.2786 23.6386 21.2786 23.6386 21.2786 23.6386C21.2786 23.6386 21.2786 23.6386 21.2786 23.6386C21.2786 23.6386 21.2786 23.6386 21.2786 23.6386C21.2786 23.6386 21.2786 23.6386 21.2786 23.6386C21.2786 23.6386 21.2786 23.6386 21.2786 23.6386C21.2786 23.6386 21.2786 23.6386 21.2786 23.6386C21.2786 23.6386 21.2786 23.6386 21.2786 23.6386C21.2786 23.6386 21.2786 23.6386 21.2786 23.6386C21.2786 23.6386 21.2787 23.6386 21.2787 23.6386C21.2787 23.6386 21.2787 23.6386 21.2787 23.6386C21.2787 23.6386 21.2787 23.6386 21.2787 23.6386C21.2787 23.6386 21.2787 23.6386 21.2787 23.6386C21.2787 23.6386 21.2787 23.6386 21.2787 23.6386C21.2787 23.6386 21.2787 23.6386 21.2787 23.6386C21.2787 23.6386 21.2787 23.6386 21.2787 23.6386C21.2787 23.6386 21.2787 23.6386 21.2787 23.6386C21.2787 23.6386 21.2787 23.6386 21.2787 23.6386C21.2787 23.6386 21.2787 23.6386 21.2787 23.6386C21.2787 23.6386 21.2787 23.6386 21.2787 23.6386C21.2787 23.6386 21.2787 23.6386 21.2788 23.6386C21.2788 23.6386 21.2788 23.6386 21.2788 23.6386C21.2788 23.6386 21.2788 23.6386 21.2788 23.6386C21.2788 23.6386 21.2788 23.6386 21.2788 23.6386C21.2788 23.6386 21.2788 23.6386 21.2788 23.6386C21.2788 23.6386 21.2788 23.6386 21.2788 23.6386C21.2788 23.6386 21.2788 23.6386 21.2788 23.6386C21.2788 23.6386 21.2788 23.6386 21.2788 23.6386C21.2788 23.6386 21.2788 23.6386 21.2788 23.6386C21.2788 23.6386 21.2788 23.6386 21.2788 23.6386C21.2788 23.6386 21.2788 23.6386 21.2788 23.6386C21.2788 23.6386 21.2788 23.6386 21.2788 23.6386C21.2789 23.6386 21.2789 23.6386 21.2789 23.6386C21.2789 23.6386 21.2789 23.6386 21.2789 23.6386C21.2789 23.6386 21.2789 23.6386 21.2789 23.6386C21.2789 23.6386 21.2789 23.6386 21.2789 23.6386C21.2789 23.6386 21.2789 23.6386 21.2789 23.6386C21.2789 23.6386 21.2789 23.6386 21.2789 23.6386C21.2789 23.6386 21.2789 23.6386 21.2789 23.6386C21.2789 23.6386 21.2789 23.6386 21.2789 23.6386C21.2789 23.6386 21.2789 23.6386 21.2789 23.6386C21.2789 23.6386 21.2789 23.6386 21.2789 23.6386C21.2789 23.6386 21.2789 23.6386 21.2789 23.6386C21.2789 23.6386 21.279 23.6386 21.279 23.6386C21.279 23.6386 21.279 23.6386 21.279 23.6386C21.279 23.6386 21.279 23.6386 21.279 23.6386C21.279 23.6386 21.279 23.6386 21.279 23.6386C21.279 23.6386 21.279 23.6386 21.279 23.6386C21.279 23.6386 21.279 23.6386 21.279 23.6386C21.279 23.6386 21.279 23.6386 21.279 23.6386C21.279 23.6386 21.279 23.6386 21.279 23.6386C21.279 23.6386 21.279 23.6386 21.279 23.6386C21.279 23.6386 21.279 23.6386 21.279 23.6386C21.279 23.6386 21.279 23.6386 21.279 23.6386C21.279 23.6386 21.279 23.6386 21.2791 23.6386C21.2791 23.6386 21.2791 23.6386 21.2791 23.6386C21.2791 23.6386 21.2791 23.6386 21.2791 23.6386C21.2791 23.6386 21.2791 23.6386 21.2791 23.6386C21.2791 23.6386 21.2791 23.6386 21.2791 23.6386C21.2791 23.6386 21.2791 23.6386 21.2791 23.6386C21.2791 23.6386 21.2791 23.6386 21.2791 23.6386C21.2791 23.6386 21.2791 23.6386 21.2791 23.6386C21.2791 23.6386 21.2791 23.6386 21.2791 23.6386C21.2791 23.6386 21.2791 23.6386 21.2791 23.6386C21.2791 23.6386 21.2791 23.6386 21.2791 23.6386C21.2791 23.6386 21.2791 23.6386 21.2791 23.6386C21.2792 23.6386 21.2792 23.6386 21.2792 23.6386C21.2792 23.6386 21.2792 23.6386 21.2792 23.6386C21.2792 23.6386 21.2792 23.6386 21.2792 23.6386C21.2792 23.6386 21.2792 23.6386 21.2792 23.6386C21.2792 23.6386 21.2792 23.6386 21.2792 23.6386C21.2792 23.6386 21.2792 23.6386 21.2792 23.6386C21.2792 23.6386 21.2792 23.6386 21.2792 23.6386C21.2792 23.6386 21.2792 23.6386 21.2792 23.6386C21.2792 23.6386 21.2792 23.6386 21.2792 23.6386C21.2792 23.6386 21.2792 23.6386 21.2792 23.6386C21.2792 23.6386 21.2792 23.6386 21.2792 23.6386C21.2792 23.6386 21.2793 23.6386 21.2793 23.6386C21.2793 23.6386 21.2793 23.6386 21.2793 23.6386C21.2793 23.6386 21.2793 23.6386 21.2793 23.6386C21.2793 23.6386 21.2793 23.6386 21.2793 23.6386C21.2793 23.6386 21.2793 23.6386 21.2793 23.6386C21.2793 23.6386 21.2793 23.6386 21.2793 23.6386C21.2793 23.6386 21.2793 23.6386 21.2793 23.6386C21.2793 23.6386 21.2793 23.6386 21.2793 23.6386C21.2793 23.6386 21.2793 23.6386 21.2793 23.6386C21.2793 23.6386 21.2793 23.6386 21.2793 23.6386C21.2793 23.6386 21.2793 23.6386 21.2793 23.6386C21.2793 23.6386 21.2793 23.6386 21.2794 23.6386C21.2794 23.6386 21.2794 23.6386 21.2794 23.6386C21.2794 23.6386 21.2794 23.6386 21.2794 23.6386C21.2794 23.6386 21.2794 23.6386 21.2794 23.6386C21.2794 23.6386 21.2794 23.6386 21.2794 23.6386C21.2794 23.6386 21.2794 23.6386 21.2794 23.6386C21.2794 23.6386 21.2794 23.6386 21.2794 23.6386C21.2794 23.6386 21.2794 23.6386 21.2794 23.6386C21.2794 23.6386 21.2794 23.6386 21.2794 23.6386C21.2794 23.6386 21.2794 23.6386 21.2794 23.6386C21.2794 23.6386 21.2794 23.6386 21.2794 23.6386C21.2794 23.6386 21.2794 23.6386 21.2794 23.6386C21.2794 23.6386 21.2795 23.6386 21.2795 23.6386C21.2795 23.6386 21.2795 23.6386 21.2795 23.6386C21.2795 23.6386 21.2795 23.6386 21.2795 23.6386C21.2795 23.6386 21.2795 23.6386 21.2795 23.6386C21.2795 23.6386 21.2795 23.6386 21.2795 23.6386C21.2795 23.6386 21.2795 23.6386 21.2795 23.6386C21.2795 23.6386 21.2795 23.6386 21.2795 23.6386C21.2795 23.6386 21.2795 23.6386 21.2795 23.6386C21.2795 23.6386 21.2795 23.6386 21.2795 23.6386C21.2795 23.6386 21.2795 23.6386 21.2795 23.6386C21.2795 23.6386 21.2795 23.6386 21.2795 23.6386C21.2795 23.6386 21.2796 23.6386 21.2796 23.6386C21.2796 23.6386 21.2796 23.6386 21.2796 23.6386C21.2796 23.6386 21.2796 23.6386 21.2796 23.6386C21.2796 23.6386 21.2796 23.6386 21.2796 23.6386C21.2796 23.6386 21.2796 23.6386 21.2796 23.6386C21.2796 23.6386 21.2796 23.6386 21.2796 23.6386C21.2796 23.6386 21.2796 23.6386 21.2796 23.6386C21.2796 23.6386 21.2796 23.6386 21.2796 23.6386C21.2796 23.6386 21.2796 23.6386 21.2796 23.6386C21.2796 23.6386 21.2796 23.6386 21.2796 23.6386C21.2796 23.6386 21.2796 23.6386 21.2796 23.6386C21.2796 23.6386 21.2796 23.6386 21.2797 23.6386C21.2797 23.6386 21.2797 23.6386 21.2797 23.6386C21.2797 23.6386 21.2797 23.6386 21.2797 23.6386C21.2797 23.6386 21.2797 23.6386 21.2797 23.6386C21.2797 23.6386 21.2797 23.6386 21.2797 23.6386C21.2797 23.6386 21.2797 23.6386 21.2797 23.6386C21.2797 23.6386 21.2797 23.6386 21.2797 23.6386C21.2797 23.6386 21.2797 23.6386 21.2797 23.6386C21.2797 23.6386 21.2797 23.6386 21.2797 23.6386C21.2797 23.6386 21.2797 23.6386 21.2797 23.6386C21.2797 23.6386 21.2797 23.6386 21.2797 23.6386C21.2797 23.6386 21.2797 23.6386 21.2798 23.6386C21.2798 23.6386 21.2798 23.6386 21.2798 23.6386C21.2798 23.6386 21.2798 23.6386 21.2798 23.6386C21.2798 23.6386 21.2798 23.6386 21.2798 23.6386C21.2798 23.6386 21.2798 23.6386 21.2798 23.6386C21.2798 23.6386 21.2798 23.6386 21.2798 23.6386C21.2798 23.6386 21.2798 23.6386 21.2798 23.6386C21.2798 23.6386 21.2798 23.6386 21.2798 23.6386C21.2798 23.6386 21.2798 23.6386 21.2798 23.6386C21.2798 23.6386 21.2798 23.6386 21.2798 23.6386C21.2798 23.6386 21.2798 23.6386 21.2798 23.6386C21.2798 23.6386 21.2798 23.6386 21.2799 23.6386C21.2799 23.6386 21.2799 23.6386 21.2799 23.6386C21.2799 23.6386 21.2799 23.6386 21.2799 23.6386C21.2799 23.6386 21.2799 23.6386 21.2799 23.6386C21.2799 23.6386 21.2799 23.6386 21.2799 23.6386C21.2799 23.6386 21.2799 23.6386 21.2799 23.6386C21.2799 23.6386 21.2799 23.6386 21.2799 23.6386C21.2799 23.6386 21.2799 23.6386 21.2799 23.6386C21.2799 23.6386 21.2799 23.6386 21.2799 23.6386C21.2799 23.6386 21.2799 23.6386 21.2799 23.6386C21.2799 23.6386 21.2799 23.6386 21.2799 23.6386C21.2799 23.6386 21.2799 23.6386 21.2799 23.6386C21.28 23.6386 21.28 23.6386 21.28 23.6386C21.28 23.6386 21.28 23.6386 21.28 23.6386C21.28 23.6386 21.28 23.6386 21.28 23.6386C21.28 23.6386 21.28 23.6386 21.28 23.6386C21.28 23.6386 21.28 23.6386 21.28 23.6386C21.28 23.6386 21.28 23.6386 21.28 23.6386C21.28 23.6386 21.28 23.6386 21.28 23.6386C21.28 23.6386 21.28 23.6386 21.28 23.6386C21.28 23.6386 21.28 23.6386 21.28 23.6386C21.28 23.6386 21.28 23.6386 21.28 23.6386C21.28 23.6386 21.28 23.6386 21.2801 23.6386C21.2801 23.6386 21.2801 23.6386 21.2801 23.6386C21.2801 23.6386 21.2801 23.6386 21.2801 23.6386C21.2801 23.6386 21.2801 23.6386 21.2801 23.6386C21.2801 23.6386 21.2801 23.6386 21.2801 23.6386C21.2801 23.6386 21.2801 23.6386 21.2801 23.6386C21.2801 23.6386 21.2801 23.6386 21.2801 23.6386C21.2801 23.6386 21.2801 23.6386 21.2801 23.6386C21.2801 23.6386 21.2801 23.6386 21.2801 23.6386C21.2801 23.6386 21.2801 23.6386 21.2801 23.6386C21.2801 23.6386 21.2801 23.6386 21.2801 23.6386C21.2801 23.6386 21.2801 23.6386 21.2802 23.6386C21.2802 23.6386 21.2802 23.6386 21.2802 23.6386C21.2802 23.6386 21.2802 23.6386 21.2802 23.6386C21.2802 23.6386 21.2802 23.6386 21.2802 23.6386C21.2802 23.6386 21.2802 23.6386 21.2802 23.6386C21.2802 23.6386 21.2802 23.6386 21.2802 23.6386C21.2802 23.6386 21.2802 23.6386 21.2802 23.6386C21.2802 23.6386 21.2802 23.6386 21.2802 23.6386C21.2802 23.6386 21.2802 23.6386 21.2802 23.6386C21.2802 23.6386 21.2802 23.6386 21.2802 23.6386C21.2802 23.6386 21.2802 23.6386 21.2802 23.6386C21.2803 23.6386 21.2803 23.6386 21.2803 23.6386C21.2803 23.6386 21.2803 23.6386 21.2803 23.6386C21.2803 23.6386 21.2803 23.6386 21.2803 23.6386C21.2803 23.6386 21.2803 23.6386 21.2803 23.6386C21.2803 23.6386 21.2803 23.6386 21.2803 23.6386C21.2803 23.6386 21.2803 23.6386 21.2803 23.6386C21.2803 23.6386 21.2803 23.6386 21.2803 23.6386C21.2803 23.6386 21.2803 23.6386 21.2803 23.6386C21.2803 23.6386 21.2803 23.6386 21.2803 23.6386C21.2803 23.6386 21.2803 23.6386 21.2803 23.6386C21.2803 23.6386 21.2803 23.6386 21.2804 23.6386C21.2804 23.6386 21.2804 23.6386 21.2804 23.6386C21.2804 23.6386 21.2804 23.6386 21.2804 23.6386C21.2804 23.6386 21.2804 23.6386 21.2804 23.6386C21.2804 23.6386 21.2804 23.6386 21.2804 23.6386C21.2804 23.6386 21.2804 23.6386 21.2804 23.6386C21.2804 23.6386 21.2804 23.6386 21.2804 23.6386C21.2804 23.6386 21.2804 23.6386 21.2804 23.6386C21.2804 23.6386 21.2804 23.6386 21.2804 23.6386C21.2804 23.6386 21.2804 23.6386 21.2804 23.6386C21.2804 23.6386 21.2804 23.6386 21.2804 23.6386C21.2805 23.6386 21.2805 23.6386 21.2805 23.6386C21.2805 23.6386 21.2805 23.6386 21.2805 23.6386C21.2805 23.6386 21.2805 23.6386 21.2805 23.6386C21.2805 23.6386 21.2805 23.6386 21.2805 23.6386C21.2805 23.6386 21.2805 23.6386 21.2805 23.6386C21.2805 23.6386 21.2805 23.6386 21.2805 23.6386C21.2805 23.6386 21.2805 23.6386 21.2805 23.6386C21.2805 23.6386 21.2805 23.6386 21.2805 23.6386C21.2805 23.6386 21.2805 23.6386 21.2805 23.6386C21.2805 23.6386 21.2805 23.6386 21.2805 23.6386C21.2805 23.6386 21.2806 23.6386 21.2806 23.6386C21.2806 23.6386 21.2806 23.6386 21.2806 23.6386C21.2806 23.6386 21.2806 23.6386 21.2806 23.6386C21.2806 23.6386 21.2806 23.6386 21.2806 23.6386C21.2806 23.6386 21.2806 23.6386 21.2806 23.6386C21.2806 23.6386 21.2806 23.6386 21.2806 23.6386C21.2806 23.6386 21.2806 23.6386 21.2806 23.6386C21.2806 23.6386 21.2806 23.6386 21.2806 23.6386C21.2806 23.6386 21.2806 23.6386 21.2806 23.6386C21.2806 23.6386 21.2806 23.6386 21.2806 23.6386C21.2806 23.6386 21.2807 23.6386 21.2807 23.6386C21.2807 23.6386 21.2807 23.6386 21.2807 23.6386C21.2807 23.6386 21.2807 23.6386 21.2807 23.6386C21.2807 23.6386 21.2807 23.6386 21.2807 23.6386C21.2807 23.6386 21.2807 23.6386 21.2807 23.6386C21.2807 23.6386 21.2807 23.6386 21.2807 23.6386C21.2807 23.6386 21.2807 23.6386 21.2807 23.6386C21.2807 23.6386 21.2807 23.6386 21.2807 23.6386C21.2807 23.6386 21.2807 23.6386 21.2807 23.6386C21.2807 23.6386 21.2807 23.6386 21.2807 23.6386C21.2807 23.6386 21.2808 23.6386 21.2808 23.6386C21.2808 23.6386 21.2808 23.6386 21.2808 23.6386C21.2808 23.6386 21.2808 23.6386 21.2808 23.6386C21.2808 23.6386 21.2808 23.6386 21.2808 23.6386C21.2808 23.6386 21.2808 23.6386 21.2808 23.6386C21.2808 23.6386 21.2808 23.6386 21.2808 23.6386C21.2808 23.6386 21.2808 23.6386 21.2808 23.6386C21.2808 23.6386 21.2808 23.6386 21.2808 23.6386C21.2808 23.6386 21.2808 23.6386 21.2808 23.6386C21.2808 23.6386 21.2808 23.6386 21.2808 23.6386C21.2809 23.6386 21.2809 23.6386 21.2809 23.6386C21.2809 23.6386 21.2809 23.6386 21.2809 23.6386C21.2809 23.6386 21.2809 23.6386 21.2809 23.6386C21.2809 23.6386 21.2809 23.6386 21.2809 23.6386C21.2809 23.6386 21.2809 23.6386 21.2809 23.6386C21.2809 23.6386 21.2809 23.6386 21.2809 23.6386C21.2809 23.6386 21.2809 23.6386 21.2809 23.6386C21.2809 23.6386 21.2809 23.6386 21.2809 23.6386C21.2809 23.6386 21.2809 23.6386 21.2809 23.6386C21.2809 23.6386 21.2809 23.6386 21.281 23.6386C21.281 23.6386 21.281 23.6386 21.281 23.6386C21.281 23.6386 21.281 23.6386 21.281 23.6386C21.281 23.6386 21.281 23.6386 21.281 23.6386C21.281 23.6386 21.281 23.6386 21.281 23.6386C21.281 23.6386 21.281 23.6386 21.281 23.6386C21.281 23.6386 21.281 23.6386 21.281 23.6386C21.281 23.6386 21.281 23.6386 21.281 23.6386C21.281 23.6386 21.281 23.6386 21.281 23.6386C21.281 23.6386 21.281 23.6386 21.281 23.6386C21.281 23.6386 21.2811 23.6386 21.2811 23.6386C21.2811 23.6386 21.2811 23.6386 21.2811 23.6386C21.2811 23.6386 21.2811 23.6386 21.2811 23.6386C21.2811 23.6386 21.2811 23.6386 21.2811 23.6386C21.2811 23.6386 21.2811 23.6386 21.2811 23.6386C21.2811 23.6386 21.2811 23.6386 21.2811 23.6386C21.2811 23.6386 21.2811 23.6386 21.2811 23.6386C21.2811 23.6386 21.2811 23.6386 21.2811 23.6386C21.2811 23.6386 21.2811 23.6386 21.2811 23.6386C21.2811 23.6386 21.2811 23.6386 21.2812 23.6386C21.2812 23.6386 21.2812 23.6386 21.2812 23.6386C21.2812 23.6386 21.2812 23.6386 21.2812 23.6386C21.2812 23.6386 21.2812 23.6386 21.2812 23.6386C21.2812 23.6386 21.2812 23.6386 21.2812 23.6386C21.2812 23.6386 21.2812 23.6386 21.2812 23.6386C21.2812 23.6386 21.2812 23.6386 21.2812 23.6386C21.2812 23.6386 21.2812 23.6386 21.2812 23.6386C21.2812 23.6386 21.2812 23.6386 21.2812 23.6386C21.2812 23.6386 21.2812 23.6386 21.2812 23.6386C21.2813 23.6386 21.2813 23.6386 21.2813 23.6386C21.2813 23.6386 21.2813 23.6386 21.2813 23.6386C21.2813 23.6386 21.2813 23.6386 21.2813 23.6386C21.2813 23.6386 21.2813 23.6386 21.2813 23.6386C21.2813 23.6386 21.2813 23.6386 21.2813 23.6386C21.2813 23.6386 21.2813 23.6386 21.2813 23.6386C21.2813 23.6386 21.2813 23.6386 21.2813 23.6386C21.2813 23.6386 21.2813 23.6386 21.2813 23.6386C21.2813 23.6386 21.2813 23.6386 21.2814 23.6386C21.2814 23.6386 21.2814 23.6386 21.2814 23.6386C21.2814 23.6386 21.2814 23.6386 21.2814 23.6386C21.2814 23.6386 21.2814 23.6386 21.2814 23.6386C21.2814 23.6386 21.2814 23.6386 21.2814 23.6386C21.2814 23.6386 21.2814 23.6386 21.2814 23.6386C21.2814 23.6386 21.2814 23.6386 21.2814 23.6386C21.2814 23.6386 21.2814 23.6386 21.2814 23.6386C21.2814 23.6386 21.2814 23.6386 21.2814 23.6386C21.2814 23.6386 21.2814 23.6386 21.2815 23.6386C21.2815 23.6386 21.2815 23.6386 21.2815 23.6386C21.2815 23.6386 21.2815 23.6386 21.2815 23.6386C21.2815 23.6386 21.2815 23.6386 21.2815 23.6386C21.2815 23.6386 21.2815 23.6386 21.2815 23.6386C21.2815 23.6386 21.2815 23.6386 21.2815 23.6386C21.2815 23.6386 21.2815 23.6386 21.2815 23.6386C21.2815 23.6386 21.2815 23.6386 21.2815 23.6386C21.2815 23.6386 21.2815 23.6386 21.2815 23.6386C21.2815 23.6386 21.2816 23.6386 21.2816 23.6386C21.2816 23.6386 21.2816 23.6386 21.2816 23.6386C21.2816 23.6386 21.2816 23.6386 21.2816 23.6386C21.2816 23.6386 21.2816 23.6386 21.2816 23.6386C21.2816 23.6386 21.2816 23.6386 21.2816 23.6386C21.2816 23.6386 21.2816 23.6386 21.2816 23.6386C21.2816 23.6386 21.2816 23.6386 21.2816 23.6386C21.2816 23.6386 21.2816 23.6386 21.2816 23.6386C21.2816 23.6386 21.2816 23.6386 21.2816 23.6386V13.6386C21.2816 13.6386 21.2816 13.6386 21.2816 13.6386C21.2816 13.6386 21.2816 13.6386 21.2816 13.6386C21.2816 13.6386 21.2816 13.6386 21.2816 13.6386C21.2816 13.6386 21.2816 13.6386 21.2816 13.6386C21.2816 13.6386 21.2816 13.6386 21.2816 13.6386C21.2816 13.6386 21.2816 13.6386 21.2816 13.6386C21.2816 13.6386 21.2816 13.6386 21.2816 13.6386C21.2816 13.6386 21.2816 13.6386 21.2816 13.6386C21.2816 13.6386 21.2815 13.6386 21.2815 13.6386C21.2815 13.6386 21.2815 13.6386 21.2815 13.6386C21.2815 13.6386 21.2815 13.6386 21.2815 13.6386C21.2815 13.6386 21.2815 13.6386 21.2815 13.6386C21.2815 13.6386 21.2815 13.6386 21.2815 13.6386C21.2815 13.6386 21.2815 13.6386 21.2815 13.6386C21.2815 13.6386 21.2815 13.6386 21.2815 13.6386C21.2815 13.6386 21.2815 13.6386 21.2815 13.6386C21.2815 13.6386 21.2815 13.6386 21.2815 13.6386C21.2814 13.6386 21.2814 13.6386 21.2814 13.6386C21.2814 13.6386 21.2814 13.6386 21.2814 13.6386C21.2814 13.6386 21.2814 13.6386 21.2814 13.6386C21.2814 13.6386 21.2814 13.6386 21.2814 13.6386C21.2814 13.6386 21.2814 13.6386 21.2814 13.6386C21.2814 13.6386 21.2814 13.6386 21.2814 13.6386C21.2814 13.6386 21.2814 13.6386 21.2814 13.6386C21.2814 13.6386 21.2814 13.6386 21.2814 13.6386C21.2814 13.6386 21.2814 13.6386 21.2814 13.6386C21.2813 13.6386 21.2813 13.6386 21.2813 13.6386C21.2813 13.6386 21.2813 13.6386 21.2813 13.6386C21.2813 13.6386 21.2813 13.6386 21.2813 13.6386C21.2813 13.6386 21.2813 13.6386 21.2813 13.6386C21.2813 13.6386 21.2813 13.6386 21.2813 13.6386C21.2813 13.6386 21.2813 13.6386 21.2813 13.6386C21.2813 13.6386 21.2813 13.6386 21.2813 13.6386C21.2813 13.6386 21.2813 13.6386 21.2813 13.6386C21.2813 13.6386 21.2813 13.6386 21.2812 13.6386C21.2812 13.6386 21.2812 13.6386 21.2812 13.6386C21.2812 13.6386 21.2812 13.6386 21.2812 13.6386C21.2812 13.6386 21.2812 13.6386 21.2812 13.6386C21.2812 13.6386 21.2812 13.6386 21.2812 13.6386C21.2812 13.6386 21.2812 13.6386 21.2812 13.6386C21.2812 13.6386 21.2812 13.6386 21.2812 13.6386C21.2812 13.6386 21.2812 13.6386 21.2812 13.6386C21.2812 13.6386 21.2812 13.6386 21.2812 13.6386C21.2812 13.6386 21.2812 13.6386 21.2812 13.6386C21.2811 13.6386 21.2811 13.6386 21.2811 13.6386C21.2811 13.6386 21.2811 13.6386 21.2811 13.6386C21.2811 13.6386 21.2811 13.6386 21.2811 13.6386C21.2811 13.6386 21.2811 13.6386 21.2811 13.6386C21.2811 13.6386 21.2811 13.6386 21.2811 13.6386C21.2811 13.6386 21.2811 13.6386 21.2811 13.6386C21.2811 13.6386 21.2811 13.6386 21.2811 13.6386C21.2811 13.6386 21.2811 13.6386 21.2811 13.6386C21.2811 13.6386 21.2811 13.6386 21.2811 13.6386C21.2811 13.6386 21.281 13.6386 21.281 13.6386C21.281 13.6386 21.281 13.6386 21.281 13.6386C21.281 13.6386 21.281 13.6386 21.281 13.6386C21.281 13.6386 21.281 13.6386 21.281 13.6386C21.281 13.6386 21.281 13.6386 21.281 13.6386C21.281 13.6386 21.281 13.6386 21.281 13.6386C21.281 13.6386 21.281 13.6386 21.281 13.6386C21.281 13.6386 21.281 13.6386 21.281 13.6386C21.281 13.6386 21.281 13.6386 21.281 13.6386C21.281 13.6386 21.281 13.6386 21.281 13.6386C21.2809 13.6386 21.2809 13.6386 21.2809 13.6386C21.2809 13.6386 21.2809 13.6386 21.2809 13.6386C21.2809 13.6386 21.2809 13.6386 21.2809 13.6386C21.2809 13.6386 21.2809 13.6386 21.2809 13.6386C21.2809 13.6386 21.2809 13.6386 21.2809 13.6386C21.2809 13.6386 21.2809 13.6386 21.2809 13.6386C21.2809 13.6386 21.2809 13.6386 21.2809 13.6386C21.2809 13.6386 21.2809 13.6386 21.2809 13.6386C21.2809 13.6386 21.2809 13.6386 21.2809 13.6386C21.2809 13.6386 21.2809 13.6386 21.2808 13.6386C21.2808 13.6386 21.2808 13.6386 21.2808 13.6386C21.2808 13.6386 21.2808 13.6386 21.2808 13.6386C21.2808 13.6386 21.2808 13.6386 21.2808 13.6386C21.2808 13.6386 21.2808 13.6386 21.2808 13.6386C21.2808 13.6386 21.2808 13.6386 21.2808 13.6386C21.2808 13.6386 21.2808 13.6386 21.2808 13.6386C21.2808 13.6386 21.2808 13.6386 21.2808 13.6386C21.2808 13.6386 21.2808 13.6386 21.2808 13.6386C21.2808 13.6386 21.2808 13.6386 21.2808 13.6386C21.2808 13.6386 21.2807 13.6386 21.2807 13.6386C21.2807 13.6386 21.2807 13.6386 21.2807 13.6386C21.2807 13.6386 21.2807 13.6386 21.2807 13.6386C21.2807 13.6386 21.2807 13.6386 21.2807 13.6386C21.2807 13.6386 21.2807 13.6386 21.2807 13.6386C21.2807 13.6386 21.2807 13.6386 21.2807 13.6386C21.2807 13.6386 21.2807 13.6386 21.2807 13.6386C21.2807 13.6386 21.2807 13.6386 21.2807 13.6386C21.2807 13.6386 21.2807 13.6386 21.2807 13.6386C21.2807 13.6386 21.2807 13.6386 21.2807 13.6386C21.2807 13.6386 21.2806 13.6386 21.2806 13.6386C21.2806 13.6386 21.2806 13.6386 21.2806 13.6386C21.2806 13.6386 21.2806 13.6386 21.2806 13.6386C21.2806 13.6386 21.2806 13.6386 21.2806 13.6386C21.2806 13.6386 21.2806 13.6386 21.2806 13.6386C21.2806 13.6386 21.2806 13.6386 21.2806 13.6386C21.2806 13.6386 21.2806 13.6386 21.2806 13.6386C21.2806 13.6386 21.2806 13.6386 21.2806 13.6386C21.2806 13.6386 21.2806 13.6386 21.2806 13.6386C21.2806 13.6386 21.2806 13.6386 21.2806 13.6386C21.2806 13.6386 21.2805 13.6386 21.2805 13.6386C21.2805 13.6386 21.2805 13.6386 21.2805 13.6386C21.2805 13.6386 21.2805 13.6386 21.2805 13.6386C21.2805 13.6386 21.2805 13.6386 21.2805 13.6386C21.2805 13.6386 21.2805 13.6386 21.2805 13.6386C21.2805 13.6386 21.2805 13.6386 21.2805 13.6386C21.2805 13.6386 21.2805 13.6386 21.2805 13.6386C21.2805 13.6386 21.2805 13.6386 21.2805 13.6386C21.2805 13.6386 21.2805 13.6386 21.2805 13.6386C21.2805 13.6386 21.2805 13.6386 21.2805 13.6386C21.2805 13.6386 21.2805 13.6386 21.2804 13.6386C21.2804 13.6386 21.2804 13.6386 21.2804 13.6386C21.2804 13.6386 21.2804 13.6386 21.2804 13.6386C21.2804 13.6386 21.2804 13.6386 21.2804 13.6386C21.2804 13.6386 21.2804 13.6386 21.2804 13.6386C21.2804 13.6386 21.2804 13.6386 21.2804 13.6386C21.2804 13.6386 21.2804 13.6386 21.2804 13.6386C21.2804 13.6386 21.2804 13.6386 21.2804 13.6386C21.2804 13.6386 21.2804 13.6386 21.2804 13.6386C21.2804 13.6386 21.2804 13.6386 21.2804 13.6386C21.2804 13.6386 21.2804 13.6386 21.2804 13.6386C21.2803 13.6386 21.2803 13.6386 21.2803 13.6386C21.2803 13.6386 21.2803 13.6386 21.2803 13.6386C21.2803 13.6386 21.2803 13.6386 21.2803 13.6386C21.2803 13.6386 21.2803 13.6386 21.2803 13.6386C21.2803 13.6386 21.2803 13.6386 21.2803 13.6386C21.2803 13.6386 21.2803 13.6386 21.2803 13.6386C21.2803 13.6386 21.2803 13.6386 21.2803 13.6386C21.2803 13.6386 21.2803 13.6386 21.2803 13.6386C21.2803 13.6386 21.2803 13.6386 21.2803 13.6386C21.2803 13.6386 21.2803 13.6386 21.2803 13.6386C21.2803 13.6386 21.2803 13.6386 21.2802 13.6386C21.2802 13.6386 21.2802 13.6386 21.2802 13.6386C21.2802 13.6386 21.2802 13.6386 21.2802 13.6386C21.2802 13.6386 21.2802 13.6386 21.2802 13.6386C21.2802 13.6386 21.2802 13.6386 21.2802 13.6386C21.2802 13.6386 21.2802 13.6386 21.2802 13.6386C21.2802 13.6386 21.2802 13.6386 21.2802 13.6386C21.2802 13.6386 21.2802 13.6386 21.2802 13.6386C21.2802 13.6386 21.2802 13.6386 21.2802 13.6386C21.2802 13.6386 21.2802 13.6386 21.2802 13.6386C21.2802 13.6386 21.2802 13.6386 21.2802 13.6386C21.2801 13.6386 21.2801 13.6386 21.2801 13.6386C21.2801 13.6386 21.2801 13.6386 21.2801 13.6386C21.2801 13.6386 21.2801 13.6386 21.2801 13.6386C21.2801 13.6386 21.2801 13.6386 21.2801 13.6386C21.2801 13.6386 21.2801 13.6386 21.2801 13.6386C21.2801 13.6386 21.2801 13.6386 21.2801 13.6386C21.2801 13.6386 21.2801 13.6386 21.2801 13.6386C21.2801 13.6386 21.2801 13.6386 21.2801 13.6386C21.2801 13.6386 21.2801 13.6386 21.2801 13.6386C21.2801 13.6386 21.2801 13.6386 21.2801 13.6386C21.2801 13.6386 21.2801 13.6386 21.2801 13.6386C21.28 13.6386 21.28 13.6386 21.28 13.6386C21.28 13.6386 21.28 13.6386 21.28 13.6386C21.28 13.6386 21.28 13.6386 21.28 13.6386C21.28 13.6386 21.28 13.6386 21.28 13.6386C21.28 13.6386 21.28 13.6386 21.28 13.6386C21.28 13.6386 21.28 13.6386 21.28 13.6386C21.28 13.6386 21.28 13.6386 21.28 13.6386C21.28 13.6386 21.28 13.6386 21.28 13.6386C21.28 13.6386 21.28 13.6386 21.28 13.6386C21.28 13.6386 21.28 13.6386 21.28 13.6386C21.28 13.6386 21.28 13.6386 21.2799 13.6386C21.2799 13.6386 21.2799 13.6386 21.2799 13.6386C21.2799 13.6386 21.2799 13.6386 21.2799 13.6386C21.2799 13.6386 21.2799 13.6386 21.2799 13.6386C21.2799 13.6386 21.2799 13.6386 21.2799 13.6386C21.2799 13.6386 21.2799 13.6386 21.2799 13.6386C21.2799 13.6386 21.2799 13.6386 21.2799 13.6386C21.2799 13.6386 21.2799 13.6386 21.2799 13.6386C21.2799 13.6386 21.2799 13.6386 21.2799 13.6386C21.2799 13.6386 21.2799 13.6386 21.2799 13.6386C21.2799 13.6386 21.2799 13.6386 21.2799 13.6386C21.2799 13.6386 21.2799 13.6386 21.2799 13.6386C21.2798 13.6386 21.2798 13.6386 21.2798 13.6386C21.2798 13.6386 21.2798 13.6386 21.2798 13.6386C21.2798 13.6386 21.2798 13.6386 21.2798 13.6386C21.2798 13.6386 21.2798 13.6386 21.2798 13.6386C21.2798 13.6386 21.2798 13.6386 21.2798 13.6386C21.2798 13.6386 21.2798 13.6386 21.2798 13.6386C21.2798 13.6386 21.2798 13.6386 21.2798 13.6386C21.2798 13.6386 21.2798 13.6386 21.2798 13.6386C21.2798 13.6386 21.2798 13.6386 21.2798 13.6386C21.2798 13.6386 21.2798 13.6386 21.2798 13.6386C21.2798 13.6386 21.2798 13.6386 21.2798 13.6386C21.2797 13.6386 21.2797 13.6386 21.2797 13.6386C21.2797 13.6386 21.2797 13.6386 21.2797 13.6386C21.2797 13.6386 21.2797 13.6386 21.2797 13.6386C21.2797 13.6386 21.2797 13.6386 21.2797 13.6386C21.2797 13.6386 21.2797 13.6386 21.2797 13.6386C21.2797 13.6386 21.2797 13.6386 21.2797 13.6386C21.2797 13.6386 21.2797 13.6386 21.2797 13.6386C21.2797 13.6386 21.2797 13.6386 21.2797 13.6386C21.2797 13.6386 21.2797 13.6386 21.2797 13.6386C21.2797 13.6386 21.2797 13.6386 21.2797 13.6386C21.2797 13.6386 21.2797 13.6386 21.2797 13.6386C21.2796 13.6386 21.2796 13.6386 21.2796 13.6386C21.2796 13.6386 21.2796 13.6386 21.2796 13.6386C21.2796 13.6386 21.2796 13.6386 21.2796 13.6386C21.2796 13.6386 21.2796 13.6386 21.2796 13.6386C21.2796 13.6386 21.2796 13.6386 21.2796 13.6386C21.2796 13.6386 21.2796 13.6386 21.2796 13.6386C21.2796 13.6386 21.2796 13.6386 21.2796 13.6386C21.2796 13.6386 21.2796 13.6386 21.2796 13.6386C21.2796 13.6386 21.2796 13.6386 21.2796 13.6386C21.2796 13.6386 21.2796 13.6386 21.2796 13.6386C21.2796 13.6386 21.2796 13.6386 21.2796 13.6386C21.2796 13.6386 21.2795 13.6386 21.2795 13.6386C21.2795 13.6386 21.2795 13.6386 21.2795 13.6386C21.2795 13.6386 21.2795 13.6386 21.2795 13.6386C21.2795 13.6386 21.2795 13.6386 21.2795 13.6386C21.2795 13.6386 21.2795 13.6386 21.2795 13.6386C21.2795 13.6386 21.2795 13.6386 21.2795 13.6386C21.2795 13.6386 21.2795 13.6386 21.2795 13.6386C21.2795 13.6386 21.2795 13.6386 21.2795 13.6386C21.2795 13.6386 21.2795 13.6386 21.2795 13.6386C21.2795 13.6386 21.2795 13.6386 21.2795 13.6386C21.2795 13.6386 21.2795 13.6386 21.2795 13.6386C21.2795 13.6386 21.2794 13.6386 21.2794 13.6386C21.2794 13.6386 21.2794 13.6386 21.2794 13.6386C21.2794 13.6386 21.2794 13.6386 21.2794 13.6386C21.2794 13.6386 21.2794 13.6386 21.2794 13.6386C21.2794 13.6386 21.2794 13.6386 21.2794 13.6386C21.2794 13.6386 21.2794 13.6386 21.2794 13.6386C21.2794 13.6386 21.2794 13.6386 21.2794 13.6386C21.2794 13.6386 21.2794 13.6386 21.2794 13.6386C21.2794 13.6386 21.2794 13.6386 21.2794 13.6386C21.2794 13.6386 21.2794 13.6386 21.2794 13.6386C21.2794 13.6386 21.2794 13.6386 21.2794 13.6386C21.2794 13.6386 21.2794 13.6386 21.2794 13.6386C21.2793 13.6386 21.2793 13.6386 21.2793 13.6386C21.2793 13.6386 21.2793 13.6386 21.2793 13.6386C21.2793 13.6386 21.2793 13.6386 21.2793 13.6386C21.2793 13.6386 21.2793 13.6386 21.2793 13.6386C21.2793 13.6386 21.2793 13.6386 21.2793 13.6386C21.2793 13.6386 21.2793 13.6386 21.2793 13.6386C21.2793 13.6386 21.2793 13.6386 21.2793 13.6386C21.2793 13.6386 21.2793 13.6386 21.2793 13.6386C21.2793 13.6386 21.2793 13.6386 21.2793 13.6386C21.2793 13.6386 21.2793 13.6386 21.2793 13.6386C21.2793 13.6386 21.2793 13.6386 21.2793 13.6386C21.2793 13.6386 21.2792 13.6386 21.2792 13.6386C21.2792 13.6386 21.2792 13.6386 21.2792 13.6386C21.2792 13.6386 21.2792 13.6386 21.2792 13.6386C21.2792 13.6386 21.2792 13.6386 21.2792 13.6386C21.2792 13.6386 21.2792 13.6386 21.2792 13.6386C21.2792 13.6386 21.2792 13.6386 21.2792 13.6386C21.2792 13.6386 21.2792 13.6386 21.2792 13.6386C21.2792 13.6386 21.2792 13.6386 21.2792 13.6386C21.2792 13.6386 21.2792 13.6386 21.2792 13.6386C21.2792 13.6386 21.2792 13.6386 21.2792 13.6386C21.2792 13.6386 21.2792 13.6386 21.2792 13.6386C21.2792 13.6386 21.2792 13.6386 21.2791 13.6386C21.2791 13.6386 21.2791 13.6386 21.2791 13.6386C21.2791 13.6386 21.2791 13.6386 21.2791 13.6386C21.2791 13.6386 21.2791 13.6386 21.2791 13.6386C21.2791 13.6386 21.2791 13.6386 21.2791 13.6386C21.2791 13.6386 21.2791 13.6386 21.2791 13.6386C21.2791 13.6386 21.2791 13.6386 21.2791 13.6386C21.2791 13.6386 21.2791 13.6386 21.2791 13.6386C21.2791 13.6386 21.2791 13.6386 21.2791 13.6386C21.2791 13.6386 21.2791 13.6386 21.2791 13.6386C21.2791 13.6386 21.2791 13.6386 21.2791 13.6386C21.2791 13.6386 21.2791 13.6386 21.2791 13.6386C21.279 13.6386 21.279 13.6386 21.279 13.6386C21.279 13.6386 21.279 13.6386 21.279 13.6386C21.279 13.6386 21.279 13.6386 21.279 13.6386C21.279 13.6386 21.279 13.6386 21.279 13.6386C21.279 13.6386 21.279 13.6386 21.279 13.6386C21.279 13.6386 21.279 13.6386 21.279 13.6386C21.279 13.6386 21.279 13.6386 21.279 13.6386C21.279 13.6386 21.279 13.6386 21.279 13.6386C21.279 13.6386 21.279 13.6386 21.279 13.6386C21.279 13.6386 21.279 13.6386 21.279 13.6386C21.279 13.6386 21.279 13.6386 21.279 13.6386C21.279 13.6386 21.2789 13.6386 21.2789 13.6386C21.2789 13.6386 21.2789 13.6386 21.2789 13.6386C21.2789 13.6386 21.2789 13.6386 21.2789 13.6386C21.2789 13.6386 21.2789 13.6386 21.2789 13.6386C21.2789 13.6386 21.2789 13.6386 21.2789 13.6386C21.2789 13.6386 21.2789 13.6386 21.2789 13.6386C21.2789 13.6386 21.2789 13.6386 21.2789 13.6386C21.2789 13.6386 21.2789 13.6386 21.2789 13.6386C21.2789 13.6386 21.2789 13.6386 21.2789 13.6386C21.2789 13.6386 21.2789 13.6386 21.2789 13.6386C21.2789 13.6386 21.2789 13.6386 21.2789 13.6386C21.2789 13.6386 21.2789 13.6386 21.2788 13.6386C21.2788 13.6386 21.2788 13.6386 21.2788 13.6386C21.2788 13.6386 21.2788 13.6386 21.2788 13.6386C21.2788 13.6386 21.2788 13.6386 21.2788 13.6386C21.2788 13.6386 21.2788 13.6386 21.2788 13.6386C21.2788 13.6386 21.2788 13.6386 21.2788 13.6386C21.2788 13.6386 21.2788 13.6386 21.2788 13.6386C21.2788 13.6386 21.2788 13.6386 21.2788 13.6386C21.2788 13.6386 21.2788 13.6386 21.2788 13.6386C21.2788 13.6386 21.2788 13.6386 21.2788 13.6386C21.2788 13.6386 21.2788 13.6386 21.2788 13.6386C21.2788 13.6386 21.2788 13.6386 21.2788 13.6386C21.2787 13.6386 21.2787 13.6386 21.2787 13.6386C21.2787 13.6386 21.2787 13.6386 21.2787 13.6386C21.2787 13.6386 21.2787 13.6386 21.2787 13.6386C21.2787 13.6386 21.2787 13.6386 21.2787 13.6386C21.2787 13.6386 21.2787 13.6386 21.2787 13.6386C21.2787 13.6386 21.2787 13.6386 21.2787 13.6386C21.2787 13.6386 21.2787 13.6386 21.2787 13.6386C21.2787 13.6386 21.2787 13.6386 21.2787 13.6386C21.2787 13.6386 21.2787 13.6386 21.2787 13.6386C21.2787 13.6386 21.2787 13.6386 21.2787 13.6386C21.2787 13.6386 21.2787 13.6386 21.2787 13.6386C21.2787 13.6386 21.2786 13.6386 21.2786 13.6386C21.2786 13.6386 21.2786 13.6386 21.2786 13.6386C21.2786 13.6386 21.2786 13.6386 21.2786 13.6386C21.2786 13.6386 21.2786 13.6386 21.2786 13.6386C21.2786 13.6386 21.2786 13.6386 21.2786 13.6386C21.2786 13.6386 21.2786 13.6386 21.2786 13.6386C21.2786 13.6386 21.2786 13.6386 21.2786 13.6386C21.2786 13.6386 21.2786 13.6386 21.2786 13.6386C21.2786 13.6386 21.2786 13.6386 21.2786 13.6386C21.2786 13.6386 21.2786 13.6386 21.2786 13.6386C21.2786 13.6386 21.2786 13.6386 21.2786 13.6386C21.2786 13.6386 21.2785 13.6386 21.2785 13.6386C21.2785 13.6386 21.2785 13.6386 21.2785 13.6386C21.2785 13.6386 21.2785 13.6386 21.2785 13.6386C21.2785 13.6386 21.2785 13.6386 21.2785 13.6386C21.2785 13.6386 21.2785 13.6386 21.2785 13.6386C21.2785 13.6386 21.2785 13.6386 21.2785 13.6386C21.2785 13.6386 21.2785 13.6386 21.2785 13.6386C21.2785 13.6386 21.2785 13.6386 21.2785 13.6386C21.2785 13.6386 21.2785 13.6386 21.2785 13.6386C21.2785 13.6386 21.2785 13.6386 21.2785 13.6386C21.2785 13.6386 21.2785 13.6386 21.2785 13.6386C21.2785 13.6386 21.2785 13.6386 21.2784 13.6386C21.2784 13.6386 21.2784 13.6386 21.2784 13.6386C21.2784 13.6386 21.2784 13.6386 21.2784 13.6386C21.2784 13.6386 21.2784 13.6386 21.2784 13.6386C21.2784 13.6386 21.2784 13.6386 21.2784 13.6386C21.2784 13.6386 21.2784 13.6386 21.2784 13.6386C21.2784 13.6386 21.2784 13.6386 21.2784 13.6386C21.2784 13.6386 21.2784 13.6386 21.2784 13.6386C21.2784 13.6386 21.2784 13.6386 21.2784 13.6386C21.2784 13.6386 21.2784 13.6386 21.2784 13.6386C21.2784 13.6386 21.2784 13.6386 21.2784 13.6386C21.2784 13.6386 21.2783 13.6386 21.2783 13.6386C21.2783 13.6386 21.2783 13.6386 21.2783 13.6386C21.2783 13.6386 21.2783 13.6386 21.2783 13.6386C21.2783 13.6386 21.2783 13.6386 21.2783 13.6386C21.2783 13.6386 21.2783 13.6386 21.2783 13.6386C21.2783 13.6386 21.2783 13.6386 21.2783 13.6386C21.2783 13.6386 21.2783 13.6386 21.2783 13.6386C21.2783 13.6386 21.2783 13.6386 21.2783 13.6386C21.2783 13.6386 21.2783 13.6386 21.2783 13.6386C21.2783 13.6386 21.2783 13.6386 21.2783 13.6386C21.2783 13.6386 21.2783 13.6386 21.2783 13.6386C21.2783 13.6386 21.2782 13.6386 21.2782 13.6386C21.2782 13.6386 21.2782 13.6386 21.2782 13.6386C21.2782 13.6386 21.2782 13.6386 21.2782 13.6386C21.2782 13.6386 21.2782 13.6386 21.2782 13.6386C21.2782 13.6386 21.2782 13.6386 21.2782 13.6386C21.2782 13.6386 21.2782 13.6386 21.2782 13.6386C21.2782 13.6386 21.2782 13.6386 21.2782 13.6386C21.2782 13.6386 21.2782 13.6386 21.2782 13.6386C21.2782 13.6386 21.2782 13.6386 21.2782 13.6386C21.2782 13.6386 21.2782 13.6386 21.2782 13.6386C21.2782 13.6386 21.2782 13.6386 21.2782 13.6386C21.2781 13.6386 21.2781 13.6386 21.2781 13.6386C21.2781 13.6386 21.2781 13.6386 21.2781 13.6386C21.2781 13.6386 21.2781 13.6386 21.2781 13.6386C21.2781 13.6386 21.2781 13.6386 21.2781 13.6386C21.2781 13.6386 21.2781 13.6386 21.2781 13.6386C21.2781 13.6386 21.2781 13.6386 21.2781 13.6386C21.2781 13.6386 21.2781 13.6386 21.2781 13.6386C21.2781 13.6386 21.2781 13.6386 21.2781 13.6386C21.2781 13.6386 21.2781 13.6386 21.2781 13.6386C21.2781 13.6386 21.2781 13.6386 21.2781 13.6386C21.2781 13.6386 21.2781 13.6386 21.278 13.6386C21.278 13.6386 21.278 13.6386 21.278 13.6386C21.278 13.6386 21.278 13.6386 21.278 13.6386C21.278 13.6386 21.278 13.6386 21.278 13.6386C21.278 13.6386 21.278 13.6386 21.278 13.6386C21.278 13.6386 21.278 13.6386 21.278 13.6386C21.278 13.6386 21.278 13.6386 21.278 13.6386C21.278 13.6386 21.278 13.6386 21.278 13.6386C21.278 13.6386 21.278 13.6386 21.278 13.6386C21.278 13.6386 21.278 13.6386 21.278 13.6386C21.278 13.6386 21.278 13.6386 21.278 13.6386C21.278 13.6386 21.2779 13.6386 21.2779 13.6386C21.2779 13.6386 21.2779 13.6386 21.2779 13.6386C21.2779 13.6386 21.2779 13.6386 21.2779 13.6386C21.2779 13.6386 21.2779 13.6386 21.2779 13.6386C21.2779 13.6386 21.2779 13.6386 21.2779 13.6386C21.2779 13.6386 21.2779 13.6386 21.2779 13.6386C21.2779 13.6386 21.2779 13.6386 21.2779 13.6386C21.2779 13.6386 21.2779 13.6386 21.2779 13.6386C21.2779 13.6386 21.2779 13.6386 21.2779 13.6386C21.2779 13.6386 21.2779 13.6386 21.2779 13.6386C21.2779 13.6386 21.2779 13.6386 21.2778 13.6386C21.2778 13.6386 21.2778 13.6386 21.2778 13.6386C21.2778 13.6386 21.2778 13.6386 21.2778 13.6386C21.2778 13.6386 21.2778 13.6386 21.2778 13.6386C21.2778 13.6386 21.2778 13.6386 21.2778 13.6386C21.2778 13.6386 21.2778 13.6386 21.2778 13.6386C21.2778 13.6386 21.2778 13.6386 21.2778 13.6386C21.2778 13.6386 21.2778 13.6386 21.2778 13.6386C21.2778 13.6386 21.2778 13.6386 21.2778 13.6386C21.2778 13.6386 21.2778 13.6386 21.2778 13.6386C21.2778 13.6386 21.2778 13.6386 21.2778 13.6386C21.2777 13.6386 21.2777 13.6386 21.2777 13.6386C21.2777 13.6386 21.2777 13.6386 21.2777 13.6386C21.2777 13.6386 21.2777 13.6386 21.2777 13.6386C21.2777 13.6386 21.2777 13.6386 21.2777 13.6386C21.2777 13.6386 21.2777 13.6386 21.2777 13.6386C21.2777 13.6386 21.2777 13.6386 21.2777 13.6386C21.2777 13.6386 21.2777 13.6386 21.2777 13.6386C21.2777 13.6386 21.2777 13.6386 21.2777 13.6386C21.2777 13.6386 21.2777 13.6386 21.2777 13.6386C21.2777 13.6386 21.2777 13.6386 21.2777 13.6386C21.2776 13.6386 21.2776 13.6386 21.2776 13.6386C21.2776 13.6386 21.2776 13.6386 21.2776 13.6386C21.2776 13.6386 21.2776 13.6386 21.2776 13.6386C21.2776 13.6386 21.2776 13.6386 21.2776 13.6386C21.2776 13.6386 21.2776 13.6386 21.2776 13.6386C21.2776 13.6386 21.2776 13.6386 21.2776 13.6386C21.2776 13.6386 21.2776 13.6386 21.2776 13.6386C21.2776 13.6386 21.2776 13.6386 21.2776 13.6386C21.2776 13.6386 21.2776 13.6386 21.2776 13.6386C21.2776 13.6386 21.2776 13.6386 21.2775 13.6386C21.2775 13.6386 21.2775 13.6386 21.2775 13.6386C21.2775 13.6386 21.2775 13.6386 21.2775 13.6386C21.2775 13.6386 21.2775 13.6386 21.2775 13.6386C21.2775 13.6386 21.2775 13.6386 21.2775 13.6386C21.2775 13.6386 21.2775 13.6386 21.2775 13.6386C21.2775 13.6386 21.2775 13.6386 21.2775 13.6386C21.2775 13.6386 21.2775 13.6386 21.2775 13.6386C21.2775 13.6386 21.2775 13.6386 21.2775 13.6386C21.2775 13.6386 21.2775 13.6386 21.2775 13.6386C21.2775 13.6386 21.2775 13.6386 21.2774 13.6386C21.2774 13.6386 21.2774 13.6386 21.2774 13.6386C21.2774 13.6386 21.2774 13.6386 21.2774 13.6386C21.2774 13.6386 21.2774 13.6386 21.2774 13.6386C21.2774 13.6386 21.2774 13.6386 21.2774 13.6386C21.2774 13.6386 21.2774 13.6386 21.2774 13.6386C21.2774 13.6386 21.2774 13.6386 21.2774 13.6386C21.2774 13.6386 21.2774 13.6386 21.2774 13.6386C21.2774 13.6386 21.2774 13.6386 21.2774 13.6386C21.2774 13.6386 21.2774 13.6386 21.2774 13.6386C21.2774 13.6386 21.2773 13.6386 21.2773 13.6386C21.2773 13.6386 21.2773 13.6386 21.2773 13.6386C21.2773 13.6386 21.2773 13.6386 21.2773 13.6386C21.2773 13.6386 21.2773 13.6386 21.2773 13.6386C21.2773 13.6386 21.2773 13.6386 21.2773 13.6386C21.2773 13.6386 21.2773 13.6386 21.2773 13.6386C21.2773 13.6386 21.2773 13.6386 21.2773 13.6386C21.2773 13.6386 21.2773 13.6386 21.2773 13.6386C21.2773 13.6386 21.2773 13.6386 21.2773 13.6386C21.2773 13.6386 21.2773 13.6386 21.2773 13.6386C21.2772 13.6386 21.2772 13.6386 21.2772 13.6386C21.2772 13.6386 21.2772 13.6386 21.2772 13.6386C21.2772 13.6386 21.2772 13.6386 21.2772 13.6386C21.2772 13.6386 21.2772 13.6386 21.2772 13.6386C21.2772 13.6386 21.2772 13.6386 21.2772 13.6386C21.2772 13.6386 21.2772 13.6386 21.2772 13.6386C21.2772 13.6386 21.2772 13.6386 21.2772 13.6386C21.2772 13.6386 21.2772 13.6386 21.2772 13.6386C21.2772 13.6386 21.2772 13.6386 21.2772 13.6386C21.2772 13.6386 21.2771 13.6386 21.2771 13.6386C21.2771 13.6386 21.2771 13.6386 21.2771 13.6386C21.2771 13.6386 21.2771 13.6386 21.2771 13.6386C21.2771 13.6386 21.2771 13.6386 21.2771 13.6386C21.2771 13.6386 21.2771 13.6386 21.2771 13.6386C21.2771 13.6386 21.2771 13.6386 21.2771 13.6386C21.2771 13.6386 21.2771 13.6386 21.2771 13.6386C21.2771 13.6386 21.2771 13.6386 21.2771 13.6386C21.2771 13.6386 21.2771 13.6386 21.2771 13.6386C21.2771 13.6386 21.277 13.6386 21.277 13.6386C21.277 13.6386 21.277 13.6386 21.277 13.6386C21.277 13.6386 21.277 13.6386 21.277 13.6386C21.277 13.6386 21.277 13.6386 21.277 13.6386C21.277 13.6386 21.277 13.6386 21.277 13.6386C21.277 13.6386 21.277 13.6386 21.277 13.6386C21.277 13.6386 21.277 13.6386 21.277 13.6386C21.277 13.6386 21.277 13.6386 21.277 13.6386C21.277 13.6386 21.277 13.6386 21.277 13.6386C21.277 13.6386 21.2769 13.6386 21.2769 13.6386C21.2769 13.6386 21.2769 13.6386 21.2769 13.6386C21.2769 13.6386 21.2769 13.6386 21.2769 13.6386C21.2769 13.6386 21.2769 13.6386 21.2769 13.6386C21.2769 13.6386 21.2769 13.6386 21.2769 13.6386C21.2769 13.6386 21.2769 13.6386 21.2769 13.6386C21.2769 13.6386 21.2769 13.6386 21.2769 13.6386C21.2769 13.6386 21.2769 13.6386 21.2769 13.6386C21.2769 13.6386 21.2769 13.6386 21.2769 13.6386C21.2769 13.6386 21.2768 13.6386 21.2768 13.6386C21.2768 13.6386 21.2768 13.6386 21.2768 13.6386C21.2768 13.6386 21.2768 13.6386 21.2768 13.6386C21.2768 13.6386 21.2768 13.6386 21.2768 13.6386C21.2768 13.6386 21.2768 13.6386 21.2768 13.6386C21.2768 13.6386 21.2768 13.6386 21.2768 13.6386C21.2768 13.6386 21.2768 13.6386 21.2768 13.6386C21.2768 13.6386 21.2768 13.6386 21.2768 13.6386C21.2768 13.6386 21.2768 13.6386 21.2768 13.6386C21.2767 13.6386 21.2767 13.6386 21.2767 13.6386C21.2767 13.6386 21.2767 13.6386 21.2767 13.6386C21.2767 13.6386 21.2767 13.6386 21.2767 13.6386C21.2767 13.6386 21.2767 13.6386 21.2767 13.6386C21.2767 13.6386 21.2767 13.6386 21.2767 13.6386C21.2767 13.6386 21.2767 13.6386 21.2767 13.6386C21.2767 13.6386 21.2767 13.6386 21.2767 13.6386C21.2767 13.6386 21.2767 13.6386 21.2767 13.6386C21.2767 13.6386 21.2767 13.6386 21.2766 13.6386V23.6386ZM21.2816 23.6386C20.5171 23.6386 19.7885 23.33 19.2639 22.8079L26.3174 15.7194C24.9848 14.3933 23.1842 13.6386 21.2816 13.6386V23.6386ZM19.2383 22.7823L19.4473 22.9933L26.552 15.956L26.343 15.745L19.2383 22.7823ZM26.5436 23.0017L26.7526 22.7917L19.6647 15.7376L19.4557 15.9476L26.5436 23.0017ZM26.7354 22.809C26.1033 23.4379 25.3416 23.6614 24.7204 23.6616C24.0984 23.6619 23.3318 23.4383 22.6965 22.8046L29.7588 15.7247C26.9947 12.9675 22.4341 12.9818 19.6819 15.7203L26.7354 22.809ZM22.6878 22.7959C22.1467 22.2534 21.8379 21.4956 21.8525 20.7186L31.8508 20.9066C31.8874 18.9597 31.1346 17.1039 29.7675 15.7334L22.6878 22.7959ZM21.8525 20.7226C21.8657 19.9866 22.1669 19.2724 22.6921 18.7471L29.7632 25.8182C31.0744 24.5069 31.8176 22.7487 31.8508 20.9027L21.8525 20.7226ZM22.6921 18.7471L19.7191 21.7201L26.7902 28.7912L29.7632 25.8182L22.6921 18.7471ZM19.7446 21.6948C20.6563 20.7961 21.8442 20.3596 22.9996 20.3596V30.3596C24.3391 30.3596 25.713 29.8532 26.7647 28.8165L19.7446 21.6948ZM21.2816 14.3596H21.2786V24.3596H21.2816V14.3596ZM21.2786 14.3596C19.5727 14.3596 17.944 15.0357 16.7395 16.2448L23.8238 23.3025C23.1513 23.9776 22.2306 24.3596 21.2786 24.3596V14.3596ZM16.7461 16.2381C15.5363 17.4479 14.8586 19.0861 14.8677 20.805L24.8676 20.7523C24.8727 21.7132 24.489 22.6374 23.8172 23.3092L16.7461 16.2381ZM14.8677 20.792C14.8722 22.4857 15.5443 24.1145 16.7595 25.3205L23.8038 18.2228C24.487 18.9008 24.8651 19.8216 24.8676 20.7653L14.8677 20.792ZM16.7455 25.3065L19.4635 28.0255L26.5358 20.9558L23.8178 18.2368L16.7455 25.3065ZM26.5358 28.0255L29.2538 25.3065L22.1815 18.2368L19.4635 20.9558L26.5358 28.0255ZM29.2464 25.314C30.4327 24.1322 31.1029 22.5443 31.13 20.8802L21.1313 20.7171C21.1464 19.789 21.5246 18.8911 22.1889 18.2293L29.2464 25.314ZM31.1296 20.9017C31.1657 19.1495 30.488 17.4685 29.2467 16.2317L22.1886 23.3156C21.4952 22.6248 21.1116 21.6718 21.1317 20.6956L31.1296 20.9017ZM29.2598 16.2447C26.7712 13.7469 22.6596 13.7476 20.1732 16.2481L27.2641 23.2992C26.4911 24.0766 25.5325 24.3717 24.7191 24.372C23.9049 24.3723 22.9475 24.0774 22.1755 23.3026L29.2598 16.2447ZM20.1831 16.2381L19.7191 16.7021L26.7902 23.7732L27.2542 23.3092L20.1831 16.2381ZM19.7191 16.7021C21.5307 14.8905 24.4686 14.8905 26.2802 16.7021L19.2091 23.7732C21.3027 25.8668 24.6966 25.8668 26.7902 23.7732L19.7191 16.7021ZM26.2802 16.7021L25.8162 16.2381L18.7451 23.3092L19.2091 23.7732L26.2802 16.7021ZM25.8228 16.2448C24.613 15.0304 22.98 14.3596 21.2816 14.3596V24.3596C20.3373 24.3596 19.4163 23.9829 18.7385 23.3025L25.8228 16.2448Z" fill="#0D062D" mask="url(#path-1-inside-1_35_3196)"/>
</svg>
