<svg width="24" height="27" viewBox="0 0 24 27" fill="none" xmlns="http://www.w3.org/2000/svg">
<path d="M9 0L7.5 0.421875V1.6875H9V0ZM9 1.6875V3.375H7.5V1.6875H7.491C5.604 1.71281 4.2225 1.63688 3.093 2.33719C2.529 2.6865 2.0805 3.28219 1.833 4.02131C1.587 4.76044 1.5 5.64131 1.5 6.75V20.25C1.5 21.3604 1.587 22.2396 1.8345 22.9787C2.0805 23.7195 2.529 24.3101 3.0945 24.6594C4.2225 25.3614 5.604 25.2872 7.491 25.3125H15V23.625H7.5C5.61 23.5997 4.3695 23.5238 3.8205 23.1829C3.5445 23.0141 3.3855 22.8251 3.24 22.3864C3.0945 21.9476 3 21.249 3 20.25V11.8125C3 10.8135 3.0945 10.1149 3.24 9.67613C3.387 9.23738 3.5445 9.05006 3.8205 8.87963C4.371 8.53706 5.613 8.46281 7.509 8.4375H16.5C18.39 8.46281 19.6305 8.53875 20.1795 8.87963C20.4555 9.04838 20.6145 9.23738 20.76 9.67613C20.9055 10.1149 21 11.8125 21 11.8125V16.875H22.5V6.75C22.5 5.63963 22.41 4.76044 22.1625 4.02131C21.9358 3.30956 21.4905 2.71232 20.907 2.33719C19.7775 1.63519 18.396 1.71281 16.509 1.6875H16.5V3.375H15V1.6875H9ZM15 1.6875H16.5V0L15 0.421875V1.6875ZM19.5 18.5625V21.9375H16.5V23.625H19.5V27H21V23.625H24V21.9375H21V18.5625H19.5Z" fill="#808080"/>
</svg>
