<svg width="23" height="28" viewBox="0 0 23 28" fill="none" xmlns="http://www.w3.org/2000/svg">
<path d="M4.3125 7H18.6875C19.0687 7 19.4344 6.81563 19.704 6.48744C19.9735 6.15925 20.125 5.71413 20.125 5.25C20.125 4.78587 19.9735 4.34075 19.704 4.01256C19.4344 3.68437 19.0687 3.5 18.6875 3.5H4.3125C3.93125 3.5 3.56562 3.68437 3.29603 4.01256C3.02645 4.34075 2.875 4.78587 2.875 5.25C2.875 5.71413 3.02645 6.15925 3.29603 6.48744C3.56562 6.81563 3.93125 7 4.3125 7Z" fill="black"/>
<path d="M18.6875 12.25H4.3125C3.93125 12.25 3.56562 12.4344 3.29603 12.7626C3.02645 13.0908 2.875 13.5359 2.875 14C2.875 14.4641 3.02645 14.9092 3.29603 15.2374C3.56562 15.5656 3.93125 15.75 4.3125 15.75H18.6875C19.0687 15.75 19.4344 15.5656 19.704 15.2374C19.9735 14.9092 20.125 14.4641 20.125 14C20.125 13.5359 19.9735 13.0908 19.704 12.7626C19.4344 12.4344 19.0687 12.25 18.6875 12.25Z" fill="black"/>
<path d="M18.6875 21H4.3125C3.93125 21 3.56562 21.1844 3.29603 21.5126C3.02645 21.8408 2.875 22.2859 2.875 22.75C2.875 23.2141 3.02645 23.6592 3.29603 23.9874C3.56562 24.3156 3.93125 24.5 4.3125 24.5H18.6875C19.0687 24.5 19.4344 24.3156 19.704 23.9874C19.9735 23.6592 20.125 23.2141 20.125 22.75C20.125 22.2859 19.9735 21.8408 19.704 21.5126C19.4344 21.1844 19.0687 21 18.6875 21Z" fill="black"/>
</svg>
