<?xml version="1.0" encoding="iso-8859-1"?>
<!-- Uploaded to: SVG Repo, www.svgrepo.com, Generator: SVG Repo Mixer Tools -->
<svg fill="#000000" height="800px" width="800px" version="1.1" id="Layer_1" xmlns="http://www.w3.org/2000/svg" xmlns:xlink="http://www.w3.org/1999/xlink" 
	 viewBox="0 0 512.845 512.845" xml:space="preserve">
<g>
	<g>
		<path d="M204.365,129.485c-1.707-4.267-6.827-6.827-11.093-5.12L31.138,177.272c-4.267,1.707-6.827,6.827-5.12,11.093
			c1.707,3.413,5.12,5.973,8.533,5.973c0.853,0,1.707,0,2.56-0.853l162.133-52.907C203.512,138.872,206.072,133.752,204.365,129.485
			z"/>
	</g>
</g>
<g>
	<g>
		<path d="M223.138,185.805L183.032,64.632c-16.213-48.64-69.12-75.947-118.613-59.733c-48.64,16.213-75.947,69.12-59.733,118.613
			l40.96,122.027c12.8,38.4,51.2,63.147,93.013,63.147c7.68,0,16.213-0.853,23.893-4.267c27.307-7.68,48.64-24.747,59.733-46.933
			C233.378,236.152,233.378,210.552,223.138,185.805z M206.925,250.658c-9.387,17.92-26.453,31.573-48.64,37.547
			c-41.813,10.24-84.48-11.093-97.28-48.64L20.898,118.392c-12.8-40.107,9.387-83.627,49.493-96.427
			c7.68-3.413,16.213-4.267,23.893-4.267c32.427,0,62.293,20.48,72.533,52.907l40.107,121.173
			C215.458,213.112,215.458,233.592,206.925,250.658z"/>
	</g>
</g>
<g>
	<g>
		<path d="M440.738,233.592l-120.32-121.173c-3.413-3.413-8.533-3.413-11.947,0s-3.413,8.533,0,11.947l120.32,121.173
			c1.707,1.707,3.413,2.56,5.973,2.56c1.707,0,4.267-0.853,5.973-2.56C444.152,242.125,444.152,237.005,440.738,233.592z"/>
	</g>
</g>
<g>
	<g>
		<path d="M483.405,60.365c-17.067-16.213-38.4-25.6-61.44-25.6c-23.04,0-45.227,9.387-61.44,25.6l-96.427,95.573
			c-34.133,34.133-34.133,88.747,0,122.88c19.627,19.627,44.373,29.867,71.68,29.867c27.307,0,52.053-11.093,72.533-29.867
			l75.093-75.093C522.658,164.472,522.658,99.618,483.405,60.365z M469.752,191.778l-75.093,75.093
			c-15.36,16.213-36.693,24.747-58.88,24.747c-22.187,0-42.667-8.533-58.88-24.747c-27.307-27.307-27.307-71.68,0-98.987
			l96.427-95.573c12.8-13.653,30.72-20.48,48.64-20.48s35.84,6.827,47.787,20.48C503.032,105.592,503.032,158.498,469.752,191.778z"
			/>
	</g>
</g>
<g>
	<g>
		<path d="M179.618,324.898c-5.12,0-8.533,3.413-8.533,8.533v170.667c0,5.12,3.413,8.533,8.533,8.533
			c4.267,0,8.533-3.413,8.533-8.533V333.432C188.152,328.312,184.738,324.898,179.618,324.898z"/>
	</g>
</g>
<g>
	<g>
		<path d="M247.885,324.898h-128c-52.053,0-93.867,41.813-93.867,93.867s41.813,93.867,93.867,93.867h128
			c52.053,0,93.867-41.813,93.867-93.867S299.938,324.898,247.885,324.898z M247.885,495.565h-128c-42.667,0-76.8-34.133-76.8-76.8
			s34.133-76.8,76.8-76.8h128c42.667,0,76.8,34.133,76.8,76.8S290.552,495.565,247.885,495.565z"/>
	</g>
</g>
</svg>