<svg width="24" height="27" viewBox="0 0 24 27" fill="none" xmlns="http://www.w3.org/2000/svg">
<g clip-path="url(#clip0_42_3275)">
<path d="M9.56267 6.66512C9.48279 6.44546 9.24319 6.31368 9.04355 6.40155L1.45604 9.12507C1.25635 9.21295 1.13655 9.47651 1.21643 9.69611C1.29632 9.87181 1.45604 10.0036 1.61576 10.0036C1.65568 10.0036 1.69564 10.0036 1.73556 9.95968L9.32302 7.23616C9.52275 7.14834 9.64256 6.88477 9.56267 6.66512Z" fill="#787486"/>
<path d="M10.4423 9.56452L8.56545 3.32683C7.80672 0.822965 5.33079 -0.582733 3.01463 0.251924C0.738384 1.08653 -0.539523 3.81005 0.219256 6.35783L2.13609 12.6395C2.7351 14.6162 4.53214 15.8901 6.48889 15.8901C6.8483 15.8901 7.24763 15.8462 7.60703 15.6705C8.88494 15.2751 9.88328 14.3966 10.4024 13.2545C10.9215 12.1563 10.9215 10.8384 10.4423 9.56452ZM9.68359 12.903C9.2443 13.8255 8.44565 14.5283 7.40735 14.8358C5.45059 15.363 3.45387 14.2648 2.85486 12.332L0.977942 6.09426C0.37893 4.02965 1.41723 1.78935 3.2941 1.13044C3.65351 0.954747 4.05284 0.910785 4.41224 0.910785C5.92975 0.910785 7.32742 1.96505 7.80663 3.63431L9.68354 9.872C10.0829 10.9702 10.0829 12.0245 9.68359 12.903Z" fill="#787486"/>
<path d="M20.626 12.0247L14.9953 5.78704C14.8356 5.61135 14.596 5.61135 14.4362 5.78704C14.2764 5.96274 14.2765 6.2263 14.4362 6.40205L20.0669 12.6397C20.1468 12.7276 20.2266 12.7715 20.3464 12.7715C20.4263 12.7715 20.5461 12.7276 20.626 12.6397C20.7858 12.464 20.7858 12.2004 20.626 12.0247Z" fill="#787486"/>
<path d="M22.6212 3.10786C21.8225 2.27326 20.8242 1.79004 19.746 1.79004C18.6678 1.79004 17.6295 2.27326 16.8707 3.10786L12.3582 8.02773C10.7608 9.78481 10.7608 12.5962 12.3582 14.3533C13.2767 15.3636 14.4347 15.8908 15.7126 15.8908C16.9905 15.8908 18.1486 15.3197 19.107 14.3533L22.6212 10.4877C24.4582 8.46704 24.4582 5.12851 22.6212 3.10786ZM21.9823 9.87268L18.4681 13.7383C17.7493 14.5729 16.751 15.0122 15.7127 15.0122C14.6744 15.0122 13.716 14.5729 12.9572 13.7383C11.6793 12.3326 11.6793 10.0484 12.9572 8.64268L17.4698 3.72281C18.0688 3.01999 18.9074 2.66855 19.746 2.66855C20.5847 2.66855 21.4233 3.01999 21.9824 3.72281C23.5397 5.43604 23.5397 8.15951 21.9823 9.87268Z" fill="#787486"/>
<path d="M8.40714 16.7246C8.16753 16.7246 8.00781 16.9003 8.00781 17.1639V25.9494C8.00781 26.2129 8.16753 26.3886 8.40714 26.3886C8.60682 26.3886 8.80646 26.2129 8.80646 25.9494V17.1639C8.80651 16.9004 8.64674 16.7246 8.40714 16.7246Z" fill="#787486"/>
<path d="M11.6016 16.7246H5.61152C3.17555 16.7246 1.21875 18.877 1.21875 21.5567C1.21875 24.2363 3.17551 26.3887 5.61152 26.3887H11.6016C14.0376 26.3887 15.9944 24.2363 15.9944 21.5567C15.9944 18.877 14.0376 16.7246 11.6016 16.7246ZM11.6016 25.5101H5.61152C3.6148 25.5101 2.01745 23.753 2.01745 21.5567C2.01745 19.3603 3.6148 17.6032 5.61152 17.6032H11.6016C13.5984 17.6032 15.1957 19.3603 15.1957 21.5567C15.1957 23.753 13.5984 25.5101 11.6016 25.5101Z" fill="#787486"/>
</g>
<defs>
<clipPath id="clip0_42_3275">
<rect width="24" height="26.4" fill="white"/>
</clipPath>
</defs>
</svg>
