<svg width="24" height="27" viewBox="0 0 24 27" fill="none" xmlns="http://www.w3.org/2000/svg">
<path d="M22.4928 4.46487H20.2602V1.97656C20.2602 1.32087 19.5839 0.787153 18.7534 0.787153H13.9393V0.528564C13.9393 0.236634 13.6394 0 13.2695 0H6.99075C6.62083 0 6.32098 0.236634 6.32098 0.528564V0.787153H1.50683C0.67596 0.787153 0 1.3206 0 1.97656V21.5329C0 22.1886 0.67596 22.722 1.50683 22.722H3.73976V25.2106C3.73976 25.8666 4.41572 26.4 5.24659 26.4H22.4928C23.324 26.4 24 25.8666 24 25.2106V5.65428C24 4.99859 23.324 4.46487 22.4928 4.46487ZM3.73976 5.65428V21.4009H1.67444V2.10883H6.32063V2.26686C6.32063 2.55879 6.62049 2.79542 6.99041 2.79542H13.2691C13.6391 2.79542 13.9389 2.55879 13.9389 2.26686V2.10883H18.5851V4.46514H17.678V4.20628C17.678 3.91435 17.3781 3.67772 17.0086 3.67772H10.7298C10.3599 3.67772 10.0601 3.91435 10.0601 4.20628V4.46487H5.24659C4.41572 4.46487 3.73976 4.99859 3.73976 5.65428ZM22.3256 25.0786H5.41386V5.78628H10.0604V5.94431C10.0604 6.23624 10.3602 6.47287 10.7302 6.47287H17.0086C17.3788 6.47287 17.6787 6.23597 17.6787 5.94431V5.78628H22.3245V25.0783H22.3256V25.0786Z" fill="#787486"/>
<path d="M19.6752 16.1836H8.06641V18.0336H19.6752V16.1836Z" fill="#787486"/>
<path d="M19.6752 19.9717H8.06641V21.8219H19.6752V19.9717Z" fill="#787486"/>
<path d="M12.838 14.2019H14.9026V12.1313H17.5264V10.5017H14.9026V8.43164H12.838V10.5017H10.2148V12.1313H12.838V14.2019Z" fill="#787486"/>
</svg>
