<svg width="25" height="24" viewBox="0 0 25 24" fill="none" xmlns="http://www.w3.org/2000/svg">
<path d="M7.29167 20.9997H17.7083C20 20.9997 21.875 19.1997 21.875 16.9997V10.4997C21.875 9.19967 21.25 8.09967 20.2083 7.29967L15 3.49967C13.5417 2.49967 11.4583 2.49967 10 3.59967L4.79167 7.29967C3.75 8.09967 3.125 9.19967 3.125 10.4997V16.9997C3.125 19.1997 5 20.9997 7.29167 20.9997ZM5.20833 10.4997C5.20833 9.89967 5.52083 9.29966 6.04167 8.89966L11.25 5.09967C11.6667 4.79967 12.0833 4.69967 12.5 4.69967C12.9167 4.69967 13.3333 4.79967 13.75 5.09967L18.9583 8.89966C19.4792 9.29966 19.7917 9.89967 19.7917 10.4997V16.9997C19.7917 18.0997 18.8542 18.9997 17.7083 18.9997H7.29167C6.14583 18.9997 5.20833 18.0997 5.20833 16.9997V10.4997Z" fill="#787486"/>
</svg>
