<svg width="31" height="31" viewBox="0 0 31 31" fill="none" xmlns="http://www.w3.org/2000/svg">
<path d="M29.9644 20.9007L23.3779 14.3048V3.69319C23.3779 2.96593 22.7843 2.37148 22.0581 2.37148H17.4482V1.32171C17.4482 0.594451 16.8546 0 16.1284 0H7.24956C6.52334 0 5.92974 0.594451 5.92974 1.32171V2.3778H1.31982C0.593605 2.3778 0 2.97226 0 3.69951V29.6783C0 30.4055 0.593605 31 1.31982 31H22.0581C22.7843 31 23.3779 30.4055 23.3779 29.6783V27.7621C24.742 29.1281 27.489 29.0585 29.434 27.1108C31.2779 25.2515 31.5432 22.4816 29.9644 20.9007ZM8.56307 2.57385H14.8149V4.81253H8.56307V2.57385ZM2.5765 28.4135V5.00857H5.93605V6.06467C5.93605 6.79192 6.52966 7.38637 7.25587 7.38637H16.1347C16.7914 7.38637 17.385 6.79192 17.4545 6.13423V5.00857H20.7446V12.3191L15.0801 11.2693C14.638 11.0796 13.5014 11.4653 13.634 12.7175L14.7517 18.7821C14.7517 19.0477 14.8843 19.2438 15.0801 19.4398L20.7446 25.1124V28.4072H2.5765V28.4135ZM27.59 25.2515C27.0659 25.7132 25.8787 26.4215 25.0198 25.7764L17.1893 17.9347L16.4631 14.1087L20.2141 14.836L28.1141 22.7472C28.5815 23.2089 28.512 24.3282 27.59 25.2515Z" fill="#787486"/>
</svg>
