<svg width="32" height="32" viewBox="0 0 32 32" fill="none" xmlns="http://www.w3.org/2000/svg">
<g clip-path="url(#clip0_249_3782)">
<path d="M27.0006 31.3596H8.00063C7.80163 31.3596 7.64062 31.1986 7.64062 30.9996V29.3596H6.00063C5.80163 29.3596 5.64062 29.1986 5.64062 28.9996V27.3596H5.00063C4.80163 27.3596 4.64062 27.1986 4.64062 26.9996V2.99965C4.64062 2.80065 4.80163 2.63965 5.00063 2.63965H9.64063V1.99965C9.64063 1.80065 9.80163 1.63965 10.0006 1.63965H11.6406V0.999648C11.6406 0.800648 11.8016 0.639648 12.0006 0.639648H16.0006C16.1996 0.639648 16.3606 0.800648 16.3606 0.999648V1.63965H18.0006C18.1996 1.63965 18.3606 1.80065 18.3606 1.99965V2.63965H23.0006C23.1996 2.63965 23.3606 2.80065 23.3606 2.99965V4.63965H25.0006C25.1996 4.63965 25.3606 4.80065 25.3606 4.99965V6.63965H27.0006C27.1996 6.63965 27.3606 6.80065 27.3606 6.99965V30.9996C27.3606 31.1986 27.1996 31.3596 27.0006 31.3596ZM8.36062 30.6396H26.6406V7.35965H25.3606V28.9996C25.3606 29.1986 25.1996 29.3596 25.0006 29.3596H8.36062V30.6396ZM6.36063 28.6396H24.6406V5.35965H23.3606V26.9996C23.3606 27.1986 23.1996 27.3596 23.0006 27.3596H6.36063V28.6396ZM5.36063 26.6396H22.6406V3.35965H18.3606V3.99965C18.3606 4.19865 18.1996 4.35965 18.0006 4.35965H10.0006C9.80163 4.35965 9.64063 4.19865 9.64063 3.99965V3.35965H5.36063V26.6396ZM10.3606 3.63965H17.6406V2.35965H16.0006C15.8016 2.35965 15.6406 2.19865 15.6406 1.99965V1.35965H12.3606V1.99965C12.3606 2.19865 12.1996 2.35965 12.0006 2.35965H10.3606V3.63965ZM20.5006 21.3596H7.50063V20.6396H20.5006V21.3596ZM20.5006 17.3596H7.50063V16.6396H20.5006V17.3596ZM20.5006 13.3596H12.5006V12.6396H20.5006V13.3596ZM9.86062 12.9996H9.14063V11.3596H7.50063V10.6396H9.14063V8.99965H9.86062V10.6396H11.5006V11.3596H9.86062V12.9996ZM20.5006 9.35965H12.5006V8.63965H20.5006V9.35965Z" fill="black"/>
</g>
<defs>
<clipPath id="clip0_249_3782">
<rect width="32" height="32" fill="white"/>
</clipPath>
</defs>
</svg>
