<svg width="90" height="93" viewBox="0 0 90 93" fill="none" xmlns="http://www.w3.org/2000/svg">
<path d="M90 46.5C90 72.1812 69.8528 93 45 93C20.1472 93 0 72.1812 0 46.5C0 20.8188 20.1472 0 45 0C69.8528 0 90 20.8188 90 46.5Z" fill="#D9D9D9"/>
<path d="M16.6153 82.5845C19.0506 70.2007 30.8325 60.8077 45 60.8077C59.1675 60.8077 70.9494 70.2007 73.3847 82.5845C65.6413 89.0963 55.7618 93 45 93C34.2382 93 24.3587 89.0963 16.6153 82.5845Z" fill="white"/>
<path d="M58.8462 40.2404C58.8462 48.3069 52.5179 54.8462 44.7115 54.8462C36.9052 54.8462 30.5769 48.3069 30.5769 40.2404C30.5769 32.1738 36.9052 25.6346 44.7115 25.6346C52.5179 25.6346 58.8462 32.1738 58.8462 40.2404Z" fill="white"/>
</svg>
